<svg xmlns="http://www.w3.org/2000/svg" xmlns:xlink="http://www.w3.org/1999/xlink" width="1920" height="1016" viewBox="0 0 1920 1016">
  <defs>
    <clipPath id="clip-path">
      <rect id="Rectangle_166" data-name="Rectangle 166" width="1920" height="1016" transform="translate(6355 -14501)" fill="#fff" stroke="#707070" stroke-width="1"/>
    </clipPath>
    <clipPath id="clip-path-2">
      <rect id="Rectangle_4" data-name="Rectangle 4" width="334.28" height="307.294" fill="#fec471"/>
    </clipPath>
    <clipPath id="clip-path-4">
      <rect id="Rectangle_106" data-name="Rectangle 106" width="519.801" height="791.812" transform="translate(0 -0.001)" fill="#f15d55" stroke="#f15d55" stroke-width="1"/>
    </clipPath>
    <clipPath id="clip-path-5">
      <rect id="Rectangle_106-2" data-name="Rectangle 106" width="519.801" height="791.812" transform="translate(0 -0.001)" fill="none"/>
    </clipPath>
    <clipPath id="clip-path-6">
      <rect id="Rectangle_107" data-name="Rectangle 107" width="422.014" height="394.182" fill="#f15d55"/>
    </clipPath>
  </defs>
  <g id="Mask_Group_1" data-name="Mask Group 1" transform="translate(-6355 14501)" clip-path="url(#clip-path)">
    <g id="Group_334" data-name="Group 334" transform="translate(6355 -14592)">
      <ellipse id="Ellipse_416" data-name="Ellipse 416" cx="2269.5" cy="1515" rx="2269.5" ry="1515" transform="translate(-736 -1947)" fill="rgba(254,196,113,0.15)"/>
      <circle id="Ellipse_461" data-name="Ellipse 461" cx="208.414" cy="208.414" r="208.414" transform="matrix(0.809, 0.588, -0.588, 0.809, 408.592, -58.227)" fill="rgba(254,196,113,0.3)"/>
      <circle id="Ellipse_460" data-name="Ellipse 460" cx="208.414" cy="208.414" r="208.414" transform="matrix(0.809, 0.588, -0.588, 0.809, 713.523, 142.424)" fill="rgba(254,196,113,0.3)"/>
      <g id="Group_136" data-name="Group 136" transform="matrix(0.087, -0.996, 0.996, 0.087, 702.844, 396.113)" opacity="0.7">
        <g id="Group_1" data-name="Group 1" clip-path="url(#clip-path-2)">
          <path id="Path_1" data-name="Path 1" d="M203.417,65.3s26.169-35.731,44.789-23.149,6.04,35.731,6.04,35.731-21.64,35.731-30.2,41.267,62.907-59.887,80.521-33.215-37.241,45.8-37.241,45.8L231.6,149.343s46.8-6.543,68.945-2.517,37.241,15.6,32.712,22.647-3.019,18.117-45.293,14.091-68.443-11.072-68.443-11.072,49.822,21.64,65.926,38.247,24.66,33.718,12.582,35.228-41.267-7.045-58.881-20.633-32.208-31.2-32.208-31.2l28.183,49.822s15.6,28.685,3.523,36.234-28.686,0-28.686,0-16.607-19.627-19.124-28.686-8.555-38.247-8.555-38.247V251.5s-3.019,34.389-15.1,32.041-19.627-12.917-19.627-34.054a185.961,185.961,0,0,1,4.026-38.247L119.876,250.5s-57.371,75.991-70.959,51.835S46.4,257.543,46.4,257.543,74.08,208.223,95.72,200.674c0,0-45.8,14.091-63.913,12.582s-34.725-11.942-30.7-24.088S7.65,174,32.814,168.97s79.011-9.059,79.011-9.059l23.653.5s-77.5-39.757-84.043-44.286-46.3-33.718-37.241-45.8S31.807,51.208,56.97,63.789s65.423,44.286,65.423,44.286L102.262,71.841S78.609,15.98,92.7,5.915s28.685-6.04,39.757,11.574,21.137,54.351,21.137,54.351l13.686,68.443-6.137-70.456S160.137,2.9,183.286,3.9s20.13,61.4,20.13,61.4" transform="translate(-0.14 -0.14)" fill="#fec471"/>
          <path id="Path_2" data-name="Path 2" d="M203.417,65.3s26.169-35.731,44.789-23.149,6.04,35.731,6.04,35.731-21.64,35.731-30.2,41.267,62.907-59.887,80.521-33.215-37.241,45.8-37.241,45.8L231.6,149.343s46.8-6.543,68.945-2.517,37.241,15.6,32.712,22.647-3.019,18.117-45.293,14.091-68.443-11.072-68.443-11.072,49.822,21.64,65.926,38.247,24.66,33.718,12.582,35.228-41.267-7.045-58.881-20.633-32.208-31.2-32.208-31.2l28.183,49.822s15.6,28.685,3.523,36.234-28.686,0-28.686,0-16.607-19.627-19.124-28.686-8.555-38.247-8.555-38.247V251.5s-3.019,34.389-15.1,32.041-19.627-12.917-19.627-34.054a185.961,185.961,0,0,1,4.026-38.247L119.876,250.5s-57.371,75.991-70.959,51.835S46.4,257.543,46.4,257.543,74.08,208.223,95.72,200.674c0,0-45.8,14.091-63.913,12.582s-34.725-11.942-30.7-24.088S7.65,174,32.814,168.97s79.011-9.059,79.011-9.059l23.653.5s-77.5-39.757-84.043-44.286-46.3-33.718-37.241-45.8S31.807,51.208,56.97,63.789s65.423,44.286,65.423,44.286L102.262,71.841S78.609,15.98,92.7,5.915s28.685-6.04,39.757,11.574,21.137,54.351,21.137,54.351l13.686,68.443-6.137-70.456S160.137,2.9,183.286,3.9,203.417,65.3,203.417,65.3Z" transform="translate(-0.14 -0.14)" fill="#fec471"/>
        </g>
      </g>
      <g id="Group_41" data-name="Group 41" transform="matrix(0.087, -0.996, 0.996, 0.087, 46.871, 530.008)" opacity="0.7">
        <g id="Group_1-2" data-name="Group 1" clip-path="url(#clip-path-2)">
          <path id="Path_1-2" data-name="Path 1" d="M203.417,65.3s26.169-35.731,44.789-23.149,6.04,35.731,6.04,35.731-21.64,35.731-30.2,41.267,62.907-59.887,80.521-33.215-37.241,45.8-37.241,45.8L231.6,149.343s46.8-6.543,68.945-2.517,37.241,15.6,32.712,22.647-3.019,18.117-45.293,14.091-68.443-11.072-68.443-11.072,49.822,21.64,65.926,38.247,24.66,33.718,12.582,35.228-41.267-7.045-58.881-20.633-32.208-31.2-32.208-31.2l28.183,49.822s15.6,28.685,3.523,36.234-28.686,0-28.686,0-16.607-19.627-19.124-28.686-8.555-38.247-8.555-38.247V251.5s-3.019,34.389-15.1,32.041-19.627-12.917-19.627-34.054a185.961,185.961,0,0,1,4.026-38.247L119.876,250.5s-57.371,75.991-70.959,51.835S46.4,257.543,46.4,257.543,74.08,208.223,95.72,200.674c0,0-45.8,14.091-63.913,12.582s-34.725-11.942-30.7-24.088S7.65,174,32.814,168.97s79.011-9.059,79.011-9.059l23.653.5s-77.5-39.757-84.043-44.286-46.3-33.718-37.241-45.8S31.807,51.208,56.97,63.789s65.423,44.286,65.423,44.286L102.262,71.841S78.609,15.98,92.7,5.915s28.685-6.04,39.757,11.574,21.137,54.351,21.137,54.351l13.686,68.443-6.137-70.456S160.137,2.9,183.286,3.9s20.13,61.4,20.13,61.4" transform="translate(-0.14 -0.14)" fill="#fec471"/>
          <path id="Path_2-2" data-name="Path 2" d="M203.417,65.3s26.169-35.731,44.789-23.149,6.04,35.731,6.04,35.731-21.64,35.731-30.2,41.267,62.907-59.887,80.521-33.215-37.241,45.8-37.241,45.8L231.6,149.343s46.8-6.543,68.945-2.517,37.241,15.6,32.712,22.647-3.019,18.117-45.293,14.091-68.443-11.072-68.443-11.072,49.822,21.64,65.926,38.247,24.66,33.718,12.582,35.228-41.267-7.045-58.881-20.633-32.208-31.2-32.208-31.2l28.183,49.822s15.6,28.685,3.523,36.234-28.686,0-28.686,0-16.607-19.627-19.124-28.686-8.555-38.247-8.555-38.247V251.5s-3.019,34.389-15.1,32.041-19.627-12.917-19.627-34.054a185.961,185.961,0,0,1,4.026-38.247L119.876,250.5s-57.371,75.991-70.959,51.835S46.4,257.543,46.4,257.543,74.08,208.223,95.72,200.674c0,0-45.8,14.091-63.913,12.582s-34.725-11.942-30.7-24.088S7.65,174,32.814,168.97s79.011-9.059,79.011-9.059l23.653.5s-77.5-39.757-84.043-44.286-46.3-33.718-37.241-45.8S31.807,51.208,56.97,63.789s65.423,44.286,65.423,44.286L102.262,71.841S78.609,15.98,92.7,5.915s28.685-6.04,39.757,11.574,21.137,54.351,21.137,54.351l13.686,68.443-6.137-70.456S160.137,2.9,183.286,3.9,203.417,65.3,203.417,65.3Z" transform="translate(-0.14 -0.14)" fill="#fec471"/>
        </g>
      </g>
      <g id="Group_135" data-name="Group 135" transform="matrix(-0.956, 0.292, -0.292, -0.956, 1077.295, 439.04)">
        <g id="Group_45" data-name="Group 45" clip-path="url(#clip-path-4)">
          <path id="Path_19" data-name="Path 19" d="M193.341,791.169s5.592-6.291,0-11.184-16.777-39.146-16.777-39.146-8.388-55.223-7.689-62.213,2.444-23.068,13.455-27.263,55.05-11.883,65.535-11.184,28.66,6.99,66.408-16.078S417.03,586.354,417.03,586.354s35.65-27.262,33.553-34.252-93.67,30.757-134.912,37.048S221.3,605.927,205.224,624.1s-36.39,27.961-36.39,27.961-4.935-36.349,0-55.922-4.852-26.563,21.711-30.757,62.213-6.99,97.864-36.349,124.427-69.9,134.213-70.6,20.971-17.476,23.068-20.971a8.943,8.943,0,0,1,4.982-4.194s-50.419-12.583-107.739,20.272-86.68,55.922-86.68,55.922-35.65,13.98-40.543,16.777-12.583,8.388-15.379,11.883S173.768,554.2,173.768,554.2s16.777-67.806,20.971-74.1,17.476-23.068,44.738-25.165a129.806,129.806,0,0,0,46.835-12.583l121.631-56.621s41.42-37.748,42.729-41.942-4.982-4.194-12.671,0-59.349,9.088-59.349,9.088-124.5,57.32-145.466,78.291l-20.971,20.971s-2.8-4.894,3.5-18.874,22.369-53.825,22.369-53.825,11.184-34.253,40.543-38.8,111.845-11.534,134.913-21.321,37.747-24.466,54.524-25.864,44.738-3.495,34.951-9.786-32.155-27.961-80.388-13.981-150.99,61.515-150.99,61.515l-17.476,10.485,7.69-27.262s4.893-23.767,35.65-33.553,129.32-47.534,142.6-58.719,31.456-14.679,31.456-14.679,16.078-13.981,20.272-18.874,26.563-15.379,26.563-15.379-55.223-16.077-105.553,16.078S307.283,251.52,307.283,251.52l-29.36,19.572,11.884-27.262s63.05-75.495,88.845-95.766a423.694,423.694,0,0,0,43.97-39.845s30.058-33.553,41.243-47.534S497.418,1.268,497.418,1.268s-25.165,14.679-30.757,20.271-53.825,44.738-58.019,50.33-23.767,36.35-23.767,36.35L364.6,131.287l-61.515,70.6-13.98,24.466-7.69,15.378,3.5-97.864s-6.991-52.427-6.991-66.407-3.495-33.554-3.495-33.554S259.05,78.161,259.05,88.646s-12.583,63.612-13.282,70.6-3.5,52.314-1.4,56.914,13.282,47.94,17.476,55.629-2.8,41.243-8.389,46.835-21.669,24.466-21.669,24.466V306.743s-2.1-88.078-33.554-113.942-66.407-46.136-65.708-33.553,21.669,46.136,22.368,48.233,34.253,67.107,34.253,67.107,3.495,16.776,2.8,24.465,7.689,47.534,15.379,66.408,11.883,30.058,9.087,39.845-6.291,24.466-9.786,25.864-20.971-58.719-29.36-76.194-39.844-99.961-75.5-103.456-78.291-10.486-75.495,0,41.243,32.854,41.942,35.65,18.874,39.146,54.524,62.213,39.146,44.039,39.146,44.039,10.485,16.078,18.174,23.767,18.874,23.068,17.476,32.155-8.388,20.272-11.883,25.864-18.874,71.454-18.874,71.454l-2.8,10.333s-8.388-27.961-16.777-37.748-29.359-64.31-30.058-74.1-31.456-58.718-62.213-74.1S3.9,330.51,3.9,330.51-7.28,351.481,10.9,375.947,78,450.043,78,450.043s35.651,88.777,42.641,92.272S150.7,568.179,153.5,577.966s2.8,64.31,2.8,64.31-32.156-39.145-54.525-50.33-46.135-16.078-46.135-16.078S82.2,620.606,94.079,628.995s65.01,34.951,65.01,34.951,2.1,60.116,6.291,70.6,10.485,47.534,17.476,51.029,10.485,5.592,10.485,5.592" fill="#f15d55" stroke="#f15d55" stroke-width="1"/>
          <path id="Path_20" data-name="Path 20" d="M193.341,791.169s5.592-6.291,0-11.184-16.777-39.146-16.777-39.146-8.388-55.223-7.689-62.213,2.444-23.068,13.455-27.263,55.05-11.883,65.535-11.184,28.66,6.99,66.408-16.078S417.03,586.354,417.03,586.354s35.65-27.262,33.553-34.252-93.67,30.757-134.912,37.048S221.3,605.927,205.224,624.1s-36.39,27.961-36.39,27.961-4.935-36.349,0-55.922-4.852-26.563,21.711-30.757,62.213-6.99,97.864-36.349,124.427-69.9,134.213-70.6,20.971-17.476,23.068-20.971a8.943,8.943,0,0,1,4.982-4.194s-50.419-12.583-107.739,20.272-86.68,55.922-86.68,55.922-35.65,13.98-40.543,16.777-12.583,8.388-15.379,11.883S173.768,554.2,173.768,554.2s16.777-67.806,20.971-74.1,17.476-23.068,44.738-25.165a129.806,129.806,0,0,0,46.835-12.583l121.631-56.621s41.42-37.748,42.729-41.942-4.982-4.194-12.671,0-59.349,9.088-59.349,9.088-124.5,57.32-145.466,78.291l-20.971,20.971s-2.8-4.894,3.5-18.874,22.369-53.825,22.369-53.825,11.184-34.253,40.543-38.8,111.845-11.534,134.913-21.321,37.747-24.466,54.524-25.864,44.738-3.495,34.951-9.786-32.155-27.961-80.388-13.981-150.99,61.515-150.99,61.515l-17.476,10.485,7.69-27.262s4.893-23.767,35.65-33.553,129.32-47.534,142.6-58.719,31.456-14.679,31.456-14.679,16.078-13.981,20.272-18.874,26.563-15.379,26.563-15.379-55.223-16.077-105.553,16.078S307.283,251.52,307.283,251.52l-29.36,19.572,11.884-27.262s63.05-75.495,88.845-95.766a423.694,423.694,0,0,0,43.97-39.845s30.058-33.553,41.243-47.534S497.418,1.268,497.418,1.268s-25.165,14.679-30.757,20.271-53.825,44.738-58.019,50.33-23.767,36.35-23.767,36.35L364.6,131.287l-61.515,70.6-13.98,24.466-7.69,15.378,3.5-97.864s-6.991-52.427-6.991-66.407-3.495-33.554-3.495-33.554S259.05,78.161,259.05,88.646s-12.583,63.612-13.282,70.6-3.5,52.314-1.4,56.914,13.282,47.94,17.476,55.629-2.8,41.243-8.389,46.835-21.669,24.466-21.669,24.466V306.743s-2.1-88.078-33.554-113.942-66.407-46.136-65.708-33.553,21.669,46.136,22.368,48.233,34.253,67.107,34.253,67.107,3.495,16.776,2.8,24.465,7.689,47.534,15.379,66.408,11.883,30.058,9.087,39.845-6.291,24.466-9.786,25.864-20.971-58.719-29.36-76.194-39.844-99.961-75.5-103.456-78.291-10.486-75.495,0,41.243,32.854,41.942,35.65,18.874,39.146,54.524,62.213,39.146,44.039,39.146,44.039,10.485,16.078,18.174,23.767,18.874,23.068,17.476,32.155-8.388,20.272-11.883,25.864-18.874,71.454-18.874,71.454l-2.8,10.333s-8.388-27.961-16.777-37.748-29.359-64.31-30.058-74.1-31.456-58.718-62.213-74.1S3.9,330.51,3.9,330.51-7.28,351.481,10.9,375.947,78,450.043,78,450.043s35.651,88.777,42.641,92.272S150.7,568.179,153.5,577.966s2.8,64.31,2.8,64.31-32.156-39.145-54.525-50.33-46.135-16.078-46.135-16.078S82.2,620.606,94.079,628.995s65.01,34.951,65.01,34.951,2.1,60.116,6.291,70.6,10.485,47.534,17.476,51.029S193.341,791.169,193.341,791.169Z" fill="#f15d55" stroke="#f15d55" stroke-miterlimit="10" stroke-width="1"/>
        </g>
      </g>
      <circle id="Ellipse_417" data-name="Ellipse 417" cx="30.5" cy="30.5" r="30.5" transform="translate(159 112)" fill="rgba(241,93,85,0.5)"/>
      <circle id="Ellipse_418" data-name="Ellipse 418" cx="11.5" cy="11.5" r="11.5" transform="translate(208 195)" fill="rgba(241,93,85,0.5)"/>
      <circle id="Ellipse_419" data-name="Ellipse 419" cx="21" cy="21" r="21" transform="translate(266 218)" fill="rgba(241,93,85,0.5)"/>
      <circle id="Ellipse_420" data-name="Ellipse 420" cx="6.5" cy="6.5" r="6.5" transform="translate(208 247)" fill="rgba(241,93,85,0.5)"/>
      <circle id="Ellipse_421" data-name="Ellipse 421" cx="9.5" cy="9.5" r="9.5" transform="translate(247 157)" fill="rgba(241,93,85,0.5)"/>
      <circle id="Ellipse_422" data-name="Ellipse 422" cx="9" cy="9" r="9" transform="translate(239 225)" fill="rgba(241,93,85,0.5)"/>
      <circle id="Ellipse_423" data-name="Ellipse 423" cx="13" cy="13" r="13" transform="translate(247 290)" fill="rgba(241,93,85,0.5)"/>
      <circle id="Ellipse_424" data-name="Ellipse 424" cx="11" cy="11" r="11" transform="translate(325 173)" fill="rgba(241,93,85,0.5)"/>
      <circle id="Ellipse_425" data-name="Ellipse 425" cx="30.5" cy="30.5" r="30.5" transform="translate(659.984 673.974) rotate(73)" fill="rgba(241,93,85,0.5)"/>
      <circle id="Ellipse_426" data-name="Ellipse 426" cx="11.5" cy="11.5" r="11.5" transform="translate(616.014 770.1) rotate(73)" fill="rgba(241,93,85,0.5)"/>
      <circle id="Ellipse_427" data-name="Ellipse 427" cx="21" cy="21" r="21" transform="translate(610.977 832.29) rotate(73)" fill="rgba(241,93,85,0.5)"/>
      <circle id="Ellipse_428" data-name="Ellipse 428" cx="6.5" cy="6.5" r="6.5" transform="translate(566.285 785.303) rotate(73)" fill="rgba(241,93,85,0.5)"/>
      <circle id="Ellipse_429" data-name="Ellipse 429" cx="9.5" cy="9.5" r="9.5" transform="translate(656.527 746.375) rotate(73)" fill="rgba(241,93,85,0.5)"/>
      <circle id="Ellipse_430" data-name="Ellipse 430" cx="9" cy="9" r="9" transform="translate(596.387 808.517) rotate(73)" fill="rgba(241,93,85,0.5)"/>
      <circle id="Ellipse_431" data-name="Ellipse 431" cx="13" cy="13" r="13" transform="translate(536.566 835.171) rotate(73)" fill="rgba(241,93,85,0.5)"/>
      <circle id="Ellipse_432" data-name="Ellipse 432" cx="11" cy="11" r="11" transform="translate(633.303 803.521) rotate(73)" fill="rgba(241,93,85,0.5)"/>
      <circle id="Ellipse_433" data-name="Ellipse 433" cx="30.5" cy="30.5" r="30.5" transform="matrix(-0.07, -0.998, 0.998, -0.07, 548.424, 770.1)" fill="rgba(241,93,85,0.5)"/>
      <circle id="Ellipse_434" data-name="Ellipse 434" cx="11.5" cy="11.5" r="11.5" transform="matrix(-0.07, -0.998, 0.998, -0.07, 595.623, 681.101)" fill="rgba(241,93,85,0.5)"/>
      <circle id="Ellipse_435" data-name="Ellipse 435" cx="21" cy="21" r="21" transform="matrix(-0.07, -0.998, 0.998, -0.07, 631.789, 626.866)" fill="rgba(241,93,85,0.5)"/>
      <circle id="Ellipse_436" data-name="Ellipse 436" cx="6.5" cy="6.5" r="6.5" transform="matrix(-0.07, -0.998, 0.998, -0.07, 664.764, 682.702)" fill="rgba(241,93,85,0.5)"/>
      <circle id="Ellipse_437" data-name="Ellipse 437" cx="9.5" cy="9.5" r="9.5" transform="matrix(-0.07, -0.998, 0.998, -0.07, 568.076, 700.332)" fill="rgba(241,93,85,0.5)"/>
      <circle id="Ellipse_438" data-name="Ellipse 438" cx="9" cy="9" r="9" transform="matrix(-0.07, -0.998, 0.998, -0.07, 640.654, 653.312)" fill="rgba(241,93,85,0.5)"/>
      <circle id="Ellipse_439" data-name="Ellipse 439" cx="13" cy="13" r="13" transform="matrix(-0.07, -0.998, 0.998, -0.07, 704.939, 640.797)" fill="rgba(241,93,85,0.5)"/>
      <circle id="Ellipse_440" data-name="Ellipse 440" cx="11" cy="11" r="11" transform="matrix(-0.07, -0.998, 0.998, -0.07, 603.563, 649.875)" fill="rgba(241,93,85,0.5)"/>
      <circle id="Ellipse_441" data-name="Ellipse 441" cx="30.5" cy="30.5" r="30.5" transform="translate(417.625 284.688) rotate(38)" fill="rgba(241,93,85,0.5)"/>
      <circle id="Ellipse_442" data-name="Ellipse 442" cx="11.5" cy="11.5" r="11.5" transform="translate(561.359 505.43) rotate(38)" fill="rgba(241,93,85,0.5)"/>
      <circle id="Ellipse_443" data-name="Ellipse 443" cx="21" cy="21" r="21" transform="translate(592.902 559.263) rotate(38)" fill="rgba(241,93,85,0.5)"/>
      <circle id="Ellipse_444" data-name="Ellipse 444" cx="6.5" cy="6.5" r="6.5" transform="translate(529.344 546.407) rotate(38)" fill="rgba(241,93,85,0.5)"/>
      <circle id="Ellipse_445" data-name="Ellipse 445" cx="9.5" cy="9.5" r="9.5" transform="translate(580.938 462.757) rotate(38)" fill="rgba(241,93,85,0.5)"/>
      <circle id="Ellipse_446" data-name="Ellipse 446" cx="9" cy="9" r="9" transform="translate(567.316 548.156) rotate(38)" fill="rgba(241,93,85,0.5)"/>
      <circle id="Ellipse_447" data-name="Ellipse 447" cx="13" cy="13" r="13" transform="translate(533.604 604.302) rotate(38)" fill="rgba(241,93,85,0.5)"/>
      <circle id="Ellipse_448" data-name="Ellipse 448" cx="11" cy="11" r="11" transform="translate(594.691 522.891) rotate(38)" fill="rgba(241,93,85,0.5)"/>
      <circle id="Ellipse_449" data-name="Ellipse 449" cx="30.5" cy="30.5" r="30.5" transform="translate(505.992 544.198) rotate(-129)" fill="rgba(241,93,85,0.5)"/>
      <circle id="Ellipse_450" data-name="Ellipse 450" cx="11.5" cy="11.5" r="11.5" transform="translate(532.07 449.711) rotate(-129)" fill="rgba(241,93,85,0.5)"/>
      <circle id="Ellipse_451" data-name="Ellipse 451" cx="21" cy="21" r="21" transform="translate(492.125 357.036) rotate(-129)" fill="rgba(241,93,85,0.5)"/>
      <circle id="Ellipse_452" data-name="Ellipse 452" cx="6.5" cy="6.5" r="6.5" transform="translate(551.164 405.875) rotate(-129)" fill="rgba(241,93,85,0.5)"/>
      <circle id="Ellipse_453" data-name="Ellipse 453" cx="9.5" cy="9.5" r="9.5" transform="translate(482.074 475.774) rotate(-129)" fill="rgba(241,93,85,0.5)"/>
      <circle id="Ellipse_454" data-name="Ellipse 454" cx="9" cy="9" r="9" transform="translate(514.557 395.629) rotate(-129)" fill="rgba(241,93,85,0.5)"/>
      <circle id="Ellipse_455" data-name="Ellipse 455" cx="13" cy="13" r="13" transform="translate(560.037 348.506) rotate(-129)" fill="rgba(241,93,85,0.5)"/>
      <circle id="Ellipse_456" data-name="Ellipse 456" cx="11" cy="11" r="11" transform="translate(482.201 414.088) rotate(-129)" fill="rgba(241,93,85,0.5)"/>
      <circle id="Ellipse_457" data-name="Ellipse 457" cx="11.5" cy="11.5" r="11.5" transform="translate(449.365 213.89) rotate(115)" fill="rgba(241,93,85,0.5)"/>
      <circle id="Ellipse_458" data-name="Ellipse 458" cx="21" cy="21" r="21" transform="translate(404.01 256.735) rotate(115)" fill="rgba(241,93,85,0.5)"/>
      <circle id="Ellipse_459" data-name="Ellipse 459" cx="9.5" cy="9.5" r="9.5" transform="translate(467.324 265.296) rotate(115)" fill="rgba(241,93,85,0.5)"/>
      <g id="Group_134" data-name="Group 134" transform="matrix(-0.643, 0.766, -0.766, -0.643, 901.34, 402.809)">
        <g id="Group_45-2" data-name="Group 45" clip-path="url(#clip-path-5)">
          <path id="Path_19-2" data-name="Path 19" d="M193.341,791.169s5.592-6.291,0-11.184-16.777-39.146-16.777-39.146-8.388-55.223-7.689-62.213,2.444-23.068,13.455-27.263,55.05-11.883,65.535-11.184,28.66,6.99,66.408-16.078S417.03,586.354,417.03,586.354s35.65-27.262,33.553-34.252-93.67,30.757-134.912,37.048S221.3,605.927,205.224,624.1s-36.39,27.961-36.39,27.961-4.935-36.349,0-55.922-4.852-26.563,21.711-30.757,62.213-6.99,97.864-36.349,124.427-69.9,134.213-70.6,20.971-17.476,23.068-20.971a8.943,8.943,0,0,1,4.982-4.194s-50.419-12.583-107.739,20.272-86.68,55.922-86.68,55.922-35.65,13.98-40.543,16.777-12.583,8.388-15.379,11.883S173.768,554.2,173.768,554.2s16.777-67.806,20.971-74.1,17.476-23.068,44.738-25.165a129.806,129.806,0,0,0,46.835-12.583l121.631-56.621s41.42-37.748,42.729-41.942-4.982-4.194-12.671,0-59.349,9.088-59.349,9.088-124.5,57.32-145.466,78.291l-20.971,20.971s-2.8-4.894,3.5-18.874,22.369-53.825,22.369-53.825,11.184-34.253,40.543-38.8,111.845-11.534,134.913-21.321,37.747-24.466,54.524-25.864,44.738-3.495,34.951-9.786-32.155-27.961-80.388-13.981-150.99,61.515-150.99,61.515l-17.476,10.485,7.69-27.262s4.893-23.767,35.65-33.553,129.32-47.534,142.6-58.719,31.456-14.679,31.456-14.679,16.078-13.981,20.272-18.874,26.563-15.379,26.563-15.379-55.223-16.077-105.553,16.078S307.283,251.52,307.283,251.52l-29.36,19.572,11.884-27.262s63.05-75.495,88.845-95.766a423.694,423.694,0,0,0,43.97-39.845s30.058-33.553,41.243-47.534S497.418,1.268,497.418,1.268s-25.165,14.679-30.757,20.271-53.825,44.738-58.019,50.33-23.767,36.35-23.767,36.35L364.6,131.287l-61.515,70.6-13.98,24.466-7.69,15.378,3.5-97.864s-6.991-52.427-6.991-66.407-3.495-33.554-3.495-33.554S259.05,78.161,259.05,88.646s-12.583,63.612-13.282,70.6-3.5,52.314-1.4,56.914,13.282,47.94,17.476,55.629-2.8,41.243-8.389,46.835-21.669,24.466-21.669,24.466V306.743s-2.1-88.078-33.554-113.942-66.407-46.136-65.708-33.553,21.669,46.136,22.368,48.233,34.253,67.107,34.253,67.107,3.495,16.776,2.8,24.465,7.689,47.534,15.379,66.408,11.883,30.058,9.087,39.845-6.291,24.466-9.786,25.864-20.971-58.719-29.36-76.194-39.844-99.961-75.5-103.456-78.291-10.486-75.495,0,41.243,32.854,41.942,35.65,18.874,39.146,54.524,62.213,39.146,44.039,39.146,44.039,10.485,16.078,18.174,23.767,18.874,23.068,17.476,32.155-8.388,20.272-11.883,25.864-18.874,71.454-18.874,71.454l-2.8,10.333s-8.388-27.961-16.777-37.748-29.359-64.31-30.058-74.1-31.456-58.718-62.213-74.1S3.9,330.51,3.9,330.51-7.28,351.481,10.9,375.947,78,450.043,78,450.043s35.651,88.777,42.641,92.272S150.7,568.179,153.5,577.966s2.8,64.31,2.8,64.31-32.156-39.145-54.525-50.33-46.135-16.078-46.135-16.078S82.2,620.606,94.079,628.995s65.01,34.951,65.01,34.951,2.1,60.116,6.291,70.6,10.485,47.534,17.476,51.029,10.485,5.592,10.485,5.592" fill="#48a347"/>
          <path id="Path_20-2" data-name="Path 20" d="M193.341,791.169s5.592-6.291,0-11.184-16.777-39.146-16.777-39.146-8.388-55.223-7.689-62.213,2.444-23.068,13.455-27.263,55.05-11.883,65.535-11.184,28.66,6.99,66.408-16.078S417.03,586.354,417.03,586.354s35.65-27.262,33.553-34.252-93.67,30.757-134.912,37.048S221.3,605.927,205.224,624.1s-36.39,27.961-36.39,27.961-4.935-36.349,0-55.922-4.852-26.563,21.711-30.757,62.213-6.99,97.864-36.349,124.427-69.9,134.213-70.6,20.971-17.476,23.068-20.971a8.943,8.943,0,0,1,4.982-4.194s-50.419-12.583-107.739,20.272-86.68,55.922-86.68,55.922-35.65,13.98-40.543,16.777-12.583,8.388-15.379,11.883S173.768,554.2,173.768,554.2s16.777-67.806,20.971-74.1,17.476-23.068,44.738-25.165a129.806,129.806,0,0,0,46.835-12.583l121.631-56.621s41.42-37.748,42.729-41.942-4.982-4.194-12.671,0-59.349,9.088-59.349,9.088-124.5,57.32-145.466,78.291l-20.971,20.971s-2.8-4.894,3.5-18.874,22.369-53.825,22.369-53.825,11.184-34.253,40.543-38.8,111.845-11.534,134.913-21.321,37.747-24.466,54.524-25.864,44.738-3.495,34.951-9.786-32.155-27.961-80.388-13.981-150.99,61.515-150.99,61.515l-17.476,10.485,7.69-27.262s4.893-23.767,35.65-33.553,129.32-47.534,142.6-58.719,31.456-14.679,31.456-14.679,16.078-13.981,20.272-18.874,26.563-15.379,26.563-15.379-55.223-16.077-105.553,16.078S307.283,251.52,307.283,251.52l-29.36,19.572,11.884-27.262s63.05-75.495,88.845-95.766a423.694,423.694,0,0,0,43.97-39.845s30.058-33.553,41.243-47.534S497.418,1.268,497.418,1.268s-25.165,14.679-30.757,20.271-53.825,44.738-58.019,50.33-23.767,36.35-23.767,36.35L364.6,131.287l-61.515,70.6-13.98,24.466-7.69,15.378,3.5-97.864s-6.991-52.427-6.991-66.407-3.495-33.554-3.495-33.554S259.05,78.161,259.05,88.646s-12.583,63.612-13.282,70.6-3.5,52.314-1.4,56.914,13.282,47.94,17.476,55.629-2.8,41.243-8.389,46.835-21.669,24.466-21.669,24.466V306.743s-2.1-88.078-33.554-113.942-66.407-46.136-65.708-33.553,21.669,46.136,22.368,48.233,34.253,67.107,34.253,67.107,3.495,16.776,2.8,24.465,7.689,47.534,15.379,66.408,11.883,30.058,9.087,39.845-6.291,24.466-9.786,25.864-20.971-58.719-29.36-76.194-39.844-99.961-75.5-103.456-78.291-10.486-75.495,0,41.243,32.854,41.942,35.65,18.874,39.146,54.524,62.213,39.146,44.039,39.146,44.039,10.485,16.078,18.174,23.767,18.874,23.068,17.476,32.155-8.388,20.272-11.883,25.864-18.874,71.454-18.874,71.454l-2.8,10.333s-8.388-27.961-16.777-37.748-29.359-64.31-30.058-74.1-31.456-58.718-62.213-74.1S3.9,330.51,3.9,330.51-7.28,351.481,10.9,375.947,78,450.043,78,450.043s35.651,88.777,42.641,92.272S150.7,568.179,153.5,577.966s2.8,64.31,2.8,64.31-32.156-39.145-54.525-50.33-46.135-16.078-46.135-16.078S82.2,620.606,94.079,628.995s65.01,34.951,65.01,34.951,2.1,60.116,6.291,70.6,10.485,47.534,17.476,51.029S193.341,791.169,193.341,791.169Z" fill="none" stroke="#48a347" stroke-miterlimit="10" stroke-width="1"/>
        </g>
      </g>
      <g id="Group_48" data-name="Group 48" transform="matrix(-0.326, -0.946, 0.946, -0.326, 752.816, 874.777)">
        <g id="Group_47" data-name="Group 47" clip-path="url(#clip-path-6)">
          <path id="Path_21" data-name="Path 21" d="M388.217,258.152c-12.14-5.672-21.851-19.4-32.357-28.318-10.506-8.9-103.518-38.008-103.518-38.008V186.44a91.771,91.771,0,0,1,24.257-.265c13.751,1.611,17.79-4.856,22.646-4.039,4.856.795,37.213-11.323,47.72-10.528,10.506.817,45.292-20.218,51.759-23.44,6.467-3.245,30.724-31.541,21.035-38.825-9.712-7.284-51.759-9.712-54.187-9.712s-28.318,17.79-41.253,19.423c-12.934,1.611-71.977,52.553-71.977,52.553l-4.856,1.633s46.108-63.9,53.392-78.466c0,0,12.117-105.945-17.812-93.806C253.158,13.109,232.941,77.8,229.7,90.736c-3.222,12.934-.817,50.964-2.428,39.641S214.334,106.915,211,100.447c-3.311-6.467-14.457-27.921-18.5-34.785-4.061-6.842-33.174-46.9-41.253-29.908-8.1,16.973-1.611,47.7-1.611,47.7s8.9,29.135,16.973,41.253c8.078,12.14,21.829,20.218,21.829,20.218l9.712,8.1c9.712,8.078,24.257,28.3,24.257,28.3s-75.2-20.218-83.3-21.035c-8.078-.795-54.981-4.856-67.938-4.856-12.934,0-22.646,1.633-36.375,7.284-13.751,5.672-27.5,9.712-33.174,12.14-5.65,2.428,4.856,12.934,9.712,15.362s25.074,8.9,39.619,13.751C65.525,208.821,74.42,216.9,79.276,216.9s5.65.817,18.607.817c12.934,0,50.942-5.672,64.693-6.467,13.751-.817,53.37-17.79,49.331-13.751S194.933,208,185.221,217.716s-13.751,8.078-26.685,16.973c-12.956,8.895-7.284,12.956-17,20.218-9.712,7.284-11.323,11.323-18.607,16.179-7.262,4.856-29.907,37.213-49.331,59.042C54.2,351.957,63.1,357.63,63.1,357.63s9.712-2.428,16.179-2.428,23.44-4.856,33.969-4.856c10.506,0,12.934-6.467,52.553-42.047,39.641-35.6,57.431-107.579,57.431-107.579v50.148s6.467,102.723,10.506,114.046,14.568,27.48,25.89,29.113c11.323,1.611,11.323-9.712,16.973-19.423,5.672-9.69,4.856-50.125,4.856-61.448s-9.712-46.925-20.218-70.365c-10.506-23.463-21.829-43.68-15.362-41.253s23.463,39.619,43.68,53.37S321.1,276.758,321.1,276.758s4.039,2.428,16.09,9.69c12.051,7.284,32.424,11.323,42.135,9.712,9.69-1.611,16.179-.817,23.44-8.078,7.284-7.284-2.428-24.279-14.545-29.93M304.1,143.311l25.074-17.79S368,114.2,371.221,110.159c3.245-4.061,51.317-4.856,37.39,14.545-13.927,19.423-58.4,36.4-58.4,36.4s-42.069,10.506-45.292,12.14c-3.245,1.611-43.923,12.758-46.108,0Zm-95.439,44.475s-16.576,12.537-42.047,14.567c-25.471,2.009-83.3,0-83.3,0s-35.183-5.673-52.973-14.568c-10.749-5.364-14.413-6.467-15.627-6.489,1.788-1.28,8.034-5.209,21.7-8.873,16.576-4.459,41.253-7.284,41.253-7.284l63.082,2.031s23.44,5.65,33.947,9.292c10.528,3.642,45.137,4.966,33.969,11.323m-2.428,43.68s-25.052,62.662-55.378,85.308-33.174,22.249-39.641,24.279c-6.467,2.009-10.109,5.65-14.965,6.467-4.856.795-23.86,1.611-23.86,1.611S91,325.272,97.882,314.347c6.864-10.9,29.907-40.016,41.65-47.3,11.72-7.284,28.3-31.541,38.405-35.58s30.724-24.676,34.785-24.257c3.245.309-6.489,24.257-6.489,24.257m17.393-58.226S201.4,146.534,185.618,132.8c-15.759-13.751-21.829-34.785-24.257-44.078-2.428-9.314-10.109-31.96-6.886-39.244,3.245-7.262,1.633-11.72,9.314-6.467,7.681,5.275,21.454,28.716,24.875,32.358s13.133,20.218,15.958,28.3c2.825,8.1,6.467,16.179,10.528,20.637,4.039,4.436,10.506,25.471,11.72,33.152s5.54,17.658-3.245,15.781m10.109-45.711c1.633-10.506,7.284-47.7,14.567-64.3,7.284-16.576,27.9-55.4,35.183-51.759,7.262,3.642,13.332,19.821,12.537,35.6-.817,15.759,2.428,29.51-3.642,42.444s-38.008,63.9-38.008,63.9-12.581,22.867-19,20.041c0,0-3.267-35.4-1.633-45.932m35.6,178.342c1.611,27.5-1.633,41.23,0,49.331,1.611,8.078-6,45.292-17.569,19.4-11.566-25.868-5.077-38.008-9.932-51.759s-8.1-67.937-8.1-67.937V197.1s33.969,81.269,35.6,108.771m122.919-25.89c-6.467,6.467-26.42,16.179-57.277-7.284A421.584,421.584,0,0,1,282.272,225l-40.436-31.541s90.583,25.868,101.09,38.008c10.506,12.118,16.179,21.013,25.868,25.868,9.712,4.856,29.93,16.179,23.463,22.646" transform="translate(0.001 0)" fill="#f15d55"/>
        </g>
      </g>
    </g>
  </g>
</svg>
