<svg xmlns="http://www.w3.org/2000/svg" xmlns:xlink="http://www.w3.org/1999/xlink" width="2016" height="972" viewBox="0 0 2016 972">
  <defs>
    <clipPath id="clip-path">
      <rect id="Rectangle_188" data-name="Rectangle 188" width="2016" height="972" transform="translate(8254 4640)" fill="#fff" stroke="#707070" stroke-width="1"/>
    </clipPath>
    <clipPath id="clip-path-2">
      <rect id="Rectangle_106" data-name="Rectangle 106" width="493.91" height="752.38" fill="none"/>
    </clipPath>
    <clipPath id="clip-path-3">
      <rect id="Rectangle_107" data-name="Rectangle 107" width="400.997" height="374.551" fill="#f15d55"/>
    </clipPath>
    <clipPath id="clip-path-4">
      <rect id="Rectangle_107-2" data-name="Rectangle 107" width="400.995" height="374.55" fill="#fec471"/>
    </clipPath>
    <clipPath id="clip-path-5">
      <rect id="Rectangle_106-2" data-name="Rectangle 106" width="493.91" height="752.38" fill="#fec471"/>
    </clipPath>
  </defs>
  <g id="Mask_Group_12" data-name="Mask Group 12" transform="translate(-8254 -4640)" clip-path="url(#clip-path)">
    <ellipse id="Ellipse_947" data-name="Ellipse 947" cx="228.99" cy="228.99" rx="228.99" ry="228.99" transform="translate(10191.758 4603.657) rotate(92)" fill="#fec471" opacity="0.581"/>
    <g id="Group_378" data-name="Group 378" transform="translate(9839.921 5327.383) rotate(-167)">
      <g id="Group_45" data-name="Group 45" transform="translate(0 0)" clip-path="url(#clip-path-2)">
        <path id="Path_19" data-name="Path 19" d="M183.236,750.564s5.313-5.978,0-10.627-15.941-37.2-15.941-37.2-7.97-52.473-7.306-59.115,2.322-21.919,12.785-25.905,52.308-11.291,62.271-10.627,27.232,6.642,63.1-15.277,97.639-35.867,97.639-35.867,33.874-25.9,31.882-32.546-89,29.225-128.192,35.2-89.669,15.942-104.946,33.21-34.577,26.568-34.577,26.568-4.689-34.539,0-53.137-4.61-25.24,20.63-29.225,59.114-6.642,92.989-34.539S391.8,435.062,401.1,434.4s19.926-16.606,21.919-19.927a8.5,8.5,0,0,1,4.734-3.985s-47.908-11.956-102.373,19.262-82.363,53.137-82.363,53.137-33.874,13.284-38.524,15.941-11.956,7.97-14.613,11.291-25.24,15.277-25.24,15.277,15.941-64.429,19.926-70.407,16.606-21.919,42.51-23.912a123.34,123.34,0,0,0,44.5-11.956l115.573-53.8s39.357-35.868,40.6-39.853-4.734-3.985-12.04,0-56.393,8.635-56.393,8.635S241.022,388.566,221.1,408.493L201.17,428.42s-2.657-4.65,3.321-17.934,21.255-51.145,21.255-51.145,10.627-32.547,38.524-36.864,106.274-10.96,128.193-20.259,35.867-23.248,51.808-24.576,42.51-3.321,33.21-9.3-30.553-26.569-76.384-13.285S257.627,313.51,257.627,313.51l-16.605,9.963,7.307-25.9s4.649-22.583,33.874-31.882,122.879-45.167,135.5-55.795,29.889-13.948,29.889-13.948,15.277-13.285,19.262-17.934,25.24-14.613,25.24-14.613-52.472-15.276-100.3,15.277S291.5,237.79,291.5,237.79l-27.9,18.6,11.292-25.9s59.91-71.735,84.42-91a402.593,402.593,0,0,0,41.78-37.861s28.561-31.882,39.189-45.167S472.167,0,472.167,0s-23.912,13.948-29.225,19.262S391.8,61.772,387.813,67.085s-22.583,34.54-22.583,34.54l-19.262,21.919L287.516,190.63l-13.284,23.248-7.307,14.612,3.322-92.99S263.6,85.683,263.6,72.4s-3.321-31.883-3.321-31.883-14.612,32.547-14.612,42.51-11.956,60.444-12.62,67.086-3.321,49.709-1.328,54.08,12.62,45.553,16.606,52.859-2.657,39.189-7.971,44.5-20.59,23.248-20.59,23.248V290.262s-1.993-83.692-31.883-108.268-63.1-43.838-62.435-31.882,20.59,43.838,21.254,45.831,32.547,63.765,32.547,63.765,3.321,15.941,2.657,23.247,7.306,45.167,14.613,63.1,11.291,28.561,8.634,37.861-5.978,23.248-9.3,24.576-19.926-55.795-27.9-72.4S130.1,241.11,96.224,237.79s-74.391-9.964-71.735,0,39.189,31.218,39.853,33.875,17.934,37.2,51.808,59.115,37.2,41.846,37.2,41.846,9.963,15.277,17.269,22.583,17.934,21.919,16.606,30.554-7.97,19.262-11.291,24.576S158,518.234,158,518.234l-2.657,9.818s-7.97-26.569-15.941-35.868-27.9-61.107-28.561-70.407S80.948,365.983,51.723,351.37,3.235,312.846,3.235,312.846-7.392,332.772,9.877,356.02s63.763,70.406,63.763,70.406,33.875,84.356,40.517,87.677,28.561,24.576,31.218,33.876,2.658,61.107,2.658,61.107-30.554-37.2-51.809-47.824-43.837-15.277-43.837-15.277,25.24,42.51,36.531,50.481,61.772,33.21,61.772,33.21,1.993,57.122,5.978,67.086,9.963,45.167,16.606,48.488,9.963,5.313,9.963,5.313" transform="translate(0.475 1.206)" fill="#48a347"/>
        <path id="Path_20" data-name="Path 20" d="M183.236,750.564s5.313-5.978,0-10.627-15.941-37.2-15.941-37.2-7.97-52.473-7.306-59.115,2.322-21.919,12.785-25.905,52.308-11.291,62.271-10.627,27.232,6.642,63.1-15.277,97.639-35.867,97.639-35.867,33.874-25.9,31.882-32.546-89,29.225-128.192,35.2-89.669,15.942-104.946,33.21-34.577,26.568-34.577,26.568-4.689-34.539,0-53.137-4.61-25.24,20.63-29.225,59.114-6.642,92.989-34.539S391.8,435.062,401.1,434.4s19.926-16.606,21.919-19.927a8.5,8.5,0,0,1,4.734-3.985s-47.908-11.956-102.373,19.262-82.363,53.137-82.363,53.137-33.874,13.284-38.524,15.941-11.956,7.97-14.613,11.291-25.24,15.277-25.24,15.277,15.941-64.429,19.926-70.407,16.606-21.919,42.51-23.912a123.34,123.34,0,0,0,44.5-11.956l115.573-53.8s39.357-35.868,40.6-39.853-4.734-3.985-12.04,0-56.393,8.635-56.393,8.635S241.022,388.566,221.1,408.493L201.17,428.42s-2.657-4.65,3.321-17.934,21.255-51.145,21.255-51.145,10.627-32.547,38.524-36.864,106.274-10.96,128.193-20.259,35.867-23.248,51.808-24.576,42.51-3.321,33.21-9.3-30.553-26.569-76.384-13.285S257.627,313.51,257.627,313.51l-16.605,9.963,7.307-25.9s4.649-22.583,33.874-31.882,122.879-45.167,135.5-55.795,29.889-13.948,29.889-13.948,15.277-13.285,19.262-17.934,25.24-14.613,25.24-14.613-52.472-15.276-100.3,15.277S291.5,237.79,291.5,237.79l-27.9,18.6,11.292-25.9s59.91-71.735,84.42-91a402.593,402.593,0,0,0,41.78-37.861s28.561-31.882,39.189-45.167S472.167,0,472.167,0s-23.912,13.948-29.225,19.262S391.8,61.772,387.813,67.085s-22.583,34.54-22.583,34.54l-19.262,21.919L287.516,190.63l-13.284,23.248-7.307,14.612,3.322-92.99S263.6,85.683,263.6,72.4s-3.321-31.883-3.321-31.883-14.612,32.547-14.612,42.51-11.956,60.444-12.62,67.086-3.321,49.709-1.328,54.08,12.62,45.553,16.606,52.859-2.657,39.189-7.971,44.5-20.59,23.248-20.59,23.248V290.262s-1.993-83.692-31.883-108.268-63.1-43.838-62.435-31.882,20.59,43.838,21.254,45.831,32.547,63.765,32.547,63.765,3.321,15.941,2.657,23.247,7.306,45.167,14.613,63.1,11.291,28.561,8.634,37.861-5.978,23.248-9.3,24.576-19.926-55.795-27.9-72.4S130.1,241.11,96.224,237.79s-74.391-9.964-71.735,0,39.189,31.218,39.853,33.875,17.934,37.2,51.808,59.115,37.2,41.846,37.2,41.846,9.963,15.277,17.269,22.583,17.934,21.919,16.606,30.554-7.97,19.262-11.291,24.576S158,518.234,158,518.234l-2.657,9.818s-7.97-26.569-15.941-35.868-27.9-61.107-28.561-70.407S80.948,365.983,51.723,351.37,3.235,312.846,3.235,312.846-7.392,332.772,9.877,356.02s63.763,70.406,63.763,70.406,33.875,84.356,40.517,87.677,28.561,24.576,31.218,33.876,2.658,61.107,2.658,61.107-30.554-37.2-51.809-47.824-43.837-15.277-43.837-15.277,25.24,42.51,36.531,50.481,61.772,33.21,61.772,33.21,1.993,57.122,5.978,67.086,9.963,45.167,16.606,48.488S183.236,750.564,183.236,750.564Z" transform="translate(0.475 1.206)" fill="none" stroke="#48a347" stroke-miterlimit="10" stroke-width="1"/>
      </g>
    </g>
    <g id="Group_379" data-name="Group 379" transform="matrix(0.839, 0.545, -0.545, 0.839, 9933.226, 4819.924)">
      <g id="Group_47" data-name="Group 47" clip-path="url(#clip-path-3)">
        <path id="Path_21" data-name="Path 21" d="M368.883,245.3c-11.535-5.39-20.763-18.435-30.746-26.908-9.983-8.452-98.362-36.115-98.362-36.115v-5.117a87.2,87.2,0,0,1,23.049-.252c13.066,1.531,16.9-4.614,21.518-3.838,4.614.755,35.36-10.759,45.343-10,9.983.776,43.036-19.211,49.181-22.273,6.145-3.083,29.194-29.97,19.987-36.891-9.228-6.921-49.181-9.228-51.488-9.228s-26.908,16.9-39.2,18.456c-12.29,1.531-68.392,49.936-68.392,49.936l-4.614,1.552s43.812-60.716,50.733-74.558c0,0,11.514-100.669-16.925-89.134-28.418,11.535-47.629,73.006-50.712,85.3-3.062,12.29-.776,48.426-2.307,37.667s-12.29-22.294-15.457-28.439c-3.146-6.145-13.737-26.531-17.575-33.053-3.859-6.5-31.522-44.567-39.2-28.418-7.7,16.128-1.531,45.322-1.531,45.322s8.452,27.684,16.128,39.2c7.676,11.535,20.742,19.211,20.742,19.211l9.228,7.7c9.228,7.676,23.049,26.887,23.049,26.887s-71.454-19.211-79.151-19.987c-7.676-.755-52.243-4.614-64.554-4.614-12.29,0-21.518,1.552-34.563,6.921C20,160,6.935,163.836,1.545,166.143c-5.369,2.307,4.614,12.29,9.228,14.6s23.825,8.452,37.646,13.066c13.842,4.614,22.294,12.29,26.908,12.29s5.369.776,17.68.776c12.29,0,48.405-5.39,61.471-6.145,13.066-.776,50.712-16.9,46.874-13.066S185.224,197.645,176,206.873,162.931,214.549,150.641,223c-12.311,8.452-6.921,12.311-16.149,19.211-9.228,6.921-10.759,10.759-17.68,15.373-6.9,4.614-28.418,35.36-46.874,56.1-18.435,20.742-9.983,26.132-9.983,26.132s9.228-2.307,15.373-2.307S97.6,332.9,107.6,332.9c9.983,0,12.29-6.145,49.936-39.953,37.667-33.829,54.571-102.221,54.571-102.221v47.65s6.145,97.607,9.983,108.366,13.842,26.111,24.6,27.663c10.759,1.531,10.759-9.228,16.128-18.456,5.39-9.207,4.614-47.629,4.614-58.388s-9.228-44.588-19.211-66.861c-9.983-22.294-20.742-41.505-14.6-39.2s22.294,37.646,41.505,50.712,29.97,20.763,29.97,20.763,3.838,2.307,15.289,9.207c11.451,6.921,30.809,10.759,40.037,9.228,9.207-1.531,15.373-.776,22.273-7.676,6.921-6.921-2.307-23.07-13.821-28.439M288.955,136.174l23.825-16.9s36.891-10.759,39.953-14.6c3.083-3.859,48.762-4.614,35.528,13.821-13.234,18.456-55.494,34.584-55.494,34.584s-39.974,9.983-43.036,11.535c-3.083,1.531-41.736,12.122-43.812,0Zm-90.686,42.26s-15.75,11.912-39.953,13.842c-24.2,1.908-79.151,0-79.151,0s-33.431-5.39-50.335-13.842c-10.214-5.1-13.7-6.145-14.849-6.166,1.7-1.216,7.634-4.95,20.616-8.431,15.751-4.236,39.2-6.921,39.2-6.921l59.94,1.93s22.273,5.369,32.256,8.83c10,3.461,42.889,4.719,32.277,10.759m-2.307,41.505s-23.8,59.542-52.62,81.059-31.522,21.14-37.667,23.07c-6.145,1.909-9.606,5.369-14.22,6.145-4.614.755-22.672,1.531-22.672,1.531s17.68-22.671,24.223-33.053c6.522-10.36,28.418-38.023,39.575-44.944,11.137-6.921,26.887-29.97,36.492-33.808s29.194-23.447,33.053-23.049c3.083.294-6.166,23.049-6.166,23.049m16.526-55.326s-21.12-25.377-36.115-38.422c-14.975-13.066-20.742-33.053-23.049-41.883-2.307-8.85-9.606-30.369-6.544-37.29,3.083-6.9,1.552-11.137,8.851-6.145,7.3,5.013,20.386,27.286,23.636,30.746s12.479,19.211,15.163,26.887c2.685,7.7,6.145,15.373,10,19.61,3.838,4.216,9.983,24.2,11.137,31.5s5.264,16.778-3.083,15m9.605-43.435c1.552-9.983,6.921-45.322,13.842-61.094,6.921-15.751,26.509-52.641,33.43-49.181,6.9,3.461,12.668,18.834,11.913,33.829-.776,14.975,2.307,28.041-3.46,40.331S241.7,145.779,241.7,145.779s-11.954,21.728-18.058,19.043c0,0-3.1-33.64-1.552-43.644m33.829,169.46c1.531,26.132-1.552,39.177,0,46.874,1.531,7.676-5.7,43.036-16.694,18.435-10.99-24.58-4.824-36.115-9.438-49.181s-7.7-64.554-7.7-64.554V187.284s32.277,77.222,33.829,103.354m116.8-24.6c-6.145,6.145-25.1,15.373-54.424-6.921a400.587,400.587,0,0,1-50.083-45.322l-38.422-29.97s86.072,24.58,96.055,36.115c9.983,11.514,15.373,19.966,24.58,24.58,9.228,4.614,28.439,15.373,22.294,21.518" transform="translate(0.001 0.001)" fill="#f15d55"/>
      </g>
    </g>
    <g id="Group_380" data-name="Group 380" transform="matrix(0.839, -0.545, 0.545, 0.839, 9815.291, 5206.035)">
      <g id="Group_47-2" data-name="Group 47" clip-path="url(#clip-path-4)">
        <path id="Path_21-2" data-name="Path 21" d="M368.882,245.3c-11.535-5.39-20.763-18.435-30.746-26.908-9.983-8.452-98.362-36.115-98.362-36.115v-5.117a87.2,87.2,0,0,1,23.049-.252c13.066,1.531,16.9-4.614,21.518-3.838,4.614.755,35.36-10.759,45.343-10,9.983.776,43.036-19.211,49.181-22.273,6.145-3.083,29.194-29.97,19.987-36.891-9.228-6.921-49.181-9.228-51.488-9.228s-26.908,16.9-39.2,18.456c-12.29,1.531-68.392,49.936-68.392,49.936l-4.614,1.552s43.812-60.716,50.733-74.558c0,0,11.514-100.669-16.925-89.134-28.418,11.535-47.629,73.006-50.712,85.3-3.062,12.29-.776,48.426-2.307,37.667s-12.29-22.294-15.457-28.439c-3.146-6.145-13.737-26.531-17.575-33.053-3.859-6.5-31.522-44.567-39.2-28.418-7.7,16.128-1.531,45.322-1.531,45.322s8.452,27.684,16.128,39.2c7.676,11.535,20.742,19.211,20.742,19.211l9.228,7.7c9.228,7.676,23.049,26.887,23.049,26.887s-71.454-19.211-79.151-19.987c-7.676-.755-52.243-4.614-64.554-4.614-12.29,0-21.518,1.552-34.563,6.921C20,160,6.935,163.838,1.545,166.145c-5.369,2.307,4.614,12.29,9.228,14.6s23.825,8.452,37.646,13.066c13.842,4.614,22.294,12.29,26.908,12.29s5.369.776,17.68.776c12.29,0,48.4-5.39,61.471-6.145,13.066-.776,50.712-16.9,46.874-13.066S185.224,197.645,176,206.873,162.93,214.549,150.64,223c-12.311,8.452-6.921,12.311-16.149,19.211-9.228,6.921-10.759,10.759-17.68,15.373-6.9,4.614-28.418,35.36-46.874,56.1C51.5,334.43,59.954,339.82,59.954,339.82s9.228-2.307,15.373-2.307S97.6,332.9,107.6,332.9c9.983,0,12.29-6.145,49.936-39.953,37.667-33.829,54.571-102.221,54.571-102.221v47.65s6.145,97.607,9.983,108.366,13.842,26.111,24.6,27.663c10.759,1.531,10.759-9.228,16.128-18.456,5.39-9.207,4.614-47.629,4.614-58.388s-9.228-44.588-19.211-66.861c-9.983-22.294-20.742-41.505-14.6-39.2s22.294,37.646,41.5,50.712,29.97,20.763,29.97,20.763,3.838,2.307,15.289,9.207c11.451,6.921,30.809,10.759,40.037,9.228,9.207-1.531,15.373-.776,22.273-7.676,6.921-6.921-2.307-23.07-13.821-28.439M288.955,136.174l23.825-16.9s36.891-10.759,39.953-14.6c3.083-3.859,48.762-4.614,35.528,13.821-13.234,18.456-55.494,34.584-55.494,34.584s-39.974,9.983-43.036,11.535c-3.083,1.531-41.736,12.122-43.812,0Zm-90.686,42.26s-15.751,11.913-39.953,13.842c-24.2,1.909-79.151,0-79.151,0s-33.43-5.39-50.334-13.842c-10.214-5.1-13.7-6.145-14.849-6.166,1.7-1.216,7.634-4.95,20.616-8.431,15.751-4.237,39.2-6.921,39.2-6.921l59.94,1.929s22.273,5.369,32.256,8.829c10,3.46,42.889,4.719,32.277,10.759m-2.307,41.505s-23.8,59.542-52.621,81.06-31.522,21.141-37.667,23.07c-6.145,1.909-9.605,5.369-14.219,6.145-4.614.755-22.671,1.531-22.671,1.531s17.68-22.672,24.224-33.053c6.523-10.361,28.418-38.024,39.576-44.945,11.137-6.921,26.887-29.97,36.493-33.808s29.194-23.448,33.053-23.049c3.083.294-6.166,23.049-6.166,23.049m16.527-55.326s-21.119-25.377-36.115-38.422c-14.974-13.066-20.742-33.053-23.049-41.883-2.307-8.85-9.605-30.369-6.543-37.29,3.083-6.9,1.552-11.137,8.851-6.145,7.3,5.012,20.385,27.286,23.636,30.746s12.479,19.211,15.163,26.887c2.684,7.7,6.145,15.373,10,19.61,3.838,4.216,9.983,24.2,11.136,31.5s5.264,16.778-3.083,15m9.606-43.435c1.552-9.983,6.921-45.322,13.842-61.094,6.921-15.751,26.51-52.642,33.431-49.181,6.9,3.46,12.668,18.834,11.912,33.829-.776,14.975,2.307,28.041-3.461,40.331S241.7,145.78,241.7,145.78s-11.954,21.728-18.057,19.043c0,0-3.1-33.64-1.552-43.644m33.829,169.46c1.531,26.132-1.552,39.177,0,46.874,1.531,7.676-5.7,43.036-16.694,18.435-10.99-24.58-4.824-36.115-9.438-49.181s-7.7-64.554-7.7-64.554V187.285s32.277,77.222,33.829,103.354m116.8-24.6c-6.145,6.145-25.1,15.373-54.424-6.921a400.585,400.585,0,0,1-50.083-45.322l-38.422-29.97s86.072,24.58,96.055,36.115c9.983,11.514,15.373,19.966,24.58,24.58,9.228,4.614,28.439,15.373,22.294,21.518" transform="translate(0 0)" fill="#fec471"/>
      </g>
    </g>
    <ellipse id="Ellipse_949" data-name="Ellipse 949" cx="82.464" cy="82.464" rx="82.464" ry="82.464" transform="translate(10002.533 5131.305) rotate(130)" fill="rgba(247,156,139,0.69)"/>
    <ellipse id="Ellipse_950" data-name="Ellipse 950" cx="41.909" cy="41.909" rx="41.909" ry="41.909" transform="translate(9841.896 5033.053) rotate(130)" fill="rgba(247,156,139,0.69)"/>
    <ellipse id="Ellipse_951" data-name="Ellipse 951" cx="27.556" cy="27.556" rx="27.556" ry="27.556" transform="matrix(-0.656, 0.755, -0.755, -0.656, 9798.454, 5128.567)" fill="rgba(247,156,139,0.69)"/>
    <ellipse id="Ellipse_952" data-name="Ellipse 952" cx="13.778" cy="13.778" rx="13.778" ry="13.778" transform="matrix(-0.656, 0.755, -0.755, -0.656, 9742.678, 5080.09)" fill="rgba(247,156,139,0.69)"/>
    <ellipse id="Ellipse_953" data-name="Ellipse 953" cx="13.778" cy="13.778" rx="13.778" ry="13.778" transform="matrix(-0.656, 0.755, -0.755, -0.656, 9721.236, 5141.601)" fill="rgba(247,156,139,0.69)"/>
    <ellipse id="Ellipse_954" data-name="Ellipse 954" cx="13.778" cy="13.778" rx="13.778" ry="13.778" transform="matrix(-0.656, 0.755, -0.755, -0.656, 9705.162, 5102.248)" fill="rgba(247,156,139,0.69)"/>
    <ellipse id="Ellipse_955" data-name="Ellipse 955" cx="13.778" cy="13.778" rx="13.778" ry="13.778" transform="matrix(-0.656, 0.755, -0.755, -0.656, 9661.337, 5217.697)" fill="rgba(247,156,139,0.69)"/>
    <ellipse id="Ellipse_956" data-name="Ellipse 956" cx="9.08" cy="9.08" rx="9.08" ry="9.08" transform="matrix(-0.656, 0.755, -0.755, -0.656, 9739.068, 5172.758)" fill="rgba(247,156,139,0.69)"/>
    <ellipse id="Ellipse_957" data-name="Ellipse 957" cx="8.868" cy="8.868" rx="8.868" ry="8.868" transform="matrix(-0.656, 0.755, -0.755, -0.656, 9711.523, 5193.246)" fill="rgba(247,156,139,0.69)"/>
    <ellipse id="Ellipse_958" data-name="Ellipse 958" cx="8.868" cy="8.868" rx="8.868" ry="8.868" transform="matrix(-0.035, 0.999, -0.999, -0.035, 9684.821, 5153.033)" fill="rgba(247,156,139,0.69)"/>
    <ellipse id="Ellipse_959" data-name="Ellipse 959" cx="13.778" cy="13.778" rx="13.778" ry="13.778" transform="matrix(-0.656, 0.755, -0.755, -0.656, 9746.273, 4996.447)" fill="rgba(247,156,139,0.69)"/>
    <g id="Group_381" data-name="Group 381" transform="matrix(-0.695, -0.719, 0.719, -0.695, 9371.238, 5239.977)">
      <g id="Group_45-2" data-name="Group 45" transform="translate(0 0)" clip-path="url(#clip-path-5)">
        <path id="Path_19-2" data-name="Path 19" d="M183.236,750.564s5.313-5.978,0-10.627-15.941-37.2-15.941-37.2-7.97-52.473-7.306-59.115,2.322-21.919,12.785-25.905,52.308-11.291,62.271-10.627,27.232,6.642,63.1-15.277,97.639-35.867,97.639-35.867,33.874-25.9,31.882-32.546-89,29.225-128.192,35.2-89.669,15.942-104.946,33.21-34.577,26.568-34.577,26.568-4.689-34.539,0-53.137-4.61-25.24,20.63-29.225,59.114-6.642,92.989-34.539S391.8,435.062,401.1,434.4s19.926-16.606,21.919-19.927a8.5,8.5,0,0,1,4.734-3.985s-47.908-11.956-102.373,19.262-82.363,53.137-82.363,53.137-33.874,13.284-38.524,15.941-11.956,7.97-14.613,11.291-25.24,15.277-25.24,15.277,15.941-64.429,19.926-70.407,16.606-21.919,42.51-23.912a123.34,123.34,0,0,0,44.5-11.956l115.573-53.8s39.357-35.868,40.6-39.853-4.734-3.985-12.04,0-56.393,8.635-56.393,8.635S241.022,388.566,221.1,408.493L201.17,428.42s-2.657-4.65,3.321-17.934,21.255-51.145,21.255-51.145,10.627-32.547,38.524-36.864,106.274-10.96,128.193-20.259,35.867-23.248,51.808-24.576,42.51-3.321,33.21-9.3-30.553-26.569-76.384-13.285S257.627,313.51,257.627,313.51l-16.605,9.963,7.307-25.9s4.649-22.583,33.874-31.882,122.879-45.167,135.5-55.795,29.889-13.948,29.889-13.948,15.277-13.285,19.262-17.934,25.24-14.613,25.24-14.613-52.472-15.276-100.3,15.277S291.5,237.79,291.5,237.79l-27.9,18.6,11.292-25.9s59.91-71.735,84.42-91a402.593,402.593,0,0,0,41.78-37.861s28.561-31.882,39.189-45.167S472.167,0,472.167,0s-23.912,13.948-29.225,19.262S391.8,61.772,387.813,67.085s-22.583,34.54-22.583,34.54l-19.262,21.919L287.516,190.63l-13.284,23.248-7.307,14.612,3.322-92.99S263.6,85.683,263.6,72.4s-3.321-31.883-3.321-31.883-14.612,32.547-14.612,42.51-11.956,60.444-12.62,67.086-3.321,49.709-1.328,54.08,12.62,45.553,16.606,52.859-2.657,39.189-7.971,44.5-20.59,23.248-20.59,23.248V290.262s-1.993-83.692-31.883-108.268-63.1-43.838-62.435-31.882,20.59,43.838,21.254,45.831,32.547,63.765,32.547,63.765,3.321,15.941,2.657,23.247,7.306,45.167,14.613,63.1,11.291,28.561,8.634,37.861-5.978,23.248-9.3,24.576-19.926-55.795-27.9-72.4S130.1,241.11,96.224,237.79s-74.391-9.964-71.735,0,39.189,31.218,39.853,33.875,17.934,37.2,51.808,59.115,37.2,41.846,37.2,41.846,9.963,15.277,17.269,22.583,17.934,21.919,16.606,30.554-7.97,19.262-11.291,24.576S158,518.234,158,518.234l-2.657,9.818s-7.97-26.569-15.941-35.868-27.9-61.107-28.561-70.407S80.948,365.983,51.723,351.37,3.235,312.846,3.235,312.846-7.392,332.772,9.877,356.02s63.763,70.406,63.763,70.406,33.875,84.356,40.517,87.677,28.561,24.576,31.218,33.876,2.658,61.107,2.658,61.107-30.554-37.2-51.809-47.824-43.837-15.277-43.837-15.277,25.24,42.51,36.531,50.481,61.772,33.21,61.772,33.21,1.993,57.122,5.978,67.086,9.963,45.167,16.606,48.488,9.963,5.313,9.963,5.313" transform="translate(0.475 1.206)" fill="#fec471"/>
        <path id="Path_20-2" data-name="Path 20" d="M183.236,750.564s5.313-5.978,0-10.627-15.941-37.2-15.941-37.2-7.97-52.473-7.306-59.115,2.322-21.919,12.785-25.905,52.308-11.291,62.271-10.627,27.232,6.642,63.1-15.277,97.639-35.867,97.639-35.867,33.874-25.9,31.882-32.546-89,29.225-128.192,35.2-89.669,15.942-104.946,33.21-34.577,26.568-34.577,26.568-4.689-34.539,0-53.137-4.61-25.24,20.63-29.225,59.114-6.642,92.989-34.539S391.8,435.062,401.1,434.4s19.926-16.606,21.919-19.927a8.5,8.5,0,0,1,4.734-3.985s-47.908-11.956-102.373,19.262-82.363,53.137-82.363,53.137-33.874,13.284-38.524,15.941-11.956,7.97-14.613,11.291-25.24,15.277-25.24,15.277,15.941-64.429,19.926-70.407,16.606-21.919,42.51-23.912a123.34,123.34,0,0,0,44.5-11.956l115.573-53.8s39.357-35.868,40.6-39.853-4.734-3.985-12.04,0-56.393,8.635-56.393,8.635S241.022,388.566,221.1,408.493L201.17,428.42s-2.657-4.65,3.321-17.934,21.255-51.145,21.255-51.145,10.627-32.547,38.524-36.864,106.274-10.96,128.193-20.259,35.867-23.248,51.808-24.576,42.51-3.321,33.21-9.3-30.553-26.569-76.384-13.285S257.627,313.51,257.627,313.51l-16.605,9.963,7.307-25.9s4.649-22.583,33.874-31.882,122.879-45.167,135.5-55.795,29.889-13.948,29.889-13.948,15.277-13.285,19.262-17.934,25.24-14.613,25.24-14.613-52.472-15.276-100.3,15.277S291.5,237.79,291.5,237.79l-27.9,18.6,11.292-25.9s59.91-71.735,84.42-91a402.593,402.593,0,0,0,41.78-37.861s28.561-31.882,39.189-45.167S472.167,0,472.167,0s-23.912,13.948-29.225,19.262S391.8,61.772,387.813,67.085s-22.583,34.54-22.583,34.54l-19.262,21.919L287.516,190.63l-13.284,23.248-7.307,14.612,3.322-92.99S263.6,85.683,263.6,72.4s-3.321-31.883-3.321-31.883-14.612,32.547-14.612,42.51-11.956,60.444-12.62,67.086-3.321,49.709-1.328,54.08,12.62,45.553,16.606,52.859-2.657,39.189-7.971,44.5-20.59,23.248-20.59,23.248V290.262s-1.993-83.692-31.883-108.268-63.1-43.838-62.435-31.882,20.59,43.838,21.254,45.831,32.547,63.765,32.547,63.765,3.321,15.941,2.657,23.247,7.306,45.167,14.613,63.1,11.291,28.561,8.634,37.861-5.978,23.248-9.3,24.576-19.926-55.795-27.9-72.4S130.1,241.11,96.224,237.79s-74.391-9.964-71.735,0,39.189,31.218,39.853,33.875,17.934,37.2,51.808,59.115,37.2,41.846,37.2,41.846,9.963,15.277,17.269,22.583,17.934,21.919,16.606,30.554-7.97,19.262-11.291,24.576S158,518.234,158,518.234l-2.657,9.818s-7.97-26.569-15.941-35.868-27.9-61.107-28.561-70.407S80.948,365.983,51.723,351.37,3.235,312.846,3.235,312.846-7.392,332.772,9.877,356.02s63.763,70.406,63.763,70.406,33.875,84.356,40.517,87.677,28.561,24.576,31.218,33.876,2.658,61.107,2.658,61.107-30.554-37.2-51.809-47.824-43.837-15.277-43.837-15.277,25.24,42.51,36.531,50.481,61.772,33.21,61.772,33.21,1.993,57.122,5.978,67.086,9.963,45.167,16.606,48.488S183.236,750.564,183.236,750.564Z" transform="translate(0.475 1.206)" fill="#fec471"/>
      </g>
    </g>
    <ellipse id="Ellipse_948" data-name="Ellipse 948" cx="2269.5" cy="1515" rx="2269.5" ry="1515" transform="translate(6759 2611)" fill="rgba(254,196,113,0.15)"/>
  </g>
</svg>
