<svg xmlns="http://www.w3.org/2000/svg" xmlns:xlink="http://www.w3.org/1999/xlink" width="421" height="407" viewBox="0 0 421 407">
  <defs>
    <clipPath id="clip-path">
      <rect id="Rectangle_190" data-name="Rectangle 190" width="421" height="407" transform="translate(-13828 -20734.439)" fill="#fff" stroke="#707070" stroke-width="1"/>
    </clipPath>
    <clipPath id="clip-path-2">
      <rect id="Rectangle_107" data-name="Rectangle 107" width="184.927" height="172.731" fill="#f15d55"/>
    </clipPath>
    <clipPath id="clip-path-3">
      <rect id="Rectangle_106" data-name="Rectangle 106" width="227.78" height="346.97" fill="#fec471"/>
    </clipPath>
    <clipPath id="clip-path-4">
      <rect id="Rectangle_106-2" data-name="Rectangle 106" width="227.78" height="346.97" fill="#48a347"/>
    </clipPath>
    <clipPath id="clip-path-5">
      <rect id="Rectangle_107-2" data-name="Rectangle 107" width="184.926" height="172.731" fill="#fec471"/>
    </clipPath>
  </defs>
  <g id="Mask_Group_13" data-name="Mask Group 13" transform="translate(13828 20734.439)" clip-path="url(#clip-path)">
    <g id="Group_382" data-name="Group 382" transform="translate(-13485.282 -20649.973) rotate(47)">
      <g id="Group_47" data-name="Group 47" transform="translate(0 0)" clip-path="url(#clip-path-2)">
        <path id="Path_21" data-name="Path 21" d="M170.117,113.122c-5.32-2.486-9.575-8.5-14.179-12.409s-45.362-16.655-45.362-16.655V81.7a40.214,40.214,0,0,1,10.629-.116c6.026.706,7.8-2.128,9.923-1.77S147.436,74.85,152.04,75.2s19.847-8.859,22.681-10.272,13.463-13.821,9.217-17.013-22.681-4.256-23.745-4.256-12.409,7.8-18.077,8.511S110.576,75.2,110.576,75.2l-2.128.716s20.2-28,23.4-34.384c0,0,5.31-46.425-7.805-41.106S102.075,34.093,100.653,39.76s-.358,22.333-1.064,17.371S93.921,46.85,92.461,44.016s-6.335-12.235-8.105-15.243S69.819,8.22,66.279,15.667s-.706,20.9-.706,20.9,3.9,12.767,7.438,18.077a33.373,33.373,0,0,0,9.566,8.86l4.256,3.55c4.256,3.54,10.63,12.4,10.63,12.4s-32.952-8.86-36.5-9.217-24.093-2.128-29.77-2.128A37.722,37.722,0,0,0,15.25,71.3C9.224,73.786,3.2,75.556.713,76.62s2.128,5.668,4.256,6.732,10.987,3.9,17.361,6.026,10.281,5.668,12.409,5.668,2.476.358,8.153.358,22.323-2.486,28.349-2.834,23.387-7.8,21.617-6.026-7.438,4.6-11.693,8.859-6.026,3.54-11.693,7.438-3.192,5.677-7.447,8.859-4.962,4.962-8.153,7.09S40.764,135.1,32.253,144.662s-4.6,12.051-4.6,12.051a37.326,37.326,0,0,1,7.09-1.064c2.834,0,10.272-2.128,14.885-2.128s5.668-2.834,23.029-18.425S97.819,87.956,97.819,87.956v21.975s2.834,45.013,4.6,49.975,6.384,12.042,11.345,12.757,4.962-4.256,7.438-8.511,2.128-21.965,2.128-26.927-4.256-20.563-8.86-30.834-9.566-19.141-6.732-18.077,10.281,17.361,19.141,23.387,13.821,9.575,13.821,9.575,1.77,1.064,7.051,4.246,14.208,4.962,18.464,4.256,7.09-.358,10.272-3.54-1.064-10.639-6.374-13.115M133.257,62.8,144.245,55s17.013-4.962,18.425-6.732,22.487-2.128,16.384,6.374-25.592,15.949-25.592,15.949-18.435,4.6-19.847,5.32-19.247,5.59-20.2,0ZM91.436,82.288a37.972,37.972,0,0,1-18.425,6.383c-11.161.88-36.5,0-36.5,0S21.091,86.186,13.3,82.288c-4.71-2.35-6.316-2.834-6.848-2.844.783-.561,3.521-2.283,9.508-3.888a154.149,154.149,0,0,1,18.077-3.192l27.642.89S71.947,75.73,76.55,77.326,96.33,79.5,91.436,82.288m-1.064,19.141S79.394,128.888,66.1,138.811,51.568,148.56,48.734,149.45s-4.43,2.476-6.558,2.834-10.455.706-10.455.706,8.153-10.455,11.171-15.243S56,120.212,61.143,117.02s12.4-13.821,16.829-15.591S91.436,90.616,93.215,90.8c1.422.135-2.844,10.63-2.844,10.63m7.621-25.515s-9.74-11.7-16.655-17.719S71.772,42.952,70.708,38.88s-4.43-14.005-3.018-17.2.716-5.136,4.082-2.834,9.4,12.583,10.9,14.179,5.755,8.86,6.993,12.4,2.834,7.09,4.614,9.043S98.883,65.633,99.415,69s2.428,7.738-1.422,6.915m4.43-20.031c.716-4.6,3.192-20.9,6.383-28.174S121.032,3.433,124.223,5.028s5.842,8.685,5.494,15.6,1.064,12.931-1.6,18.6-16.655,28-16.655,28-5.513,10.02-8.328,8.782c0,0-1.431-15.514-.716-20.127m15.6,78.15c.706,12.051-.716,18.067,0,21.617s-2.631,19.847-7.7,8.5-2.225-16.655-4.352-22.681-3.55-29.77-3.55-29.77V86.37s14.885,35.612,15.6,47.663m53.863-11.345c-2.834,2.834-11.577,7.09-25.1-3.192a184.739,184.739,0,0,1-23.1-20.9L105.973,84.774s39.694,11.336,44.3,16.655,7.09,9.208,11.336,11.336,13.115,7.09,10.281,9.923" transform="translate(0 0)" fill="#f15d55"/>
      </g>
    </g>
    <ellipse id="Ellipse_961" data-name="Ellipse 961" cx="38.03" cy="38.03" rx="38.03" ry="38.03" transform="matrix(-0.809, 0.588, -0.588, -0.809, -13491.574, -20504.027)" fill="rgba(247,156,139,0.69)"/>
    <ellipse id="Ellipse_962" data-name="Ellipse 962" cx="19.327" cy="19.327" rx="19.327" ry="19.327" transform="matrix(-0.809, 0.588, -0.588, -0.809, -13553.301, -20566.326)" fill="rgba(247,156,139,0.69)"/>
    <ellipse id="Ellipse_964" data-name="Ellipse 964" cx="6.354" cy="6.354" rx="6.354" ry="6.354" transform="translate(-13622.896 -20550.703) rotate(145)" fill="rgba(247,156,139,0.69)"/>
    <ellipse id="Ellipse_965" data-name="Ellipse 965" cx="6.354" cy="6.354" rx="6.354" ry="6.354" transform="translate(-13655.712 -20503.838) rotate(145)" fill="rgba(247,156,139,0.69)"/>
    <ellipse id="Ellipse_966" data-name="Ellipse 966" cx="4.09" cy="4.09" rx="4.09" ry="4.09" transform="translate(-13637.749 -20530.186) rotate(106)" fill="rgba(247,156,139,0.69)"/>
    <ellipse id="Ellipse_967" data-name="Ellipse 967" cx="12.708" cy="12.708" rx="12.708" ry="12.708" transform="translate(-13583.607 -20528.346) rotate(145)" fill="rgba(247,156,139,0.69)"/>
    <ellipse id="Ellipse_968" data-name="Ellipse 968" cx="6.354" cy="6.354" rx="6.354" ry="6.354" transform="translate(-13603.388 -20556.404) rotate(145)" fill="rgba(247,156,139,0.69)"/>
    <ellipse id="Ellipse_969" data-name="Ellipse 969" cx="6.354" cy="6.354" rx="6.354" ry="6.354" transform="translate(-13620.005 -20531.219) rotate(145)" fill="rgba(247,156,139,0.69)"/>
    <ellipse id="Ellipse_970" data-name="Ellipse 970" cx="4.187" cy="4.187" rx="4.187" ry="4.187" transform="translate(-13615.357 -20515.207) rotate(145)" fill="rgba(247,156,139,0.69)"/>
    <ellipse id="Ellipse_971" data-name="Ellipse 971" cx="4.09" cy="4.09" rx="4.09" ry="4.09" transform="translate(-13630.149 -20509.129) rotate(145)" fill="rgba(247,156,139,0.69)"/>
    <ellipse id="Ellipse_972" data-name="Ellipse 972" cx="6.354" cy="6.354" rx="6.354" ry="6.354" transform="translate(-13592.393 -20593.545) rotate(145)" fill="rgba(247,156,139,0.69)"/>
    <g id="Group_384" data-name="Group 384" transform="matrix(-0.94, -0.342, 0.342, -0.94, -13651.866, -20471.211)">
      <g id="Group_45" data-name="Group 45" transform="translate(0 0)" clip-path="url(#clip-path-3)">
        <path id="Path_19" data-name="Path 19" d="M84.5,346.133s2.45-2.757,0-4.9-7.352-17.154-7.352-17.154-3.676-24.2-3.369-27.262,1.071-10.108,5.9-11.947,24.123-5.207,28.718-4.9,12.559,3.063,29.1-7.045,45.029-16.541,45.029-16.541,15.622-11.946,14.7-15.009-41.047,13.478-59.119,16.234-41.353,7.352-48.4,15.315a57.049,57.049,0,0,1-15.946,12.252s-2.163-15.928,0-24.5-2.126-11.64,9.514-13.478,27.262-3.063,42.885-15.928,54.525-30.631,58.813-30.938,9.19-7.658,10.109-9.189a3.919,3.919,0,0,1,2.183-1.838s-22.094-5.514-47.212,8.883-37.984,24.5-37.984,24.5-15.622,6.126-17.766,7.352a30.147,30.147,0,0,0-6.739,5.207c-1.225,1.532-11.64,7.045-11.64,7.045s7.352-29.712,9.19-32.469a25.332,25.332,0,0,1,19.6-11.027,56.883,56.883,0,0,0,20.523-5.514l53.3-24.811s18.151-16.541,18.724-18.379-2.183-1.838-5.553,0-26.007,3.982-26.007,3.982-54.555,25.117-63.744,34.307l-9.19,9.189s-1.225-2.145,1.532-8.271,9.8-23.586,9.8-23.586,4.9-15.01,17.766-17,49.011-5.054,59.12-9.343,16.541-10.721,23.893-11.334,19.6-1.531,15.316-4.288-14.091-12.252-35.227-6.126-66.165,26.956-66.165,26.956l-7.658,4.594,3.37-11.946s2.144-10.415,15.622-14.7,56.669-20.829,62.489-25.731,13.784-6.432,13.784-6.432,7.045-6.126,8.883-8.271,11.64-6.739,11.64-6.739-24.2-7.045-46.254,7.045-46.254,27.262-46.254,27.262l-12.866,8.576,5.208-11.946s27.629-33.082,38.932-41.964a185.665,185.665,0,0,0,19.268-17.46s13.172-14.7,18.073-20.829S217.753,0,217.753,0s-11.027,6.432-13.478,8.883-23.586,19.6-25.424,22.054-10.415,15.928-10.415,15.928l-8.883,10.108L132.6,87.912,126.47,98.633l-3.37,6.739,1.532-42.884s-3.063-22.973-3.063-29.1a103.942,103.942,0,0,0-1.532-14.7s-6.739,15.01-6.739,19.6-5.514,27.875-5.82,30.938-1.532,22.924-.613,24.94,5.82,21.007,7.658,24.376-1.225,18.073-3.676,20.523-9.5,10.721-9.5,10.721V133.858s-.919-38.6-14.7-49.929-29.1-20.217-28.794-14.7,9.5,20.217,9.8,21.136,15.01,29.406,15.01,29.406,1.532,7.351,1.225,10.72,3.369,20.829,6.739,29.1,5.207,13.171,3.982,17.46-2.757,10.721-4.288,11.334-9.19-25.731-12.866-33.388S60,111.191,44.376,109.66s-34.308-4.595-33.082,0,18.073,14.4,18.379,15.622,8.271,17.154,23.893,27.262,17.154,19.3,17.154,19.3,4.595,7.045,7.964,10.415,8.271,10.108,7.658,14.09-3.676,8.883-5.207,11.334-8.271,31.311-8.271,31.311l-1.225,4.528s-3.676-12.252-7.352-16.541S51.422,198.8,51.116,194.508s-13.784-25.73-27.262-32.469A75.148,75.148,0,0,1,1.492,144.273s-4.9,9.189,3.063,19.91,29.406,32.469,29.406,32.469,15.622,38.9,18.686,40.433,13.172,11.334,14.4,15.622,1.226,28.18,1.226,28.18-14.091-17.153-23.893-22.055a93.522,93.522,0,0,0-20.217-7.045s11.64,19.6,16.847,23.28,28.488,15.315,28.488,15.315.919,26.343,2.757,30.938,4.595,20.829,7.658,22.361,4.595,2.45,4.595,2.45" transform="translate(0.219 0.556)" fill="#fec471"/>
        <path id="Path_20" data-name="Path 20" d="M84.5,346.133s2.45-2.757,0-4.9-7.352-17.154-7.352-17.154-3.676-24.2-3.369-27.262,1.071-10.108,5.9-11.947,24.123-5.207,28.718-4.9,12.559,3.063,29.1-7.045,45.029-16.541,45.029-16.541,15.622-11.946,14.7-15.009-41.047,13.478-59.119,16.234-41.353,7.352-48.4,15.315a57.049,57.049,0,0,1-15.946,12.252s-2.163-15.928,0-24.5-2.126-11.64,9.514-13.478,27.262-3.063,42.885-15.928,54.525-30.631,58.813-30.938,9.19-7.658,10.109-9.189a3.919,3.919,0,0,1,2.183-1.838s-22.094-5.514-47.212,8.883-37.984,24.5-37.984,24.5-15.622,6.126-17.766,7.352a30.147,30.147,0,0,0-6.739,5.207c-1.225,1.532-11.64,7.045-11.64,7.045s7.352-29.712,9.19-32.469a25.332,25.332,0,0,1,19.6-11.027,56.883,56.883,0,0,0,20.523-5.514l53.3-24.811s18.151-16.541,18.724-18.379-2.183-1.838-5.553,0-26.007,3.982-26.007,3.982-54.555,25.117-63.744,34.307l-9.19,9.189s-1.225-2.145,1.532-8.271,9.8-23.586,9.8-23.586,4.9-15.01,17.766-17,49.011-5.054,59.12-9.343,16.541-10.721,23.893-11.334,19.6-1.531,15.316-4.288-14.091-12.252-35.227-6.126-66.165,26.956-66.165,26.956l-7.658,4.594,3.37-11.946s2.144-10.415,15.622-14.7,56.669-20.829,62.489-25.731,13.784-6.432,13.784-6.432,7.045-6.126,8.883-8.271,11.64-6.739,11.64-6.739-24.2-7.045-46.254,7.045-46.254,27.262-46.254,27.262l-12.866,8.576,5.208-11.946s27.629-33.082,38.932-41.964a185.665,185.665,0,0,0,19.268-17.46s13.172-14.7,18.073-20.829S217.753,0,217.753,0s-11.027,6.432-13.478,8.883-23.586,19.6-25.424,22.054-10.415,15.928-10.415,15.928l-8.883,10.108L132.6,87.912,126.47,98.633l-3.37,6.739,1.532-42.884s-3.063-22.973-3.063-29.1a103.942,103.942,0,0,0-1.532-14.7s-6.739,15.01-6.739,19.6-5.514,27.875-5.82,30.938-1.532,22.924-.613,24.94,5.82,21.007,7.658,24.376-1.225,18.073-3.676,20.523-9.5,10.721-9.5,10.721V133.858s-.919-38.6-14.7-49.929-29.1-20.217-28.794-14.7,9.5,20.217,9.8,21.136,15.01,29.406,15.01,29.406,1.532,7.351,1.225,10.72,3.369,20.829,6.739,29.1,5.207,13.171,3.982,17.46-2.757,10.721-4.288,11.334-9.19-25.731-12.866-33.388S60,111.191,44.376,109.66s-34.308-4.595-33.082,0,18.073,14.4,18.379,15.622,8.271,17.154,23.893,27.262,17.154,19.3,17.154,19.3,4.595,7.045,7.964,10.415,8.271,10.108,7.658,14.09-3.676,8.883-5.207,11.334-8.271,31.311-8.271,31.311l-1.225,4.528s-3.676-12.252-7.352-16.541S51.422,198.8,51.116,194.508s-13.784-25.73-27.262-32.469A75.148,75.148,0,0,1,1.492,144.273s-4.9,9.189,3.063,19.91,29.406,32.469,29.406,32.469,15.622,38.9,18.686,40.433,13.172,11.334,14.4,15.622,1.226,28.18,1.226,28.18-14.091-17.153-23.893-22.055a93.522,93.522,0,0,0-20.217-7.045s11.64,19.6,16.847,23.28,28.488,15.315,28.488,15.315.919,26.343,2.757,30.938,4.595,20.829,7.658,22.361S84.5,346.133,84.5,346.133Z" transform="translate(0.219 0.556)" fill="#fec471"/>
      </g>
    </g>
    <g id="Group_385" data-name="Group 385" transform="translate(-13444.285 -20537.227) rotate(160)">
      <g id="Group_45-2" data-name="Group 45" transform="translate(0 0)" clip-path="url(#clip-path-4)">
        <path id="Path_19-2" data-name="Path 19" d="M84.5,346.133s2.45-2.757,0-4.9-7.352-17.154-7.352-17.154-3.676-24.2-3.369-27.262,1.071-10.108,5.9-11.947,24.123-5.207,28.718-4.9,12.559,3.063,29.1-7.045,45.029-16.541,45.029-16.541,15.622-11.946,14.7-15.009-41.047,13.478-59.119,16.234-41.353,7.352-48.4,15.315a57.049,57.049,0,0,1-15.946,12.252s-2.163-15.928,0-24.5-2.126-11.64,9.514-13.478,27.262-3.063,42.885-15.928,54.525-30.631,58.813-30.938,9.19-7.658,10.109-9.189a3.919,3.919,0,0,1,2.183-1.838s-22.094-5.514-47.212,8.883-37.984,24.5-37.984,24.5-15.622,6.126-17.766,7.352a30.147,30.147,0,0,0-6.739,5.207c-1.225,1.532-11.64,7.045-11.64,7.045s7.352-29.712,9.19-32.469a25.332,25.332,0,0,1,19.6-11.027,56.883,56.883,0,0,0,20.523-5.514l53.3-24.811s18.151-16.541,18.724-18.379-2.183-1.838-5.553,0-26.007,3.982-26.007,3.982-54.555,25.117-63.744,34.307l-9.19,9.189s-1.225-2.145,1.532-8.271,9.8-23.586,9.8-23.586,4.9-15.01,17.766-17,49.011-5.054,59.12-9.343,16.541-10.721,23.893-11.334,19.6-1.531,15.316-4.288-14.091-12.252-35.227-6.126-66.165,26.956-66.165,26.956l-7.658,4.594,3.37-11.946s2.144-10.415,15.622-14.7,56.669-20.829,62.489-25.731,13.784-6.432,13.784-6.432,7.045-6.126,8.883-8.271,11.64-6.739,11.64-6.739-24.2-7.045-46.254,7.045-46.254,27.262-46.254,27.262l-12.866,8.576,5.208-11.946s27.629-33.082,38.932-41.964a185.665,185.665,0,0,0,19.268-17.46s13.172-14.7,18.073-20.829S217.753,0,217.753,0s-11.027,6.432-13.478,8.883-23.586,19.6-25.424,22.054-10.415,15.928-10.415,15.928l-8.883,10.108L132.6,87.912,126.47,98.633l-3.37,6.739,1.532-42.884s-3.063-22.973-3.063-29.1a103.942,103.942,0,0,0-1.532-14.7s-6.739,15.01-6.739,19.6-5.514,27.875-5.82,30.938-1.532,22.924-.613,24.94,5.82,21.007,7.658,24.376-1.225,18.073-3.676,20.523-9.5,10.721-9.5,10.721V133.858s-.919-38.6-14.7-49.929-29.1-20.217-28.794-14.7,9.5,20.217,9.8,21.136,15.01,29.406,15.01,29.406,1.532,7.351,1.225,10.72,3.369,20.829,6.739,29.1,5.207,13.171,3.982,17.46-2.757,10.721-4.288,11.334-9.19-25.731-12.866-33.388S60,111.191,44.376,109.66s-34.308-4.595-33.082,0,18.073,14.4,18.379,15.622,8.271,17.154,23.893,27.262,17.154,19.3,17.154,19.3,4.595,7.045,7.964,10.415,8.271,10.108,7.658,14.09-3.676,8.883-5.207,11.334-8.271,31.311-8.271,31.311l-1.225,4.528s-3.676-12.252-7.352-16.541S51.422,198.8,51.116,194.508s-13.784-25.73-27.262-32.469A75.148,75.148,0,0,1,1.492,144.273s-4.9,9.189,3.063,19.91,29.406,32.469,29.406,32.469,15.622,38.9,18.686,40.433,13.172,11.334,14.4,15.622,1.226,28.18,1.226,28.18-14.091-17.153-23.893-22.055a93.522,93.522,0,0,0-20.217-7.045s11.64,19.6,16.847,23.28,28.488,15.315,28.488,15.315.919,26.343,2.757,30.938,4.595,20.829,7.658,22.361,4.595,2.45,4.595,2.45" transform="translate(0.219 0.556)" fill="#48a347"/>
        <path id="Path_20-2" data-name="Path 20" d="M84.5,346.133s2.45-2.757,0-4.9-7.352-17.154-7.352-17.154-3.676-24.2-3.369-27.262,1.071-10.108,5.9-11.947,24.123-5.207,28.718-4.9,12.559,3.063,29.1-7.045,45.029-16.541,45.029-16.541,15.622-11.946,14.7-15.009-41.047,13.478-59.119,16.234-41.353,7.352-48.4,15.315a57.049,57.049,0,0,1-15.946,12.252s-2.163-15.928,0-24.5-2.126-11.64,9.514-13.478,27.262-3.063,42.885-15.928,54.525-30.631,58.813-30.938,9.19-7.658,10.109-9.189a3.919,3.919,0,0,1,2.183-1.838s-22.094-5.514-47.212,8.883-37.984,24.5-37.984,24.5-15.622,6.126-17.766,7.352a30.147,30.147,0,0,0-6.739,5.207c-1.225,1.532-11.64,7.045-11.64,7.045s7.352-29.712,9.19-32.469a25.332,25.332,0,0,1,19.6-11.027,56.883,56.883,0,0,0,20.523-5.514l53.3-24.811s18.151-16.541,18.724-18.379-2.183-1.838-5.553,0-26.007,3.982-26.007,3.982-54.555,25.117-63.744,34.307l-9.19,9.189s-1.225-2.145,1.532-8.271,9.8-23.586,9.8-23.586,4.9-15.01,17.766-17,49.011-5.054,59.12-9.343,16.541-10.721,23.893-11.334,19.6-1.531,15.316-4.288-14.091-12.252-35.227-6.126-66.165,26.956-66.165,26.956l-7.658,4.594,3.37-11.946s2.144-10.415,15.622-14.7,56.669-20.829,62.489-25.731,13.784-6.432,13.784-6.432,7.045-6.126,8.883-8.271,11.64-6.739,11.64-6.739-24.2-7.045-46.254,7.045-46.254,27.262-46.254,27.262l-12.866,8.576,5.208-11.946s27.629-33.082,38.932-41.964a185.665,185.665,0,0,0,19.268-17.46s13.172-14.7,18.073-20.829S217.753,0,217.753,0s-11.027,6.432-13.478,8.883-23.586,19.6-25.424,22.054-10.415,15.928-10.415,15.928l-8.883,10.108L132.6,87.912,126.47,98.633l-3.37,6.739,1.532-42.884s-3.063-22.973-3.063-29.1a103.942,103.942,0,0,0-1.532-14.7s-6.739,15.01-6.739,19.6-5.514,27.875-5.82,30.938-1.532,22.924-.613,24.94,5.82,21.007,7.658,24.376-1.225,18.073-3.676,20.523-9.5,10.721-9.5,10.721V133.858s-.919-38.6-14.7-49.929-29.1-20.217-28.794-14.7,9.5,20.217,9.8,21.136,15.01,29.406,15.01,29.406,1.532,7.351,1.225,10.72,3.369,20.829,6.739,29.1,5.207,13.171,3.982,17.46-2.757,10.721-4.288,11.334-9.19-25.731-12.866-33.388S60,111.191,44.376,109.66s-34.308-4.595-33.082,0,18.073,14.4,18.379,15.622,8.271,17.154,23.893,27.262,17.154,19.3,17.154,19.3,4.595,7.045,7.964,10.415,8.271,10.108,7.658,14.09-3.676,8.883-5.207,11.334-8.271,31.311-8.271,31.311l-1.225,4.528s-3.676-12.252-7.352-16.541S51.422,198.8,51.116,194.508s-13.784-25.73-27.262-32.469A75.148,75.148,0,0,1,1.492,144.273s-4.9,9.189,3.063,19.91,29.406,32.469,29.406,32.469,15.622,38.9,18.686,40.433,13.172,11.334,14.4,15.622,1.226,28.18,1.226,28.18-14.091-17.153-23.893-22.055a93.522,93.522,0,0,0-20.217-7.045s11.64,19.6,16.847,23.28,28.488,15.315,28.488,15.315.919,26.343,2.757,30.938,4.595,20.829,7.658,22.361S84.5,346.133,84.5,346.133Z" transform="translate(0.219 0.556)" fill="#48a347"/>
      </g>
    </g>
    <ellipse id="Ellipse_960" data-name="Ellipse 960" cx="454.67" cy="303.113" rx="454.67" ry="303.113" transform="translate(-13816.758 -21104.803) rotate(16)" fill="rgba(254,196,113,0.15)"/>
    <g id="Group_383" data-name="Group 383" transform="matrix(0.946, -0.326, 0.326, 0.946, -13581.132, -20490.355)">
      <g id="Group_47-2" data-name="Group 47" transform="translate(0 0)" clip-path="url(#clip-path-5)">
        <path id="Path_21-2" data-name="Path 21" d="M170.117,113.122c-5.32-2.486-9.575-8.5-14.179-12.409s-45.361-16.655-45.361-16.655V81.7a40.214,40.214,0,0,1,10.629-.116c6.026.706,7.8-2.128,9.923-1.77S147.436,74.85,152.04,75.2s19.847-8.86,22.681-10.272,13.463-13.821,9.217-17.013-22.681-4.256-23.745-4.256-12.409,7.8-18.077,8.511S110.576,75.2,110.576,75.2l-2.128.716s20.2-28,23.4-34.384c0,0,5.31-46.426-7.805-41.106s-21.965,33.668-23.387,39.336-.358,22.333-1.064,17.371S93.921,46.85,92.461,44.016s-6.335-12.235-8.105-15.243S69.819,8.22,66.279,15.668s-.706,20.9-.706,20.9,3.9,12.767,7.438,18.077a33.372,33.372,0,0,0,9.566,8.86l4.256,3.55c4.256,3.54,10.629,12.4,10.629,12.4s-32.952-8.859-36.5-9.217-24.093-2.128-29.77-2.128A37.721,37.721,0,0,0,15.25,71.3C9.224,73.787,3.2,75.557.713,76.621s2.128,5.668,4.256,6.732,10.987,3.9,17.361,6.026,10.281,5.668,12.409,5.668,2.476.358,8.153.358S65.215,92.918,71.24,92.57s23.387-7.8,21.617-6.026-7.438,4.6-11.693,8.86-6.026,3.54-11.693,7.438-3.192,5.677-7.447,8.86-4.962,4.962-8.153,7.09S40.764,135.1,32.253,144.663s-4.6,12.051-4.6,12.051a37.326,37.326,0,0,1,7.09-1.064c2.834,0,10.272-2.128,14.885-2.128s5.668-2.834,23.029-18.425S97.819,87.956,97.819,87.956v21.975s2.834,45.013,4.6,49.975,6.383,12.042,11.345,12.757,4.962-4.256,7.438-8.511,2.128-21.965,2.128-26.927-4.256-20.563-8.859-30.834-9.566-19.141-6.732-18.077,10.281,17.361,19.141,23.387,13.821,9.575,13.821,9.575,1.77,1.064,7.051,4.246,14.208,4.962,18.464,4.256,7.09-.358,10.272-3.54-1.064-10.639-6.374-13.115M133.257,62.8,144.244,55s17.013-4.962,18.425-6.732,22.487-2.128,16.384,6.374-25.592,15.949-25.592,15.949-18.435,4.6-19.847,5.32-19.247,5.59-20.2,0ZM91.435,82.288A37.972,37.972,0,0,1,73.01,88.672c-11.161.88-36.5,0-36.5,0S21.091,86.186,13.3,82.288c-4.71-2.35-6.316-2.834-6.848-2.844.783-.561,3.521-2.283,9.508-3.888a154.146,154.146,0,0,1,18.077-3.192l27.642.89s10.272,2.476,14.875,4.072S96.329,79.5,91.435,82.288m-1.064,19.141S79.394,128.888,66.1,138.811s-14.537,9.749-17.371,10.639-4.43,2.476-6.558,2.834-10.455.706-10.455.706,8.153-10.455,11.171-15.243S56,120.212,61.143,117.02s12.4-13.821,16.829-15.591S91.435,90.616,93.215,90.8c1.422.135-2.844,10.63-2.844,10.63m7.622-25.515s-9.74-11.7-16.655-17.719S71.772,42.952,70.709,38.88s-4.43-14.005-3.018-17.2.716-5.136,4.082-2.834,9.4,12.583,10.9,14.179,5.755,8.86,6.993,12.4,2.834,7.09,4.613,9.043S98.883,65.633,99.415,69s2.428,7.738-1.422,6.915m4.43-20.031c.716-4.6,3.192-20.9,6.383-28.174S121.032,3.433,124.224,5.028s5.842,8.685,5.494,15.6,1.064,12.931-1.6,18.6-16.655,28-16.655,28-5.513,10.02-8.328,8.782c0,0-1.431-15.514-.716-20.127m15.6,78.15c.706,12.051-.716,18.067,0,21.617s-2.631,19.847-7.7,8.5-2.225-16.655-4.352-22.681-3.55-29.77-3.55-29.77V86.37s14.885,35.612,15.6,47.663m53.863-11.345c-2.834,2.834-11.577,7.09-25.1-3.192a184.737,184.737,0,0,1-23.1-20.9L105.972,84.774s39.694,11.335,44.3,16.655,7.09,9.208,11.335,11.336,13.115,7.09,10.281,9.923" transform="translate(0 0)" fill="#fec471"/>
      </g>
    </g>
    <ellipse id="Ellipse_963" data-name="Ellipse 963" cx="105.603" cy="105.603" rx="105.603" ry="105.603" transform="translate(-13345.204 -20718.961) rotate(106)" fill="#fec471" opacity="0.581"/>
  </g>
</svg>
