<?xml version="1.0" encoding="utf-8"?>
<!-- Generator: Adobe Illustrator 28.0.0, SVG Export Plug-In . SVG Version: 6.00 Build 0)  -->
<svg version="1.1" id="Layer_1" xmlns="http://www.w3.org/2000/svg" xmlns:xlink="http://www.w3.org/1999/xlink" x="0px" y="0px"
	 viewBox="0 0 519 158.3" style="enable-background:new 0 0 519 158.3;" xml:space="preserve">
<style type="text/css">
	.st0{fill:#F15D55;}
</style>
<path class="st0" d="M56.4,85.1c0,9.6-9.4,16.4-25.3,16.4c-14.7,0-23-7.2-23-16c0-4.5,1.9-8.5,6-11.5c-2.8-2-4.6-5-4.6-9.4
	c0-8,8.4-15.5,23.6-15.5c16,0,21.2,8.4,21.5,17.5c-12.1,0-21.3,1-28.2,2.9c1.8,0.3,4,0.6,6.4,0.8C50.1,72.1,56.4,75.8,56.4,85.1z
	 M47.2,86.7c0-4.9-3.6-6.6-16.6-8.2C25,77.8,19.2,77,15.2,74.7c-2.9,2.5-4.3,5.5-4.3,8.8c0,7.9,8.6,12,17.4,12
	C41.8,95.5,47.2,90.9,47.2,86.7z M24.3,69c5.5-1.7,12.5-2.8,21-3.2c-0.5-4.1-3.5-8.9-13.6-8.9c-8.1,0-13,3.1-13,7.1
	C18.7,66.6,20.5,68.1,24.3,69L24.3,69z"/>
<path class="st0" d="M63.3,75.2C63.3,61,74.6,49,90.4,49s27.1,12,27.1,26.2s-11.3,26.2-27.1,26.2S63.3,89.4,63.3,75.2z M107.9,75.2
	c0-10.1-7.4-17.7-17.5-17.7S73,65.1,73,75.2s7.4,17.7,17.5,17.7S107.9,85.3,107.9,75.2z"/>
<path class="st0" d="M138.6,101.2c-8.5,0-14.6-5.5-14.6-10.5c0-5.4,4.6-11.7,4.6-17.8c0-10.3-7.8-15.5-7.8-18.5s1.9-3.9,8.2-3.9
	c7.6,0,11.9,2.5,11.9,7.9c0,8.5-7.4,13.2-7.4,20.3c0,3.9,5.6,8.7,16.9,8.7c6.2,0,7.5-6.2,7.5-11c0-10.9-7.2-18.1-7.2-22.5
	c0-1.8,1-3.2,3.2-3.2c2.6,0,4.5,0.5,6.8,0.5s4.1-0.5,6.5-0.5c1.9,0,3.3,1.2,3.3,3.5c0,6.4-7.9,16.2-7.9,22.5
	c0.1,8.5,11,14.5,11,20.4c0,2.3-0.9,3.6-7.1,3.6c-7,0-8.6-0.3-9.7-6c-0.4-1.6-1.2-2.8-3.6-2.8C146.5,91.9,144.1,101.2,138.6,101.2
	L138.6,101.2z"/>
<path class="st0" d="M248.6,101.2c-8.5,0-14.6-5.5-14.6-10.5c0-5.4,4.6-11.7,4.6-17.8c0-10.3-7.8-15.5-7.8-18.5s1.9-3.9,8.2-3.9
	c7.6,0,11.9,2.5,11.9,7.9c0,8.5-7.4,13.2-7.4,20.3c0,3.9,5.6,8.7,16.9,8.7c6.2,0,7.5-6.2,7.5-11c0-10.9-7.2-18.1-7.2-22.5
	c0-1.8,1-3.2,3.2-3.2c2.6,0,4.5,0.5,6.8,0.5s4.1-0.5,6.5-0.5c1.9,0,3.3,1.2,3.3,3.5c0,6.4-7.9,16.2-7.9,22.5
	c0.1,8.5,11,14.5,11,20.4c0,2.3-0.9,3.6-7.1,3.6c-7,0-8.6-0.3-9.7-6c-0.4-1.6-1.2-2.8-3.6-2.8C256.5,91.9,254.1,101.2,248.6,101.2
	L248.6,101.2z"/>
<path class="st0" d="M336.7,54.2c0,2.6-2.6,11-2.6,15.5c0,11.5,6.3,23.3,6.3,27.4c0,1.6-1.2,3.4-2.8,3.4c-2.5,0-5.5-0.2-8.3-0.2
	c-2,0.1-4,0.3-5.7,0.3c-3.2,0-4.6-0.9-4.6-4.2c0-5.3,9.9-12.5,9.9-24c0-9.6-11.5-14.8-18.6-14.8c-5.1,0-8.6,3.9-8.6,17.3
	s2.2,16,6.5,16c3.3,0,5.1-2.4,5.8-8.5c0.6-5.4,1.5-7,4.3-7c2.1,0,3.2,1.2,3.2,3c0,7.1-10.9,22.9-20.4,22.9
	c-7.3,0-10.1-4.2-10.1-14.8c0-19.3,8.3-36.1,24.5-36.1c4,0,8,0.4,11,0.4c2.5,0,4.1-0.4,6.1-0.4C335.8,50.5,336.7,52.3,336.7,54.2
	L336.7,54.2z"/>
<path class="st0" d="M395,69.2h-9.2c0-6.2-2.2-11.5-9.2-11.5s-13.3,5.3-13.3,24.4v18.4h-9.2V50.8h9.2v21.2
	c1.6-15.2,7-22.2,16.6-22.2C390.9,49.9,395,58.3,395,69.2L395,69.2z"/>
<path class="st0" d="M445.6,49.9v8.3c-27,0-35,10.3-35,20.8c0,8.8,7,13.7,15.2,13.7c8.7,0,18.9-5.8,18.9-19.8h0.9
	c0,19.5-7.4,28.5-20.8,28.5s-20.6-10-20.6-19.8c0-13.2,10.8-21.5,31.2-23.5h-34v-8.3H419V32.4h9.2v17.5
	C428.2,49.9,445.6,49.9,445.6,49.9z"/>
<path class="st0" d="M507.7,75.2c0,14.1-8.2,26.2-25.1,26.2s-28.2-12.1-28.2-26.2S465.7,49,481.7,49C499.5,49,507.7,61,507.7,75.2z
	 M506.8,75.2h-43.2c0,10.1,7.8,17.9,21.2,17.9S506.4,86.2,506.8,75.2z M464.7,68.3h33.1c-1.8-6.9-6.5-11.6-16.3-11.6
	C472.8,56.7,466.9,61.4,464.7,68.3L464.7,68.3z"/>
<path class="st0" d="M210.5,101.3c-9.6,0-15-7-16.6-22.2v21.2h-9.2V31.7h9.2v37.4c0,19,6.5,24.4,13.3,24.4s9.2-5.3,9.2-11.5h9.2
	C225.7,92.9,221.6,101.3,210.5,101.3L210.5,101.3z"/>
</svg>
