<svg xmlns="http://www.w3.org/2000/svg" xmlns:xlink="http://www.w3.org/1999/xlink" width="390" height="380" viewBox="0 0 390 380">
  <defs>
    <clipPath id="clip-path">
      <rect id="Rectangle_170" data-name="Rectangle 170" width="390" height="380" transform="translate(-8857 -21132)" fill="#fff" stroke="#707070" stroke-width="1"/>
    </clipPath>
    <clipPath id="clip-path-2">
      <rect id="Rectangle_4" data-name="Rectangle 4" width="131.458" height="120.845" fill="#fec471"/>
    </clipPath>
    <clipPath id="clip-path-3">
      <rect id="Rectangle_106" data-name="Rectangle 106" width="204.415" height="311.384" fill="none"/>
    </clipPath>
    <clipPath id="clip-path-5">
      <rect id="Rectangle_106-2" data-name="Rectangle 106" width="204.414" height="311.384" fill="#f15d55" stroke="#f15d55" stroke-width="1"/>
    </clipPath>
    <clipPath id="clip-path-6">
      <rect id="Rectangle_107" data-name="Rectangle 107" width="165.959" height="155.014" fill="#f15d55"/>
    </clipPath>
  </defs>
  <g id="Mask_Group_3" data-name="Mask Group 3" transform="translate(8857 21132)" clip-path="url(#clip-path)">
    <ellipse id="Ellipse_812" data-name="Ellipse 812" cx="11.743" cy="12.396" rx="11.743" ry="12.396" transform="translate(-8709.543 -21175.359) rotate(40)" fill="rgba(241,93,85,0.5)"/>
    <ellipse id="Ellipse_813" data-name="Ellipse 813" cx="81.96" cy="81.96" rx="81.96" ry="81.96" transform="translate(-8591.877 -21163.41) rotate(76)" fill="rgba(254,196,113,0.3)"/>
    <g id="Group_344" data-name="Group 344" transform="translate(-8849.539 -21077.643) rotate(-45)" opacity="0.7">
      <g id="Group_1" data-name="Group 1" clip-path="url(#clip-path-2)">
        <path id="Path_1" data-name="Path 1" d="M79.8,25.483s10.291-14.051,17.614-9.1S99.787,30.43,99.787,30.43s-8.51,14.051-11.875,16.228S112.651,23.108,119.577,33.6s-14.645,18.01-14.645,18.01L90.881,58.533s18.405-2.573,27.113-.99,14.645,6.135,12.864,8.906-1.187,7.125-17.812,5.541a179.616,179.616,0,0,1-26.915-4.354s19.593,8.51,25.926,15.041,9.7,13.26,4.948,13.854-16.228-2.771-23.155-8.114a91.41,91.41,0,0,1-12.666-12.27L92.266,95.74s6.135,11.281,1.385,14.249-11.281,0-11.281,0-6.531-7.718-7.52-11.281-3.364-15.041-3.364-15.041V98.708s-1.187,13.524-5.937,12.6-7.718-5.08-7.718-13.392a73.13,73.13,0,0,1,1.583-15.041L46.945,98.313S24.384,128.2,19.04,118.7a19.121,19.121,0,0,1-.99-17.614s10.885-19.4,19.395-22.364c0,0-18.009,5.541-25.134,4.948S-1.344,78.971.239,74.195s2.573-5.964,12.468-7.943,31.071-3.562,31.071-3.562l9.3.2S22.6,47.252,20.03,45.471,1.822,32.212,5.385,27.462s6.927-7.52,16.822-2.573S47.935,42.3,47.935,42.3L40.018,28.055s-9.3-21.968-3.76-25.926S47.539-.245,51.893,6.681s8.312,21.374,8.312,21.374l5.382,26.915L63.174,27.264S62.778.942,71.882,1.338,79.8,25.483,79.8,25.483" transform="translate(0.142 0.142)" fill="#fec471"/>
        <path id="Path_2" data-name="Path 2" d="M79.8,25.483s10.291-14.051,17.614-9.1S99.787,30.43,99.787,30.43s-8.51,14.051-11.875,16.228S112.651,23.108,119.577,33.6s-14.645,18.01-14.645,18.01L90.881,58.533s18.405-2.573,27.113-.99,14.645,6.135,12.864,8.906-1.187,7.125-17.812,5.541a179.616,179.616,0,0,1-26.915-4.354s19.593,8.51,25.926,15.041,9.7,13.26,4.948,13.854-16.228-2.771-23.155-8.114a91.41,91.41,0,0,1-12.666-12.27L92.266,95.74s6.135,11.281,1.385,14.249-11.281,0-11.281,0-6.531-7.718-7.52-11.281-3.364-15.041-3.364-15.041V98.708s-1.187,13.524-5.937,12.6-7.718-5.08-7.718-13.392a73.13,73.13,0,0,1,1.583-15.041L46.945,98.313S24.384,128.2,19.04,118.7a19.121,19.121,0,0,1-.99-17.614s10.885-19.4,19.395-22.364c0,0-18.009,5.541-25.134,4.948S-1.344,78.971.239,74.195s2.573-5.964,12.468-7.943,31.071-3.562,31.071-3.562l9.3.2S22.6,47.252,20.03,45.471,1.822,32.212,5.385,27.462s6.927-7.52,16.822-2.573S47.935,42.3,47.935,42.3L40.018,28.055s-9.3-21.968-3.76-25.926S47.539-.245,51.893,6.681s8.312,21.374,8.312,21.374l5.382,26.915L63.174,27.264S62.778.942,71.882,1.338,79.8,25.483,79.8,25.483Z" transform="translate(0.142 0.142)" fill="#fec471"/>
      </g>
    </g>
    <ellipse id="Ellipse_814" data-name="Ellipse 814" cx="8.481" cy="8.481" rx="8.481" ry="8.481" transform="translate(-8704.396 -21116.533) rotate(40)" fill="rgba(241,93,85,0.5)"/>
    <ellipse id="Ellipse_815" data-name="Ellipse 815" cx="3.262" cy="3.914" rx="3.262" ry="3.914" transform="translate(-8714.07 -21121.244) rotate(40)" fill="rgba(241,93,85,0.5)"/>
    <ellipse id="Ellipse_816" data-name="Ellipse 816" cx="5.219" cy="5.219" rx="5.219" ry="5.219" transform="translate(-8728.846 -21099.576) rotate(40)" fill="rgba(241,93,85,0.5)"/>
    <ellipse id="Ellipse_817" data-name="Ellipse 817" cx="3.914" cy="3.914" rx="3.914" ry="3.914" transform="translate(-8675.502 -21114.43) rotate(40)" fill="rgba(241,93,85,0.5)"/>
    <ellipse id="Ellipse_818" data-name="Ellipse 818" cx="11.994" cy="11.994" rx="11.994" ry="11.994" transform="matrix(0.208, 0.978, -0.978, 0.208, -8675.836, -21057.824)" fill="rgba(241,93,85,0.5)"/>
    <ellipse id="Ellipse_819" data-name="Ellipse 819" cx="11.994" cy="11.994" rx="11.994" ry="11.994" transform="translate(-8714.814 -20957.309) rotate(-89)" fill="rgba(241,93,85,0.5)"/>
    <ellipse id="Ellipse_820" data-name="Ellipse 820" cx="8.258" cy="8.258" rx="8.258" ry="8.258" transform="translate(-8671.682 -21017.197) rotate(-89)" fill="rgba(241,93,85,0.5)"/>
    <ellipse id="Ellipse_821" data-name="Ellipse 821" cx="3.736" cy="3.736" rx="3.736" ry="3.736" transform="translate(-8704.723 -20983.969) rotate(-89)" fill="rgba(241,93,85,0.5)"/>
    <ellipse id="Ellipse_822" data-name="Ellipse 822" cx="3.539" cy="3.539" rx="3.539" ry="3.539" transform="translate(-8674.68 -20999.902) rotate(-89)" fill="rgba(241,93,85,0.5)"/>
    <ellipse id="Ellipse_823" data-name="Ellipse 823" cx="4.326" cy="4.326" rx="4.326" ry="4.326" transform="translate(-8689.094 -21002.52) rotate(-89)" fill="rgba(241,93,85,0.5)"/>
    <ellipse id="Ellipse_824" data-name="Ellipse 824" cx="4.522" cy="4.522" rx="4.522" ry="4.522" transform="translate(-8648.379 -21071.129) rotate(155)" fill="rgba(241,93,85,0.5)"/>
    <ellipse id="Ellipse_825" data-name="Ellipse 825" cx="8.258" cy="8.258" rx="8.258" ry="8.258" transform="translate(-8672.873 -21069.686) rotate(155)" fill="rgba(241,93,85,0.5)"/>
    <ellipse id="Ellipse_826" data-name="Ellipse 826" cx="3.736" cy="3.736" rx="3.736" ry="3.736" transform="translate(-8655.961 -21051.104) rotate(155)" fill="rgba(241,93,85,0.5)"/>
    <g id="Group_345" data-name="Group 345" transform="translate(-8559.975 -20899.967) rotate(170)">
      <g id="Group_45" data-name="Group 45" transform="translate(0 0)" clip-path="url(#clip-path-3)">
        <path id="Path_19" data-name="Path 19" d="M75.836,310.633s2.2-2.474,0-4.4-6.6-15.394-6.6-15.394-3.3-21.717-3.024-24.466.961-9.072,5.291-10.721,21.649-4.673,25.772-4.4,11.271,2.749,26.115-6.323,40.41-14.844,40.41-14.844,14.02-10.721,13.195-13.47-36.836,12.1-53.055,14.569-37.111,6.6-43.434,13.745a51.2,51.2,0,0,1-14.311,11s-1.941-14.294,0-21.992-1.908-10.446,8.538-12.1,24.466-2.749,38.486-14.294,48.932-27.49,52.78-27.765,8.247-6.873,9.072-8.247a3.517,3.517,0,0,1,1.959-1.649s-19.828-4.948-42.369,7.972-34.087,21.992-34.087,21.992-14.02,5.5-15.944,6.6a27.054,27.054,0,0,0-6.048,4.673c-1.1,1.374-10.446,6.323-10.446,6.323s6.6-26.665,8.247-29.139a22.733,22.733,0,0,1,17.593-9.9,51.047,51.047,0,0,0,18.418-4.948l47.832-22.266s16.289-14.845,16.8-16.494-1.959-1.649-4.983,0-23.339,3.574-23.339,3.574-48.959,22.541-57.205,30.788l-8.247,8.247s-1.1-1.925,1.374-7.422,8.8-21.167,8.8-21.167,4.4-13.47,15.944-15.257,43.984-4.536,53.055-8.385,14.844-9.621,21.442-10.171,17.593-1.374,13.745-3.848-12.645-11-31.613-5.5-59.378,24.191-59.378,24.191l-6.873,4.123,3.024-10.721s1.924-9.346,14.02-13.195,50.856-18.693,56.079-23.092,12.37-5.773,12.37-5.773,6.323-5.5,7.972-7.422,10.446-6.048,10.446-6.048-21.717-6.322-41.509,6.323-41.509,24.466-41.509,24.466l-11.546,7.7,4.673-10.721S138.566,65.7,148.71,57.728A166.62,166.62,0,0,0,166,42.059s11.82-13.195,16.219-18.693S195.416,0,195.416,0s-9.9,5.773-12.1,7.972S162.154,25.565,160.5,27.764s-9.346,14.295-9.346,14.295l-7.972,9.072L118.995,78.9l-5.5,9.621-3.024,6.047,1.375-38.486S109.1,35.461,109.1,29.964a93.283,93.283,0,0,0-1.374-13.2s-6.047,13.47-6.047,17.593-4.948,25.016-5.223,27.765S95.079,82.7,95.9,84.508s5.223,18.853,6.873,21.876-1.1,16.219-3.3,18.418-8.521,9.621-8.521,9.621V120.13s-.825-34.637-13.2-44.808S51.645,57.178,51.92,62.126s8.521,18.143,8.8,18.968,13.47,26.39,13.47,26.39,1.374,6.6,1.1,9.621,3.024,18.693,6.048,26.115,4.673,11.82,3.574,15.669-2.474,9.621-3.848,10.171S72.812,145.97,69.513,139.1,53.844,99.787,39.824,98.413s-30.788-4.124-29.689,0,16.219,12.92,16.494,14.02,7.422,15.394,21.442,24.466,15.394,17.319,15.394,17.319a75.8,75.8,0,0,0,7.147,9.346c3.024,3.024,7.422,9.072,6.873,12.645s-3.3,7.972-4.673,10.171-7.422,28.1-7.422,28.1l-1.1,4.064s-3.3-11-6.6-14.845-11.546-25.29-11.82-29.139S33.5,151.468,21.407,145.42A67.44,67.44,0,0,1,1.339,129.476s-4.4,8.247,2.749,17.868,26.39,29.139,26.39,29.139S44.5,211.4,47.247,212.769s11.82,10.171,12.92,14.02,1.1,25.29,1.1,25.29-12.646-15.394-21.442-19.793a83.928,83.928,0,0,0-18.143-6.323S32.128,243.558,36.8,246.857,62.366,260.6,62.366,260.6s.825,23.641,2.474,27.765,4.123,18.693,6.873,20.067,4.123,2.2,4.123,2.2" transform="translate(0.197 0.499)" fill="#48a347"/>
        <path id="Path_20" data-name="Path 20" d="M75.836,310.633s2.2-2.474,0-4.4-6.6-15.394-6.6-15.394-3.3-21.717-3.024-24.466.961-9.072,5.291-10.721,21.649-4.673,25.772-4.4,11.271,2.749,26.115-6.323,40.41-14.844,40.41-14.844,14.02-10.721,13.195-13.47-36.836,12.1-53.055,14.569-37.111,6.6-43.434,13.745a51.2,51.2,0,0,1-14.311,11s-1.941-14.294,0-21.992-1.908-10.446,8.538-12.1,24.466-2.749,38.486-14.294,48.932-27.49,52.78-27.765,8.247-6.873,9.072-8.247a3.517,3.517,0,0,1,1.959-1.649s-19.828-4.948-42.369,7.972-34.087,21.992-34.087,21.992-14.02,5.5-15.944,6.6a27.054,27.054,0,0,0-6.048,4.673c-1.1,1.374-10.446,6.323-10.446,6.323s6.6-26.665,8.247-29.139a22.733,22.733,0,0,1,17.593-9.9,51.047,51.047,0,0,0,18.418-4.948l47.832-22.266s16.289-14.845,16.8-16.494-1.959-1.649-4.983,0-23.339,3.574-23.339,3.574-48.959,22.541-57.205,30.788l-8.247,8.247s-1.1-1.925,1.374-7.422,8.8-21.167,8.8-21.167,4.4-13.47,15.944-15.257,43.984-4.536,53.055-8.385,14.844-9.621,21.442-10.171,17.593-1.374,13.745-3.848-12.645-11-31.613-5.5-59.378,24.191-59.378,24.191l-6.873,4.123,3.024-10.721s1.924-9.346,14.02-13.195,50.856-18.693,56.079-23.092,12.37-5.773,12.37-5.773,6.323-5.5,7.972-7.422,10.446-6.048,10.446-6.048-21.717-6.322-41.509,6.323-41.509,24.466-41.509,24.466l-11.546,7.7,4.673-10.721S138.566,65.7,148.71,57.728A166.62,166.62,0,0,0,166,42.059s11.82-13.195,16.219-18.693S195.416,0,195.416,0s-9.9,5.773-12.1,7.972S162.154,25.565,160.5,27.764s-9.346,14.295-9.346,14.295l-7.972,9.072L118.995,78.9l-5.5,9.621-3.024,6.047,1.375-38.486S109.1,35.461,109.1,29.964a93.283,93.283,0,0,0-1.374-13.2s-6.047,13.47-6.047,17.593-4.948,25.016-5.223,27.765S95.079,82.7,95.9,84.508s5.223,18.853,6.873,21.876-1.1,16.219-3.3,18.418-8.521,9.621-8.521,9.621V120.13s-.825-34.637-13.2-44.808S51.645,57.178,51.92,62.126s8.521,18.143,8.8,18.968,13.47,26.39,13.47,26.39,1.374,6.6,1.1,9.621,3.024,18.693,6.048,26.115,4.673,11.82,3.574,15.669-2.474,9.621-3.848,10.171S72.812,145.97,69.513,139.1,53.844,99.787,39.824,98.413s-30.788-4.124-29.689,0,16.219,12.92,16.494,14.02,7.422,15.394,21.442,24.466,15.394,17.319,15.394,17.319a75.8,75.8,0,0,0,7.147,9.346c3.024,3.024,7.422,9.072,6.873,12.645s-3.3,7.972-4.673,10.171-7.422,28.1-7.422,28.1l-1.1,4.064s-3.3-11-6.6-14.845-11.546-25.29-11.82-29.139S33.5,151.468,21.407,145.42A67.44,67.44,0,0,1,1.339,129.476s-4.4,8.247,2.749,17.868,26.39,29.139,26.39,29.139S44.5,211.4,47.247,212.769s11.82,10.171,12.92,14.02,1.1,25.29,1.1,25.29-12.646-15.394-21.442-19.793a83.928,83.928,0,0,0-18.143-6.323S32.128,243.558,36.8,246.857,62.366,260.6,62.366,260.6s.825,23.641,2.474,27.765,4.123,18.693,6.873,20.067S75.836,310.633,75.836,310.633Z" transform="translate(0.197 0.499)" fill="none" stroke="#48a347" stroke-miterlimit="10" stroke-width="1"/>
      </g>
    </g>
    <g id="Group_346" data-name="Group 346" transform="translate(-8618.08 -20952.16) rotate(-45)" opacity="0.7">
      <g id="Group_1-2" data-name="Group 1" clip-path="url(#clip-path-2)">
        <path id="Path_1-2" data-name="Path 1" d="M79.8,25.483s10.291-14.051,17.614-9.1S99.787,30.43,99.787,30.43s-8.51,14.051-11.875,16.228S112.651,23.108,119.577,33.6s-14.645,18.01-14.645,18.01L90.881,58.533s18.405-2.573,27.113-.99,14.645,6.135,12.864,8.906-1.187,7.125-17.812,5.541a179.616,179.616,0,0,1-26.915-4.354s19.593,8.51,25.926,15.041,9.7,13.26,4.948,13.854-16.228-2.771-23.155-8.114a91.41,91.41,0,0,1-12.666-12.27L92.266,95.74s6.135,11.281,1.385,14.249-11.281,0-11.281,0-6.531-7.718-7.52-11.281-3.364-15.041-3.364-15.041V98.708s-1.187,13.524-5.937,12.6-7.718-5.08-7.718-13.392a73.13,73.13,0,0,1,1.583-15.041L46.945,98.313S24.384,128.2,19.04,118.7a19.121,19.121,0,0,1-.99-17.614s10.885-19.4,19.395-22.364c0,0-18.009,5.541-25.134,4.948S-1.344,78.971.239,74.195s2.573-5.964,12.468-7.943,31.071-3.562,31.071-3.562l9.3.2S22.6,47.252,20.03,45.471,1.822,32.212,5.385,27.462s6.927-7.52,16.822-2.573S47.935,42.3,47.935,42.3L40.018,28.055s-9.3-21.968-3.76-25.926S47.539-.245,51.893,6.681s8.312,21.374,8.312,21.374l5.382,26.915L63.174,27.264S62.778.942,71.882,1.338,79.8,25.483,79.8,25.483" transform="translate(0.142 0.142)" fill="#fec471"/>
        <path id="Path_2-2" data-name="Path 2" d="M79.8,25.483s10.291-14.051,17.614-9.1S99.787,30.43,99.787,30.43s-8.51,14.051-11.875,16.228S112.651,23.108,119.577,33.6s-14.645,18.01-14.645,18.01L90.881,58.533s18.405-2.573,27.113-.99,14.645,6.135,12.864,8.906-1.187,7.125-17.812,5.541a179.616,179.616,0,0,1-26.915-4.354s19.593,8.51,25.926,15.041,9.7,13.26,4.948,13.854-16.228-2.771-23.155-8.114a91.41,91.41,0,0,1-12.666-12.27L92.266,95.74s6.135,11.281,1.385,14.249-11.281,0-11.281,0-6.531-7.718-7.52-11.281-3.364-15.041-3.364-15.041V98.708s-1.187,13.524-5.937,12.6-7.718-5.08-7.718-13.392a73.13,73.13,0,0,1,1.583-15.041L46.945,98.313S24.384,128.2,19.04,118.7a19.121,19.121,0,0,1-.99-17.614s10.885-19.4,19.395-22.364c0,0-18.009,5.541-25.134,4.948S-1.344,78.971.239,74.195s2.573-5.964,12.468-7.943,31.071-3.562,31.071-3.562l9.3.2S22.6,47.252,20.03,45.471,1.822,32.212,5.385,27.462s6.927-7.52,16.822-2.573S47.935,42.3,47.935,42.3L40.018,28.055s-9.3-21.968-3.76-25.926S47.539-.245,51.893,6.681s8.312,21.374,8.312,21.374l5.382,26.915L63.174,27.264S62.778.942,71.882,1.338,79.8,25.483,79.8,25.483Z" transform="translate(0.142 0.142)" fill="#fec471"/>
      </g>
    </g>
    <ellipse id="Ellipse_827" data-name="Ellipse 827" cx="11.994" cy="11.994" rx="11.994" ry="11.994" transform="translate(-8701.23 -20879.289) rotate(113)" fill="rgba(241,93,85,0.5)"/>
    <ellipse id="Ellipse_828" data-name="Ellipse 828" cx="4.522" cy="4.522" rx="4.522" ry="4.522" transform="translate(-8738.773 -20861.445) rotate(113)" fill="rgba(241,93,85,0.5)"/>
    <ellipse id="Ellipse_829" data-name="Ellipse 829" cx="8.258" cy="8.258" rx="8.258" ry="8.258" transform="translate(-8756.012 -20843.982) rotate(113)" fill="rgba(241,93,85,0.5)"/>
    <ellipse id="Ellipse_830" data-name="Ellipse 830" cx="3.736" cy="3.736" rx="3.736" ry="3.736" transform="translate(-8720.572 -20858.352) rotate(113)" fill="rgba(241,93,85,0.5)"/>
    <ellipse id="Ellipse_831" data-name="Ellipse 831" cx="3.539" cy="3.539" rx="3.539" ry="3.539" transform="translate(-8754.398 -20854.834) rotate(113)" fill="rgba(241,93,85,0.5)"/>
    <ellipse id="Ellipse_832" data-name="Ellipse 832" cx="4.326" cy="4.326" rx="4.326" ry="4.326" transform="translate(-8742.016 -20847.006) rotate(113)" fill="rgba(241,93,85,0.5)"/>
    <ellipse id="Ellipse_833" data-name="Ellipse 833" cx="11.994" cy="11.994" rx="11.994" ry="11.994" transform="translate(-8759.137 -20878.531) rotate(-54)" fill="rgba(241,93,85,0.5)"/>
    <ellipse id="Ellipse_834" data-name="Ellipse 834" cx="4.522" cy="4.522" rx="4.522" ry="4.522" transform="translate(-8722.418 -20893.412) rotate(-54)" fill="rgba(241,93,85,0.5)"/>
    <ellipse id="Ellipse_835" data-name="Ellipse 835" cx="8.258" cy="8.258" rx="8.258" ry="8.258" transform="translate(-8697.816 -20900.607) rotate(-54)" fill="rgba(241,93,85,0.5)"/>
    <ellipse id="Ellipse_836" data-name="Ellipse 836" cx="2.556" cy="2.556" rx="2.556" ry="2.556" transform="translate(-8701.996 -20875.449) rotate(-54)" fill="rgba(241,93,85,0.5)"/>
    <ellipse id="Ellipse_837" data-name="Ellipse 837" cx="3.736" cy="3.736" rx="3.736" ry="3.736" transform="translate(-8735.578 -20894.58) rotate(-54)" fill="rgba(241,93,85,0.5)"/>
    <ellipse id="Ellipse_838" data-name="Ellipse 838" cx="3.539" cy="3.539" rx="3.539" ry="3.539" transform="translate(-8701.832 -20890.398) rotate(-54)" fill="rgba(241,93,85,0.5)"/>
    <ellipse id="Ellipse_839" data-name="Ellipse 839" cx="5.112" cy="5.112" rx="5.112" ry="5.112" transform="translate(-8679.301 -20877.92) rotate(-54)" fill="rgba(241,93,85,0.5)"/>
    <ellipse id="Ellipse_840" data-name="Ellipse 840" cx="4.326" cy="4.326" rx="4.326" ry="4.326" transform="translate(-8712.135 -20900.811) rotate(-54)" fill="rgba(241,93,85,0.5)"/>
    <ellipse id="Ellipse_841" data-name="Ellipse 841" cx="8.258" cy="8.258" rx="8.258" ry="8.258" transform="matrix(0.208, 0.978, -0.978, 0.208, -8692.441, -20930.801)" fill="rgba(241,93,85,0.5)"/>
    <ellipse id="Ellipse_842" data-name="Ellipse 842" cx="3.736" cy="3.736" rx="3.736" ry="3.736" transform="matrix(0.208, 0.978, -0.978, 0.208, -8671.652, -20962.9)" fill="rgba(241,93,85,0.5)"/>
    <ellipse id="Ellipse_843" data-name="Ellipse 843" cx="3.539" cy="3.539" rx="3.539" ry="3.539" transform="matrix(0.208, 0.978, -0.978, 0.208, -8697.34, -20940.615)" fill="rgba(241,93,85,0.5)"/>
    <ellipse id="Ellipse_844" data-name="Ellipse 844" cx="4.326" cy="4.326" rx="4.326" ry="4.326" transform="matrix(0.208, 0.978, -0.978, 0.208, -8682.707, -20941.307)" fill="rgba(241,93,85,0.5)"/>
    <ellipse id="Ellipse_845" data-name="Ellipse 845" cx="428.632" cy="285.754" rx="428.632" ry="285.754" transform="matrix(0.951, 0.309, -0.309, 0.951, -8823.6, -21496.447)" fill="rgba(254,196,113,0.15)"/>
    <ellipse id="Ellipse_846" data-name="Ellipse 846" cx="81.96" cy="81.96" rx="81.96" ry="81.96" transform="translate(-8550.734 -21025.885) rotate(76)" fill="rgba(254,196,113,0.3)"/>
    <g id="Group_347" data-name="Group 347" transform="translate(-8516.127 -20844.574) rotate(-157)">
      <g id="Group_45-2" data-name="Group 45" transform="translate(0 0)" clip-path="url(#clip-path-5)">
        <path id="Path_19-2" data-name="Path 19" d="M75.836,310.633s2.2-2.474,0-4.4-6.6-15.394-6.6-15.394-3.3-21.717-3.024-24.466.961-9.072,5.291-10.721,21.649-4.673,25.772-4.4,11.271,2.749,26.115-6.323,40.41-14.844,40.41-14.844,14.02-10.721,13.195-13.47-36.836,12.1-53.055,14.569-37.111,6.6-43.434,13.745a51.2,51.2,0,0,1-14.311,11s-1.941-14.294,0-21.992-1.908-10.446,8.538-12.1,24.466-2.749,38.486-14.294,48.932-27.49,52.78-27.765,8.247-6.873,9.072-8.247a3.517,3.517,0,0,1,1.959-1.649s-19.828-4.948-42.369,7.972-34.087,21.992-34.087,21.992-14.02,5.5-15.944,6.6a27.054,27.054,0,0,0-6.048,4.673c-1.1,1.374-10.446,6.323-10.446,6.323s6.6-26.665,8.247-29.139a22.733,22.733,0,0,1,17.593-9.9,51.047,51.047,0,0,0,18.418-4.948l47.832-22.267s16.289-14.845,16.8-16.494-1.959-1.649-4.983,0-23.339,3.574-23.339,3.574-48.959,22.541-57.205,30.788l-8.247,8.247s-1.1-1.925,1.374-7.422,8.8-21.167,8.8-21.167,4.4-13.47,15.944-15.257,43.984-4.536,53.055-8.385,14.844-9.621,21.442-10.171,17.593-1.374,13.745-3.848-12.645-11-31.613-5.5-59.378,24.191-59.378,24.191l-6.873,4.123,3.024-10.721s1.924-9.346,14.02-13.195,50.856-18.693,56.079-23.092,12.37-5.773,12.37-5.773,6.323-5.5,7.972-7.422,10.446-6.048,10.446-6.048-21.717-6.322-41.509,6.323-41.509,24.466-41.509,24.466l-11.546,7.7,4.673-10.721S138.566,65.7,148.71,57.728A166.621,166.621,0,0,0,166,42.059s11.82-13.195,16.219-18.693S195.416,0,195.416,0s-9.9,5.773-12.1,7.972S162.153,25.565,160.5,27.764s-9.346,14.295-9.346,14.295l-7.972,9.072L118.994,78.9l-5.5,9.621-3.024,6.047,1.375-38.486S109.1,35.461,109.1,29.964a93.284,93.284,0,0,0-1.374-13.2s-6.048,13.47-6.048,17.593-4.948,25.016-5.223,27.765S95.079,82.7,95.9,84.508s5.223,18.853,6.873,21.876-1.1,16.219-3.3,18.418-8.521,9.621-8.521,9.621V120.13s-.825-34.637-13.2-44.808S51.645,57.178,51.92,62.126s8.521,18.143,8.8,18.968,13.47,26.39,13.47,26.39,1.374,6.6,1.1,9.621,3.024,18.693,6.048,26.115,4.673,11.82,3.574,15.669-2.474,9.621-3.848,10.171S72.812,145.97,69.513,139.1,53.844,99.787,39.824,98.413s-30.788-4.124-29.689,0,16.219,12.92,16.494,14.02,7.422,15.394,21.442,24.466,15.394,17.319,15.394,17.319a75.8,75.8,0,0,0,7.147,9.346c3.024,3.024,7.422,9.072,6.873,12.645s-3.3,7.972-4.673,10.171-7.422,28.1-7.422,28.1l-1.1,4.064s-3.3-11-6.6-14.845-11.546-25.29-11.82-29.139S33.5,151.468,21.406,145.42A67.44,67.44,0,0,1,1.339,129.476s-4.4,8.247,2.749,17.868,26.39,29.139,26.39,29.139S44.5,211.4,47.246,212.77s11.82,10.171,12.92,14.02,1.1,25.29,1.1,25.29-12.646-15.394-21.442-19.793a83.927,83.927,0,0,0-18.143-6.323S32.127,243.558,36.8,246.857,62.366,260.6,62.366,260.6s.825,23.641,2.474,27.765,4.123,18.693,6.873,20.067,4.123,2.2,4.123,2.2" transform="translate(0.197 0.499)" fill="#f15d55" stroke="#f15d55" stroke-width="1"/>
        <path id="Path_20-2" data-name="Path 20" d="M75.836,310.633s2.2-2.474,0-4.4-6.6-15.394-6.6-15.394-3.3-21.717-3.024-24.466.961-9.072,5.291-10.721,21.649-4.673,25.772-4.4,11.271,2.749,26.115-6.323,40.41-14.844,40.41-14.844,14.02-10.721,13.195-13.47-36.836,12.1-53.055,14.569-37.111,6.6-43.434,13.745a51.2,51.2,0,0,1-14.311,11s-1.941-14.294,0-21.992-1.908-10.446,8.538-12.1,24.466-2.749,38.486-14.294,48.932-27.49,52.78-27.765,8.247-6.873,9.072-8.247a3.517,3.517,0,0,1,1.959-1.649s-19.828-4.948-42.369,7.972-34.087,21.992-34.087,21.992-14.02,5.5-15.944,6.6a27.054,27.054,0,0,0-6.048,4.673c-1.1,1.374-10.446,6.323-10.446,6.323s6.6-26.665,8.247-29.139a22.733,22.733,0,0,1,17.593-9.9,51.047,51.047,0,0,0,18.418-4.948l47.832-22.267s16.289-14.845,16.8-16.494-1.959-1.649-4.983,0-23.339,3.574-23.339,3.574-48.959,22.541-57.205,30.788l-8.247,8.247s-1.1-1.925,1.374-7.422,8.8-21.167,8.8-21.167,4.4-13.47,15.944-15.257,43.984-4.536,53.055-8.385,14.844-9.621,21.442-10.171,17.593-1.374,13.745-3.848-12.645-11-31.613-5.5-59.378,24.191-59.378,24.191l-6.873,4.123,3.024-10.721s1.924-9.346,14.02-13.195,50.856-18.693,56.079-23.092,12.37-5.773,12.37-5.773,6.323-5.5,7.972-7.422,10.446-6.048,10.446-6.048-21.717-6.322-41.509,6.323-41.509,24.466-41.509,24.466l-11.546,7.7,4.673-10.721S138.566,65.7,148.71,57.728A166.621,166.621,0,0,0,166,42.059s11.82-13.195,16.219-18.693S195.416,0,195.416,0s-9.9,5.773-12.1,7.972S162.153,25.565,160.5,27.764s-9.346,14.295-9.346,14.295l-7.972,9.072L118.994,78.9l-5.5,9.621-3.024,6.047,1.375-38.486S109.1,35.461,109.1,29.964a93.284,93.284,0,0,0-1.374-13.2s-6.048,13.47-6.048,17.593-4.948,25.016-5.223,27.765S95.079,82.7,95.9,84.508s5.223,18.853,6.873,21.876-1.1,16.219-3.3,18.418-8.521,9.621-8.521,9.621V120.13s-.825-34.637-13.2-44.808S51.645,57.178,51.92,62.126s8.521,18.143,8.8,18.968,13.47,26.39,13.47,26.39,1.374,6.6,1.1,9.621,3.024,18.693,6.048,26.115,4.673,11.82,3.574,15.669-2.474,9.621-3.848,10.171S72.812,145.97,69.513,139.1,53.844,99.787,39.824,98.413s-30.788-4.124-29.689,0,16.219,12.92,16.494,14.02,7.422,15.394,21.442,24.466,15.394,17.319,15.394,17.319a75.8,75.8,0,0,0,7.147,9.346c3.024,3.024,7.422,9.072,6.873,12.645s-3.3,7.972-4.673,10.171-7.422,28.1-7.422,28.1l-1.1,4.064s-3.3-11-6.6-14.845-11.546-25.29-11.82-29.139S33.5,151.468,21.406,145.42A67.44,67.44,0,0,1,1.339,129.476s-4.4,8.247,2.749,17.868,26.39,29.139,26.39,29.139S44.5,211.4,47.246,212.77s11.82,10.171,12.92,14.02,1.1,25.29,1.1,25.29-12.646-15.394-21.442-19.793a83.927,83.927,0,0,0-18.143-6.323S32.127,243.558,36.8,246.857,62.366,260.6,62.366,260.6s.825,23.641,2.474,27.765,4.123,18.693,6.873,20.067S75.836,310.633,75.836,310.633Z" transform="translate(0.197 0.499)" fill="#f15d55" stroke="#f15d55" stroke-miterlimit="10" stroke-width="1"/>
      </g>
    </g>
    <g id="Group_348" data-name="Group 348" transform="translate(-8724.023 -20795.33) rotate(-69)">
      <g id="Group_47" data-name="Group 47" clip-path="url(#clip-path-6)">
        <path id="Path_21" data-name="Path 21" d="M152.668,101.52c-4.774-2.231-8.593-7.63-12.725-11.136S99.235,75.436,99.235,75.436V73.318a36.09,36.09,0,0,1,9.539-.1c5.408.634,7-1.91,8.906-1.588s14.634-4.453,18.766-4.14,17.811-7.951,20.354-9.218,12.082-12.4,8.272-15.268-20.354-3.819-21.309-3.819-11.136,7-16.223,7.638S99.235,67.486,99.235,67.486l-1.91.642s18.132-25.128,21-30.857c0,0,4.765-41.664-7-36.89S91.605,30.6,90.329,35.682s-.321,20.042-.955,15.589-5.086-9.227-6.4-11.77-5.685-10.98-7.274-13.68S62.657,7.377,59.481,14.061s-.634,18.757-.634,18.757,3.5,11.458,6.675,16.223a29.95,29.95,0,0,0,8.584,7.951l3.819,3.186C81.745,63.354,87.465,71.3,87.465,71.3s-29.572-7.951-32.758-8.272-21.622-1.91-26.717-1.91a33.852,33.852,0,0,0-14.3,2.864C8.278,66.218,2.87,67.807.64,68.761s1.91,5.086,3.819,6.041,9.86,3.5,15.58,5.408S29.266,85.3,31.175,85.3s2.222.321,7.317.321,20.033-2.231,25.441-2.543,20.988-7,19.4-5.408S76.658,81.8,72.839,85.618s-5.408,3.177-10.494,6.675-2.864,5.1-6.684,7.951-4.453,4.453-7.317,6.362-11.761,14.634-19.4,23.219-4.132,10.815-4.132,10.815a33.5,33.5,0,0,1,6.362-.955c2.543,0,9.218-1.91,13.358-1.91S49.62,135.232,65.2,121.24,87.786,78.934,87.786,78.934V98.655s2.543,40.4,4.132,44.849,5.729,10.807,10.182,11.449,4.453-3.819,6.675-7.638,1.91-19.712,1.91-24.165-3.819-18.454-7.951-27.672S94.148,78.3,96.692,79.256s9.227,15.58,17.178,20.988,12.4,8.593,12.4,8.593,1.588.955,6.328,3.811,12.751,4.453,16.57,3.819,6.362-.321,9.218-3.177-.955-9.548-5.72-11.77M119.589,56.358l9.86-7s15.268-4.453,16.535-6.041,20.181-1.91,14.7,5.72-22.967,14.313-22.967,14.313-16.544,4.132-17.811,4.774-17.273,5.017-18.132,0ZM82.057,73.848a34.077,34.077,0,0,1-16.535,5.729c-10.017.79-32.758,0-32.758,0s-13.836-2.231-20.832-5.729C7.7,71.739,6.264,71.3,5.787,71.3c.7-.5,3.159-2.048,8.532-3.489a138.335,138.335,0,0,1,16.223-2.864l24.807.8S64.567,67.963,68.7,69.4s17.75,1.953,13.358,4.453M81.1,91.025s-9.852,24.642-21.778,33.548-13.046,8.749-15.589,9.548-3.975,2.222-5.885,2.543-9.383.634-9.383.634,7.317-9.383,10.025-13.68,11.761-15.737,16.379-18.6S66,92.614,69.975,91.025s12.082-9.7,13.68-9.539c1.276.122-2.552,9.539-2.552,9.539m6.84-22.9S79.2,57.625,73,52.226s-8.584-13.68-9.539-17.334-3.975-12.569-2.708-15.433.642-4.609,3.663-2.543,8.437,11.293,9.782,12.725a51.12,51.12,0,0,1,6.276,11.128c1.111,3.186,2.543,6.362,4.14,8.116S88.741,58.9,89.218,61.922s2.179,6.944-1.276,6.206m3.975-17.976c.642-4.132,2.864-18.757,5.729-25.285S108.618,3.081,111.482,4.513s5.243,7.795,4.93,14,.955,11.605-1.432,16.691-14.947,25.128-14.947,25.128-4.948,8.992-7.473,7.881c0,0-1.285-13.923-.642-18.063m14,70.134c.634,10.815-.642,16.214,0,19.4s-2.361,17.811-6.909,7.63-2-14.947-3.906-20.354-3.186-26.717-3.186-26.717V77.511s13.358,31.96,14,42.775M154.257,110.1c-2.543,2.543-10.39,6.362-22.524-2.864A165.79,165.79,0,0,1,111,88.482l-15.9-12.4s35.622,10.173,39.754,14.947,6.362,8.263,10.173,10.173,11.77,6.362,9.227,8.906" transform="translate(0 0)" fill="#f15d55"/>
      </g>
    </g>
    <ellipse id="Ellipse_847" data-name="Ellipse 847" cx="2.556" cy="2.556" rx="2.556" ry="2.556" transform="translate(-8757.6 -20869.438) rotate(113)" fill="rgba(241,93,85,0.5)"/>
    <ellipse id="Ellipse_848" data-name="Ellipse 848" cx="5.112" cy="5.112" rx="5.112" ry="5.112" transform="translate(-8779.156 -20861.922) rotate(113)" fill="rgba(241,93,85,0.5)"/>
    <ellipse id="Ellipse_849" data-name="Ellipse 849" cx="4.522" cy="4.522" rx="4.522" ry="4.522" transform="matrix(0.208, 0.978, -0.978, 0.208, -8688.336, -20954.992)" fill="rgba(241,93,85,0.5)"/>
    <ellipse id="Ellipse_850" data-name="Ellipse 850" cx="2.556" cy="2.556" rx="2.556" ry="2.556" transform="matrix(0.208, 0.978, -0.978, 0.208, -8708.338, -20950.742)" fill="rgba(241,93,85,0.5)"/>
    <ellipse id="Ellipse_851" data-name="Ellipse 851" cx="5.112" cy="5.112" rx="5.112" ry="5.112" transform="matrix(0.208, 0.978, -0.978, 0.208, -8721.691, -20932.223)" fill="rgba(241,93,85,0.5)"/>
    <ellipse id="Ellipse_852" data-name="Ellipse 852" cx="4.522" cy="4.522" rx="4.522" ry="4.522" transform="translate(-8683.074 -20979.18) rotate(-89)" fill="rgba(241,93,85,0.5)"/>
    <ellipse id="Ellipse_853" data-name="Ellipse 853" cx="2.556" cy="2.556" rx="2.556" ry="2.556" transform="translate(-8666.242 -20987.561) rotate(-89)" fill="rgba(241,93,85,0.5)"/>
    <ellipse id="Ellipse_854" data-name="Ellipse 854" cx="5.112" cy="5.112" rx="5.112" ry="5.112" transform="translate(-8649.068 -21002.6) rotate(-89)" fill="rgba(241,93,85,0.5)"/>
    <ellipse id="Ellipse_855" data-name="Ellipse 855" cx="3.914" cy="4.567" rx="3.914" ry="4.567" transform="translate(-8715.518 -21137.787) rotate(40)" fill="rgba(241,93,85,0.5)"/>
    <ellipse id="Ellipse_856" data-name="Ellipse 856" cx="1.957" cy="2.61" rx="1.957" ry="2.61" transform="translate(-8728.938 -21121.795) rotate(40)" fill="rgba(241,93,85,0.5)"/>
    <ellipse id="Ellipse_857" data-name="Ellipse 857" cx="3.914" cy="3.914" rx="3.914" ry="3.914" transform="translate(-8695.297 -21139.559) rotate(40)" fill="rgba(241,93,85,0.5)"/>
  </g>
</svg>
