<svg xmlns="http://www.w3.org/2000/svg" xmlns:xlink="http://www.w3.org/1999/xlink" width="436" height="377" viewBox="0 0 436 377">
  <defs>
    <clipPath id="clip-path">
      <rect id="Rectangle_186" data-name="Rectangle 186" width="436" height="377" transform="translate(-13078 -19050.318)" fill="#fff" stroke="#707070" stroke-width="1"/>
    </clipPath>
    <clipPath id="clip-path-2">
      <rect id="Rectangle_95" data-name="Rectangle 95" width="188.926" height="165.68" fill="#48a347"/>
    </clipPath>
    <clipPath id="clip-path-3">
      <rect id="Rectangle_4" data-name="Rectangle 4" width="131.743" height="121.108" fill="#48a347"/>
    </clipPath>
    <clipPath id="clip-path-4">
      <rect id="Rectangle_4-2" data-name="Rectangle 4" width="131.743" height="121.108" fill="#fec471"/>
    </clipPath>
    <clipPath id="clip-path-5">
      <path id="Rectangle_106" data-name="Rectangle 106" d="M215.053,0,0,65.3,108.813,400.239l200.9-67.853Z" fill="#f79c8b"/>
    </clipPath>
    <clipPath id="clip-path-6">
      <path id="Rectangle_106-2" data-name="Rectangle 106" d="M91.509,0,0,118.044,178.168,261.078,263.9,145.761Z" fill="#f79c8b"/>
    </clipPath>
  </defs>
  <g id="Mask_Group_11" data-name="Mask Group 11" transform="translate(13078 19050.318)" clip-path="url(#clip-path)">
    <ellipse id="Ellipse_945" data-name="Ellipse 945" cx="120.7" cy="120.7" rx="120.7" ry="120.7" transform="matrix(0.616, -0.788, 0.788, 0.616, -13080.234, -18935.395)" fill="#fec471" opacity="0.5"/>
    <g id="Group_373" data-name="Group 373" transform="translate(-12877.068 -18776.6) rotate(-126)">
      <g id="Group_12" data-name="Group 12" clip-path="url(#clip-path-2)">
        <path id="Path_3" data-name="Path 3" d="M0,12.145A59.532,59.532,0,0,0,8.183,28.084a106.054,106.054,0,0,1,8.183,12.506s2.046,16.43,2.813,20.109,2.3,10.054,3.325,11.28,4.091,3.923,10.484,0,6.138-3.924,8.183-3.924,5.37-2.207,6.137-2.7,3.325,0,5.115.245,12.53-1.962,14.065-8.338,1.278-12.752,2.3-16.185,8.695-20.844,2.557-27.22S57.281,3.072,51.4,1.845,32.988-.361,28.9.129,4.858,8.712,2.813,7.976,2.3,11.9,2.3,11.9L29.663,6.26s8.183-3.679,13.553-2.7S60.094,6.26,63.674,11.9s4.859,13.242,3.069,18.882-2.3,7.6-2.3,7.6L62.907,53.833s-3.069,8.583-10.229,7.357-11.508-.245-11.508-.245L35.29,64.132,30.942,71s-4.6,2.207-5.881-4.169a83.676,83.676,0,0,1-1.279-13.978s-1.534-14.223-3.325-17.411S24.8,47.948,25.828,51.626s1.79,7.6,1.79,7.6L25.828,40.1s-2.557-12.261-8.695-17.166S33.5,37.4,34.011,42.307s-8.183-20.6-14.832-24.277,21.481,7.112,21.481,7.112l15.6,5.395L16.11,12.145H33.5s7.16-1.471,9.206-2.7-6.137-.736-7.416-.736-28.371.66-30.942.736S0,12.145,0,12.145" transform="translate(114.949 87.537)" fill="#48a347"/>
        <path id="Path_4" data-name="Path 4" d="M0,12.145A59.532,59.532,0,0,0,8.183,28.084a106.054,106.054,0,0,1,8.183,12.506s2.046,16.43,2.813,20.109,2.3,10.054,3.325,11.28,4.091,3.923,10.484,0,6.138-3.924,8.183-3.924,5.37-2.207,6.137-2.7,3.325,0,5.115.245,12.53-1.962,14.065-8.338,1.278-12.752,2.3-16.185,8.695-20.844,2.557-27.22S57.281,3.072,51.4,1.845,32.988-.361,28.9.129,4.858,8.712,2.813,7.976,2.3,11.9,2.3,11.9L29.663,6.26s8.183-3.679,13.553-2.7S60.094,6.26,63.674,11.9s4.859,13.242,3.069,18.882-2.3,7.6-2.3,7.6L62.907,53.833s-3.069,8.583-10.229,7.357-11.508-.245-11.508-.245L35.29,64.132,30.942,71s-4.6,2.207-5.881-4.169a83.676,83.676,0,0,1-1.279-13.978s-1.534-14.223-3.325-17.411S24.8,47.948,25.828,51.626s1.79,7.6,1.79,7.6L25.828,40.1s-2.557-12.261-8.695-17.166S33.5,37.4,34.011,42.307s-8.183-20.6-14.832-24.277,21.481,7.112,21.481,7.112l15.6,5.395L16.11,12.145H33.5s7.16-1.471,9.206-2.7-6.137-.736-7.416-.736-28.371.66-30.942.736S0,12.145,0,12.145Z" transform="translate(114.949 87.537)" fill="#48a347"/>
        <path id="Path_5" data-name="Path 5" d="M11.356,70.25a64.751,64.751,0,0,0,16.95-7.172,112.769,112.769,0,0,1,13.373-7.316s17.2-1.271,21.069-1.852S73.32,52.127,74.64,51.2s4.26-3.756.44-10.045-3.831-6.045-3.745-8-2.074-5.238-2.553-5.994.139-3.185.471-4.89-1.519-12.088-8.1-13.825S47.922,6.681,44.388,5.557s-21.353-9.2-28.253-3.591S4.3,14.988,2.779,20.572-.292,38.12.047,42.061,7.983,65.451,7.13,67.38s4.066.655,4.066.655L6.467,41.582s-3.489-7.994-2.242-13.1S7.744,12.427,13.769,9.233s14-4.1,19.8-2.149S41.4,9.609,41.4,9.609l16.032,2.118s8.813,3.3,7.236,10.109-.738,11.015-.738,11.015L67,38.619l6.972,4.453s2.106,4.5-4.59,5.46a94.771,94.771,0,0,1-14.617.639s-14.883.874-18.28,2.455S49.7,47.986,53.573,47.16s7.995-1.4,7.995-1.4l-20,.913s-12.882,1.936-18.249,7.611S39.076,39.214,44.207,38.929,22.4,45.906,18.292,52.121,26.6,31.839,26.6,31.839L32.877,17.12,12.03,54.815l.73-16.661s-1.234-6.922-2.424-8.933S9.312,35.07,9.258,36.3s-.5,27.21-.53,29.677,2.628,4.278,2.628,4.278" transform="translate(101.593 20.721)" fill="#48a347"/>
        <path id="Path_6" data-name="Path 6" d="M11.356,70.25a64.751,64.751,0,0,0,16.95-7.172,112.769,112.769,0,0,1,13.373-7.316s17.2-1.271,21.069-1.852S73.32,52.127,74.64,51.2s4.26-3.756.44-10.045-3.831-6.045-3.745-8-2.074-5.238-2.553-5.994.139-3.185.471-4.89-1.519-12.088-8.1-13.825S47.922,6.681,44.388,5.557s-21.353-9.2-28.253-3.591S4.3,14.988,2.779,20.572-.292,38.12.047,42.061,7.983,65.451,7.13,67.38s4.066.655,4.066.655L6.467,41.582s-3.489-7.994-2.242-13.1S7.744,12.427,13.769,9.233s14-4.1,19.8-2.149S41.4,9.609,41.4,9.609l16.032,2.118s8.813,3.3,7.236,10.109-.738,11.015-.738,11.015L67,38.619l6.972,4.453s2.106,4.5-4.59,5.46a94.771,94.771,0,0,1-14.617.639s-14.883.874-18.28,2.455S49.7,47.986,53.573,47.16s7.995-1.4,7.995-1.4l-20,.913s-12.882,1.936-18.249,7.611S39.076,39.214,44.207,38.929,22.4,45.906,18.292,52.121,26.6,31.839,26.6,31.839L32.877,17.12,12.03,54.815l.73-16.661s-1.234-6.922-2.424-8.933S9.312,35.07,9.258,36.3s-.5,27.21-.53,29.677S11.356,70.25,11.356,70.25Z" transform="translate(101.593 20.721)" fill="#48a347"/>
        <path id="Path_7" data-name="Path 7" d="M57.042,75.707a58.42,58.42,0,0,0,3.015-17.53,102.4,102.4,0,0,1,.931-14.738s8.3-14.5,9.912-17.924,4.227-9.461,4.14-11.029-.948-5.474-8.528-5.849S59.139,8.4,57.475,7.263s-5.707-1.2-6.628-1.23-2.7-1.854-4.011-3.053-11.382-5.4-16.5-1.065S21.562,11.574,18.647,13.8-1.07,25.9.054,34.508s4.894,16.622,8.933,20.9,13.636,12.067,17.262,13.95,24.758,6.43,25.976,8.169,2.8-2.906,2.8-2.906L29.344,63.945s-8.887-1.573-12.66-5.367S4.594,46.968,5.1,40.384s4.082-13.481,8.96-17.07,6.484-4.9,6.484-4.9L31.167,6.705s7.7-5.269,12.783-.277,9.211,6.62,9.211,6.62l6.718.688,7.7-3.159s5.083.773,2.255,6.672a86.533,86.533,0,0,1-7.44,12.082s-7.38,12.424-7.859,16.016,4.052-12.6,5.451-16.16S63.143,22,63.143,22L52.995,38.561s-5.359,11.4-3.342,18.812-4.534-20.9-1.974-25.172-5.841,21.319-2.665,28.02S31.856,42.453,31.856,42.453L22.442,29.362l21.5,37.358-14.144-9.7s-6.716-2.8-9.124-2.942,4.545,4.022,5.585,4.735S49.732,74.1,51.869,75.476s5.172.232,5.172.232" transform="translate(32.852 0.263)" fill="#48a347"/>
        <path id="Path_8" data-name="Path 8" d="M57.042,75.707a58.42,58.42,0,0,0,3.015-17.53,102.4,102.4,0,0,1,.931-14.738s8.3-14.5,9.912-17.924,4.227-9.461,4.14-11.029-.948-5.474-8.528-5.849S59.139,8.4,57.475,7.263s-5.707-1.2-6.628-1.23-2.7-1.854-4.011-3.053-11.382-5.4-16.5-1.065S21.562,11.574,18.647,13.8-1.07,25.9.054,34.508s4.894,16.622,8.933,20.9,13.636,12.067,17.262,13.95,24.758,6.43,25.976,8.169,2.8-2.906,2.8-2.906L29.344,63.945s-8.887-1.573-12.66-5.367S4.594,46.968,5.1,40.384s4.082-13.481,8.96-17.07,6.484-4.9,6.484-4.9L31.167,6.705s7.7-5.269,12.783-.277,9.211,6.62,9.211,6.62l6.718.688,7.7-3.159s5.083.773,2.255,6.672a86.533,86.533,0,0,1-7.44,12.082s-7.38,12.424-7.859,16.016,4.052-12.6,5.451-16.16S63.143,22,63.143,22L52.995,38.561s-5.359,11.4-3.342,18.812-4.534-20.9-1.974-25.172-5.841,21.319-2.665,28.02S31.856,42.453,31.856,42.453L22.442,29.362l21.5,37.358-14.144-9.7s-6.716-2.8-9.124-2.942,4.545,4.022,5.585,4.735S49.732,74.1,51.869,75.476,57.042,75.707,57.042,75.707Z" transform="translate(32.852 0.263)" fill="#48a347"/>
        <path id="Path_9" data-name="Path 9" d="M82.044,33.8A64.327,64.327,0,0,0,65.33,26.134a114.368,114.368,0,0,1-14.5-4.968S38.622,9.473,35.646,7.039,27.35.507,25.755.151,20.01-.5,17.519,6.372s-2.289,6.724-3.9,7.938-2.795,4.92-3.081,5.761-2.611,1.973-4.176,2.842S-2.21,31.89.7,37.809s7.224,10.776,8.636,14.08,6.621,21.533,15.556,22.9,18.011.13,23.423-2.4S64.2,63.2,67.1,60.386,80.443,39.379,82.525,38.743s-2.13-3.386-2.13-3.386L62.54,56.026s-4.054,7.745-8.905,10.162-15,7.9-21.451,5.59-12.362-7.519-14.6-13.012-3.1-7.338-3.1-7.338L5.727,38.382S2.6,29.819,9.015,26.533s9.2-6.636,9.2-6.636L20.775,13.9,19.759,5.929s2.192-4.465,7.31-.216A88.694,88.694,0,0,1,37.094,15.935S47.478,26.2,50.941,27.639s-11.486-7.244-14.663-9.527-6.312-4.91-6.312-4.91L43.715,27.166s9.921,8.114,17.907,8.325-22.192-1.653-25.759-5.2S55.584,41.613,63.18,40.558s-21.463,7.16-21.463,7.16L25.983,52.737,69.388,43.36,55.729,53.679s-4.675,5.4-5.491,7.582,5.3-3.064,6.3-3.823S78.4,40.083,80.37,38.5s1.674-4.7,1.674-4.7" transform="translate(0.274 53.295)" fill="#48a347"/>
        <path id="Path_10" data-name="Path 10" d="M82.044,33.8A64.327,64.327,0,0,0,65.33,26.134a114.368,114.368,0,0,1-14.5-4.968S38.622,9.473,35.646,7.039,27.35.507,25.755.151,20.01-.5,17.519,6.372s-2.289,6.724-3.9,7.938-2.795,4.92-3.081,5.761-2.611,1.973-4.176,2.842S-2.21,31.89.7,37.809s7.224,10.776,8.636,14.08,6.621,21.533,15.556,22.9,18.011.13,23.423-2.4S64.2,63.2,67.1,60.386,80.443,39.379,82.525,38.743s-2.13-3.386-2.13-3.386L62.54,56.026s-4.054,7.745-8.905,10.162-15,7.9-21.451,5.59-12.362-7.519-14.6-13.012-3.1-7.338-3.1-7.338L5.727,38.382S2.6,29.819,9.015,26.533s9.2-6.636,9.2-6.636L20.775,13.9,19.759,5.929s2.192-4.465,7.31-.216A88.694,88.694,0,0,1,37.094,15.935S47.478,26.2,50.941,27.639s-11.486-7.244-14.663-9.527-6.312-4.91-6.312-4.91L43.715,27.166s9.921,8.114,17.907,8.325-22.192-1.653-25.759-5.2S55.584,41.613,63.18,40.558s-21.463,7.16-21.463,7.16L25.983,52.737,69.388,43.36,55.729,53.679s-4.675,5.4-5.491,7.582,5.3-3.064,6.3-3.823S78.4,40.083,80.37,38.5,82.044,33.8,82.044,33.8Z" transform="translate(0.274 53.295)" fill="#48a347"/>
        <path id="Path_11" data-name="Path 11" d="M0,76.755,9.718,18.147V0" transform="translate(81.131 88.883)" fill="#48a347"/>
        <path id="Path_12" data-name="Path 12" d="M0,76.755,9.718,18.147V0" transform="translate(81.131 88.883)" fill="#48a347"/>
      </g>
    </g>
    <g id="Group_376" data-name="Group 376" transform="translate(-13005.48 -19056.012) rotate(-17)" opacity="0.7">
      <g id="Group_1" data-name="Group 1" clip-path="url(#clip-path-3)">
        <path id="Path_1" data-name="Path 1" d="M79.971,25.538s10.313-14.082,17.652-9.123S100,30.5,100,30.5,91.475,44.579,88.1,46.76s24.792-23.6,31.734-13.09S105.16,51.719,105.16,51.719L91.078,58.66s18.445-2.579,27.172-.992,14.677,6.148,12.892,8.925-1.19,7.14-17.85,5.554a180.006,180.006,0,0,1-26.974-4.364s19.635,8.528,25.982,15.074,9.719,13.289,4.959,13.884S101,93.965,94.053,88.609a91.608,91.608,0,0,1-12.694-12.3L92.467,95.948s6.148,11.305,1.388,14.28-11.305,0-11.305,0S76,102.493,75.013,98.923s-3.372-15.074-3.372-15.074V98.923s-1.19,13.553-5.95,12.628-7.735-5.091-7.735-13.421a73.29,73.29,0,0,1,1.587-15.074l-12.5,15.47s-22.61,29.949-27.966,20.429A19.163,19.163,0,0,1,18.09,101.3S29,81.866,37.527,78.891c0,0-18.049,5.554-25.189,4.959S-1.347,79.143.24,74.356s2.578-5.977,12.5-7.96,31.139-3.57,31.139-3.57l9.322.2S22.652,47.355,20.074,45.57,1.826,32.282,5.4,27.521s6.942-7.537,16.859-2.578S48.039,42.4,48.039,42.4l-7.934-14.28S30.784,6.1,36.337,2.134,47.642-.246,52.006,6.7s8.33,21.42,8.33,21.42L65.73,55.09,63.311,27.323S62.915.944,72.038,1.341s7.933,24.2,7.933,24.2" transform="translate(0.142 0.142)" fill="#48a347"/>
        <path id="Path_2" data-name="Path 2" d="M79.971,25.538s10.313-14.082,17.652-9.123S100,30.5,100,30.5,91.475,44.579,88.1,46.76s24.792-23.6,31.734-13.09S105.16,51.719,105.16,51.719L91.078,58.66s18.445-2.579,27.172-.992,14.677,6.148,12.892,8.925-1.19,7.14-17.85,5.554a180.006,180.006,0,0,1-26.974-4.364s19.635,8.528,25.982,15.074,9.719,13.289,4.959,13.884S101,93.965,94.053,88.609a91.608,91.608,0,0,1-12.694-12.3L92.467,95.948s6.148,11.305,1.388,14.28-11.305,0-11.305,0S76,102.493,75.013,98.923s-3.372-15.074-3.372-15.074V98.923s-1.19,13.553-5.95,12.628-7.735-5.091-7.735-13.421a73.29,73.29,0,0,1,1.587-15.074l-12.5,15.47s-22.61,29.949-27.966,20.429A19.163,19.163,0,0,1,18.09,101.3S29,81.866,37.527,78.891c0,0-18.049,5.554-25.189,4.959S-1.347,79.143.24,74.356s2.578-5.977,12.5-7.96,31.139-3.57,31.139-3.57l9.322.2S22.652,47.355,20.074,45.57,1.826,32.282,5.4,27.521s6.942-7.537,16.859-2.578S48.039,42.4,48.039,42.4l-7.934-14.28S30.784,6.1,36.337,2.134,47.642-.246,52.006,6.7s8.33,21.42,8.33,21.42L65.73,55.09,63.311,27.323S62.915.944,72.038,1.341,79.971,25.538,79.971,25.538Z" transform="translate(0.142 0.142)" fill="#48a347"/>
      </g>
    </g>
    <g id="Group_377" data-name="Group 377" transform="translate(-13092.563 -18980.096) rotate(-70)" opacity="0.7">
      <g id="Group_1-2" data-name="Group 1" clip-path="url(#clip-path-4)">
        <path id="Path_1-2" data-name="Path 1" d="M79.972,25.538s10.313-14.082,17.652-9.123S100,30.5,100,30.5,91.475,44.578,88.1,46.76s24.792-23.6,31.734-13.09-14.677,18.049-14.677,18.049L91.079,58.66s18.445-2.579,27.172-.992,14.677,6.148,12.892,8.925-1.19,7.14-17.85,5.554a180.007,180.007,0,0,1-26.974-4.364s19.636,8.528,25.982,15.074,9.719,13.289,4.959,13.884S101,93.964,94.054,88.609a91.608,91.608,0,0,1-12.694-12.3L92.467,95.948s6.149,11.305,1.388,14.28-11.305,0-11.305,0S76,102.493,75.013,98.923s-3.372-15.074-3.372-15.074V98.923s-1.19,13.553-5.95,12.628-7.735-5.091-7.735-13.421a73.29,73.29,0,0,1,1.587-15.074l-12.5,15.47s-22.611,29.949-27.966,20.429A19.162,19.162,0,0,1,18.09,101.3S29,81.866,37.527,78.891c0,0-18.049,5.554-25.189,4.959S-1.347,79.143.24,74.356s2.578-5.977,12.5-7.96,31.139-3.57,31.139-3.57l9.322.2S22.652,47.355,20.074,45.57,1.826,32.281,5.4,27.521s6.942-7.537,16.859-2.578S48.039,42.4,48.039,42.4l-7.934-14.28S30.784,6.1,36.337,2.134,47.642-.246,52.006,6.7s8.33,21.42,8.33,21.42L65.73,55.09,63.311,27.323S62.915.944,72.038,1.341s7.933,24.2,7.933,24.2" transform="translate(0.142 0.142)" fill="#fec471"/>
        <path id="Path_2-2" data-name="Path 2" d="M79.972,25.538s10.313-14.082,17.652-9.123S100,30.5,100,30.5,91.475,44.578,88.1,46.76s24.792-23.6,31.734-13.09-14.677,18.049-14.677,18.049L91.079,58.66s18.445-2.579,27.172-.992,14.677,6.148,12.892,8.925-1.19,7.14-17.85,5.554a180.007,180.007,0,0,1-26.974-4.364s19.636,8.528,25.982,15.074,9.719,13.289,4.959,13.884S101,93.964,94.054,88.609a91.608,91.608,0,0,1-12.694-12.3L92.467,95.948s6.149,11.305,1.388,14.28-11.305,0-11.305,0S76,102.493,75.013,98.923s-3.372-15.074-3.372-15.074V98.923s-1.19,13.553-5.95,12.628-7.735-5.091-7.735-13.421a73.29,73.29,0,0,1,1.587-15.074l-12.5,15.47s-22.611,29.949-27.966,20.429A19.162,19.162,0,0,1,18.09,101.3S29,81.866,37.527,78.891c0,0-18.049,5.554-25.189,4.959S-1.347,79.143.24,74.356s2.578-5.977,12.5-7.96,31.139-3.57,31.139-3.57l9.322.2S22.652,47.355,20.074,45.57,1.826,32.281,5.4,27.521s6.942-7.537,16.859-2.578S48.039,42.4,48.039,42.4l-7.934-14.28S30.784,6.1,36.337,2.134,47.642-.246,52.006,6.7s8.33,21.42,8.33,21.42L65.73,55.09,63.311,27.323S62.915.944,72.038,1.341,79.972,25.538,79.972,25.538Z" transform="translate(0.142 0.142)" fill="#fec471"/>
      </g>
    </g>
    <ellipse id="Ellipse_946" data-name="Ellipse 946" cx="3.914" cy="3.914" rx="3.914" ry="3.914" transform="translate(-12894.297 -19055.877) rotate(40)" fill="rgba(241,93,85,0.5)"/>
    <ellipse id="Ellipse_944" data-name="Ellipse 944" cx="454.67" cy="303.113" rx="454.67" ry="303.113" transform="translate(-13056.758 -19416.682) rotate(16)" fill="rgba(72,163,71,0.15)"/>
    <g id="Group_374" data-name="Group 374" transform="translate(-12887.296 -19084.357)">
      <g id="Group_45" data-name="Group 45" clip-path="url(#clip-path-5)">
        <path id="Path_19" data-name="Path 19" d="M235.008,356.446a3.924,3.924,0,0,1-.428-.319,4.54,4.54,0,0,1-.825-.9,2.83,2.83,0,0,1-.077-3.225,12.686,12.686,0,0,0,.944-3.9c.242-1.791.419-3.93.546-5.986s.205-4.032.251-5.492.061-2.408.061-2.408-.209-1.448-.541-3.665-.786-5.206-1.275-8.281-1.014-6.245-1.486-8.814a40.031,40.031,0,0,0-1.169-5.224c-.278-.683-.649-1.586-1.124-2.562a21.031,21.031,0,0,0-1.75-3,10.877,10.877,0,0,0-2.44-2.54,6.031,6.031,0,0,0-3.194-1.186,43.62,43.62,0,0,0-5.656.266c-2.433.228-5.27.574-8.084.982s-5.609.875-7.948,1.343a33.916,33.916,0,0,0-5.232,1.349c-1,.411-2.152,1.026-3.586,1.648a26.229,26.229,0,0,1-5.3,1.689,31.877,31.877,0,0,1-7.865.543,56.738,56.738,0,0,1-11.3-1.794,89.592,89.592,0,0,0-14.584-2.211c-5.095-.4-10.221-.514-14.795-.486s-8.6.2-11.483.36-4.617.318-4.617.318-1.108-.407-2.772-1.068-3.887-1.576-6.114-2.59a54.915,54.915,0,0,1-6.144-3.187c-1.683-1.059-2.814-2.061-2.834-2.851s2.563-1.159,6.717-1.312,9.862-.09,16.106-.015,12.994.159,19.262.05a122.454,122.454,0,0,0,16.3-1.105c4.266-.7,8.854-1.38,13.468-1.931s9.243-.968,13.61-1.132a73.308,73.308,0,0,1,11.991.39,21.953,21.953,0,0,1,8.63,2.63,45.94,45.94,0,0,0,6.329,3.283,53.9,53.9,0,0,0,5.639,2.038c1.664.5,3.062.833,4.045,1.042s1.549.293,1.549.293-.154-.96-.452-2.515-.74-3.707-1.317-6.088-1.288-5-2.124-7.476a37.057,37.057,0,0,0-2.873-6.663,27.443,27.443,0,0,1-2.2-4.874,16.34,16.34,0,0,0-1.45-3.42,3.876,3.876,0,0,0-2.687-1.721,17.907,17.907,0,0,0-5.914.221c-2.732.424-5.678.958-8.836,1.4a83.907,83.907,0,0,1-10.12.874,59.149,59.149,0,0,1-11.41-.846,58.52,58.52,0,0,1-12.715-3.768,114.523,114.523,0,0,0-16.717-5.165c-6.391-1.546-13.284-2.892-19.752-3.972s-12.536-1.9-17.224-2.384-8.017-.638-9.024-.392a6.327,6.327,0,0,1-3.4-.319,18.63,18.63,0,0,1-3.658-1.751,34.818,34.818,0,0,1-3.152-2.162c-.881-.675-1.55-1.247-1.879-1.546a4.672,4.672,0,0,0-.957-.677,3.961,3.961,0,0,0-.823-.326,3.221,3.221,0,0,0-.577-.1,1.682,1.682,0,0,0-.217-.006,32.084,32.084,0,0,1,3.349-1.754,58.388,58.388,0,0,1,9.425-3.38,66.2,66.2,0,0,1,14.544-2.185,70.371,70.371,0,0,1,18.676,1.812c6.793,1.576,12.8,3.119,17.976,4.547s9.526,2.736,13.033,3.85,6.162,2.029,7.944,2.667,2.689,1,2.689,1,.991.074,2.514.194,3.573.285,5.7.466,4.311.379,6.112.564,3.214.357,3.783.489,1.228.312,1.92.526,1.419.462,2.121.727,1.382.547,1.981.831a10.448,10.448,0,0,1,1.5.838,10.983,10.983,0,0,0,2.586.956c1.235.351,2.739.717,4.193,1.05s2.86.631,3.9.846,1.72.348,1.72.348-.93-1.607-2.363-4.052-3.376-5.736-5.4-9.093-4.124-6.794-5.874-9.517a36.172,36.172,0,0,0-3.759-5.259,22.463,22.463,0,0,0-2.73-1.984,23.3,23.3,0,0,0-4.46-2.145,22.872,22.872,0,0,0-6.083-1.266,25.2,25.2,0,0,0-7.6.659,52.373,52.373,0,0,1-7.839,1.23,54.853,54.853,0,0,1-6.437.142c-1.837-.068-3.328-.219-4.359-.352s-1.6-.25-1.6-.25l-56.257-8.082s-1.362-.661-3.424-1.679-4.829-2.4-7.632-3.823-5.65-2.912-7.862-4.137a20,20,0,0,1-4.071-2.6,1.019,1.019,0,0,1-.18-1.049,1.521,1.521,0,0,1,.958-.674,6.04,6.04,0,0,1,1.858-.224,13.016,13.016,0,0,1,2.52.3,22.08,22.08,0,0,0,5.52-.267c2.548-.322,5.6-.825,8.53-1.352s5.744-1.078,7.824-1.5,3.427-.706,3.427-.706,3.624.515,9.228,1.383,13.154,2.084,21.045,3.491c7.871,1.4,16.069,2.994,22.98,4.615,6.9,1.617,12.516,3.265,15.266,4.788l10.969,6.076a1.893,1.893,0,0,0,.011-.454,5.593,5.593,0,0,0-.295-1.375,12.088,12.088,0,0,0-1.092-2.32,24.408,24.408,0,0,0-2.383-3.289c-1.065-1.261-2.578-3.123-4.25-5.206s-3.506-4.395-5.206-6.548-3.272-4.154-4.417-5.614-1.865-2.383-1.865-2.383a25.263,25.263,0,0,0-1.575-2.007,33.991,33.991,0,0,0-4.4-4.284,24.738,24.738,0,0,0-6.725-3.95,16.971,16.971,0,0,0-8.553-.987c-3.1.458-7.559,1.278-12.673,2.232s-10.9,2.045-16.624,3.041-11.418,1.9-16.338,2.481a58.493,58.493,0,0,1-11.762.539,64.133,64.133,0,0,1-7.553-1.35c-2.368-.554-4.594-1.165-6.706-1.689a46.2,46.2,0,0,0-6.023-1.172,16.736,16.736,0,0,0-5.5.206c-1.766.394-3.825.86-5.872,1.276s-4.083.781-5.8.974a10.128,10.128,0,0,1-3.888-.067c-.773-.278-.919-.852-.132-1.846s1.763-2.5,3.126-4.212a31.433,31.433,0,0,1,5.44-5.41,30.343,30.343,0,0,1,8.921-4.705,43.568,43.568,0,0,1,13.544-2.1c5.4-.053,12.475.354,20.03,1,7.538.639,15.556,1.51,22.886,2.386,7.314.874,13.947,1.753,18.747,2.412s7.763,1.1,7.763,1.1l8.378,2.217-6.62-10.611a11.988,11.988,0,0,0-1-1.489,19.849,19.849,0,0,0-3.236-3.3,21.557,21.557,0,0,0-5.81-3.352,25.316,25.316,0,0,0-8.729-1.641c-3.436-.065-8.825-.336-15.092-.756s-13.439-.991-20.4-1.651-13.744-1.414-19.212-2.2-9.645-1.6-11.4-2.381a26.159,26.159,0,0,0-5.3-1.683,34.482,34.482,0,0,0-4.827-.647c-1.437-.093-2.655-.087-3.514-.059s-1.358.08-1.358.08-.537-.25-1.38-.65-1.993-.95-3.219-1.549-2.53-1.25-3.677-1.849-2.142-1.149-2.748-1.546a12.654,12.654,0,0,0-3.081-1.183c-1.349-.382-2.922-.742-4.419-1.052s-2.92-.571-3.968-.754-1.722-.289-1.722-.289a37.825,37.825,0,0,1,3.626-2.1,61.044,61.044,0,0,1,9.877-4.041,58.675,58.675,0,0,1,14.606-2.616,52.934,52.934,0,0,1,17.788,2.157c6.279,1.881,12.652,3.661,18.674,5.272s11.673,3.049,16.549,4.254,8.954,2.173,11.822,2.841,4.516,1.035,4.516,1.035l14.482,4.66-8.406-10.2s-2.224-1.531-5.77-3.915-8.434-5.636-13.741-9.062-11.067-7.049-16.326-10.156a121.807,121.807,0,0,0-13.4-7.108c-3.355-1.395-6.512-2.833-9.361-4.207s-5.395-2.685-7.519-3.821-3.83-2.1-5-2.777-1.816-1.072-1.816-1.072-1.073-.684-2.786-1.784-4.071-2.62-6.638-4.289-5.348-3.492-7.9-5.195S33.12,85.8,31.455,84.61a67.874,67.874,0,0,1-6.334-5.477c-2.429-2.3-5.044-4.93-7.454-7.408s-4.618-4.816-6.221-6.531-2.6-2.811-2.6-2.811.8.21,2.038.553,2.929.819,4.715,1.351,3.666,1.118,5.3,1.683a26.234,26.234,0,0,1,3.8,1.555c.787.446,2.99,1.488,5.891,2.83s6.488,2.978,10.056,4.62,7.1,3.282,9.908,4.635a48.462,48.462,0,0,1,5.505,2.9c.632.486,1.883,1.545,3.4,2.86s3.306,2.883,5.014,4.39S67.8,92.712,69,93.78s1.97,1.757,1.97,1.757l11.549,7.554,34.773,22.952,8.945,8.807,5.156,5.655L116.954,98.462s-.26-1.489-.681-3.819-1-5.508-1.641-8.879-1.341-6.945-2-10.058-1.275-5.775-1.748-7.318-.9-3.272-1.282-4.995-.708-3.443-.978-4.969-.481-2.861-.624-3.814-.219-1.523-.219-1.523.687.829,1.739,2.145,2.467,3.115,3.925,5.059,2.957,4.027,4.181,5.915a22.158,22.158,0,0,1,2.521,4.733,51.811,51.811,0,0,0,2.751,6.123c1.366,2.736,3.066,5.978,4.759,9.166s3.373,6.312,4.708,8.829,2.321,4.419,2.623,5.159.975,2.507,1.809,4.775,1.828,5.033,2.777,7.775,1.849,5.455,2.5,7.626a18.043,18.043,0,0,1,.983,4.359c-.062.564-.036,2.246.026,4.511s.161,5.109.246,8,.155,5.829.162,8.284a38.489,38.489,0,0,1-.224,5.382,10.112,10.112,0,0,0,.774,4.349,46.215,46.215,0,0,0,2.595,5.947,50.286,50.286,0,0,0,3.276,5.531,11.2,11.2,0,0,0,2.828,3.119c.743.417,1.856,1.1,3.108,1.9s2.64,1.7,3.936,2.546,2.5,1.646,3.374,2.231,1.431.956,1.431.956l-4.674-15.46s-.657-2.365-1.5-6.152-1.871-9.012-2.608-14.712a98.149,98.149,0,0,1-.867-17.622c.321-5.726,1.414-10.972,3.757-14.769s4.822-7.474,7.242-10.764a95.288,95.288,0,0,1,6.894-8.451,21.883,21.883,0,0,1,5.386-4.556c1.415-.694,2.385-.476,2.718.916a20.766,20.766,0,0,1,.119,5.922c-.2,2.41-.6,5.111-1.037,7.669s-.916,4.969-1.287,6.805-.632,3.094-.635,3.342-.33,2.456-.818,5.624-1.136,7.291-1.783,11.382-1.293,8.139-1.776,11.168-.806,5.033-.806,5.033.047.477.136,1.242.222,1.818.394,2.97.383,2.4.631,3.567a20.112,20.112,0,0,0,.846,3.035,26.709,26.709,0,0,1,.988,4.806c.328,2.28.64,5.112.891,8.124s.442,6.2.527,9.193.066,5.795-.1,8.035-.31,4.246-.391,6.055-.1,3.421-.028,4.871a19.781,19.781,0,0,0,.539,3.9,10.91,10.91,0,0,0,1.31,3.13c.588.938,1.231,2,1.89,3.064s1.333,2.134,1.982,3.09a22.226,22.226,0,0,0,1.834,2.411A2.777,2.777,0,0,0,185.8,211.4c.391.034.645-1.652.824-4.335s.284-6.366.375-10.319.169-8.187.3-11.956.3-7.086.586-9.2.632-6.138,1.208-11.079,1.384-10.817,2.587-16.616a76.407,76.407,0,0,1,4.974-16.2c2.168-4.663,4.9-8.246,8.353-9.744s7.052-3.141,10.509-4.69,6.771-3,9.66-4.114a31.907,31.907,0,0,1,7.1-2.08c1.75-.193,2.789.195,2.834,1.406s-.706,3.018-1.855,5.069a76.128,76.128,0,0,1-4.247,6.523c-1.55,2.181-3.1,4.25-4.266,5.854a11.987,11.987,0,0,0-1.915,3.063,23.971,23.971,0,0,1-.564,3.743,74.146,74.146,0,0,1-2.154,8.052,77.367,77.367,0,0,1-4.282,10.479,63.616,63.616,0,0,1-6.95,11.043A59.115,59.115,0,0,0,202.543,176a38.053,38.053,0,0,0-2.925,7.427,23.459,23.459,0,0,0-.809,4.747,9.945,9.945,0,0,0,.017,1.671s-.134.506-.369,1.331-.569,1.968-.968,3.243-.864,2.68-1.359,4.03a38.213,38.213,0,0,1-1.542,3.695,36.546,36.546,0,0,0-1.572,3.717,37.728,37.728,0,0,0-1.3,4.348,21.541,21.541,0,0,0-.587,4.236,7.707,7.707,0,0,0,.554,3.383,16.072,16.072,0,0,0,1.66,2.707,30.771,30.771,0,0,0,2.158,2.571c.755.813,1.522,1.572,2.229,2.245s1.356,1.259,1.875,1.729a37.4,37.4,0,0,1,3.422,5.049c1.623,2.638,3.59,5.977,5.491,9.252s3.728,6.478,5.083,8.867,2.234,3.956,2.234,3.956l2.357,3.887s-.008-.785.012-2.042.07-2.989.184-4.88.295-3.945.577-5.844a22.416,22.416,0,0,1,1.191-4.925,34.38,34.38,0,0,0,1.442-6.962c.428-3.151.792-6.919,1.063-10.66s.447-7.462.5-10.5a36.621,36.621,0,0,0-.254-6.457,19.939,19.939,0,0,1,.583-6.378,87.188,87.188,0,0,1,2.954-10.756,85.017,85.017,0,0,1,5.055-11.933,41.8,41.8,0,0,1,6.879-9.88,64.078,64.078,0,0,0,6.7-8.048,78.986,78.986,0,0,0,4.747-7.607c1.26-2.3,2.2-4.27,2.825-5.669s.935-2.224.935-2.224a11.033,11.033,0,0,1,1.018,1.365,18.44,18.44,0,0,1,1.922,3.948,20.441,20.441,0,0,1,1.13,6.3,24.728,24.728,0,0,1-1.351,8.44c-1.05,3.144-2.666,7.19-4.5,11.487s-3.878,8.842-5.792,12.994-3.7,7.906-5,10.624-2.127,4.4-2.127,4.4-.2,2.593-.542,6.517-.816,9.165-1.364,14.476-1.166,10.675-1.792,14.862-1.258,7.188-1.835,7.771a19.63,19.63,0,0,0-2.318,3.314c-.914,1.535-1.915,3.408-2.842,5.344a55.338,55.338,0,0,0-2.389,5.723,14.411,14.411,0,0,0-.964,4.455,38.118,38.118,0,0,0,1.087,6c.632,2.7,1.465,5.887,2.294,8.936s1.653,5.952,2.27,8.1,1.027,3.525,1.027,3.525.486-1.251,1.331-3.244,2.048-4.73,3.481-7.7,3.1-6.175,4.864-9.1a40.948,40.948,0,0,1,5.472-7.433,74.5,74.5,0,0,1,5.6-5.081c1.845-1.517,3.614-2.842,5.154-3.936s2.849-1.954,3.774-2.542,1.464-.9,1.464-.9-.313,1.355-.839,3.463-1.264,4.968-2.115,7.981-1.813,6.175-2.788,8.893a27.68,27.68,0,0,1-2.864,6.221c-.9,1.232-2.666,3.255-4.805,5.6s-4.654,5-7.056,7.508-4.691,4.859-6.38,6.584-2.777,2.825-2.777,2.825.4,1.535.993,3.912,1.38,5.587,2.153,8.944,1.534,6.852,2.077,9.807a32.876,32.876,0,0,1,.778,6.548,49.644,49.644,0,0,0,.06,5.216c.1,2.165.239,4.63.321,7.018a63.318,63.318,0,0,1-.037,6.55c-.14,1.854-.443,3.256-1.012,3.83s-1.063,1.085-1.485,1.528-.772.82-1.051,1.124-.487.537-.625.693-.207.237-.207.237" transform="translate(0.78 0.627)" fill="#f79c8b"/>
        <path id="Path_20" data-name="Path 20" d="M235.008,356.446a3.924,3.924,0,0,1-.428-.319,4.54,4.54,0,0,1-.825-.9,2.83,2.83,0,0,1-.077-3.225,12.686,12.686,0,0,0,.944-3.9c.242-1.791.419-3.93.546-5.986s.205-4.032.251-5.492.061-2.408.061-2.408-.209-1.448-.541-3.665-.786-5.206-1.275-8.281-1.014-6.245-1.486-8.814a40.031,40.031,0,0,0-1.169-5.224c-.278-.683-.649-1.586-1.124-2.562a21.031,21.031,0,0,0-1.75-3,10.877,10.877,0,0,0-2.44-2.54,6.031,6.031,0,0,0-3.194-1.186,43.62,43.62,0,0,0-5.656.266c-2.433.228-5.27.574-8.084.982s-5.609.875-7.948,1.343a33.916,33.916,0,0,0-5.232,1.349c-1,.411-2.152,1.026-3.586,1.648a26.229,26.229,0,0,1-5.3,1.689,31.877,31.877,0,0,1-7.865.543,56.738,56.738,0,0,1-11.3-1.794,89.592,89.592,0,0,0-14.584-2.211c-5.095-.4-10.221-.514-14.795-.486s-8.6.2-11.483.36-4.617.318-4.617.318-1.108-.407-2.772-1.068-3.887-1.576-6.114-2.59a54.915,54.915,0,0,1-6.144-3.187c-1.683-1.059-2.814-2.061-2.834-2.851s2.563-1.159,6.717-1.312,9.862-.09,16.106-.015,12.994.159,19.262.05a122.454,122.454,0,0,0,16.3-1.105c4.266-.7,8.854-1.38,13.468-1.931s9.243-.968,13.61-1.132a73.308,73.308,0,0,1,11.991.39,21.953,21.953,0,0,1,8.63,2.63,45.94,45.94,0,0,0,6.329,3.283,53.9,53.9,0,0,0,5.639,2.038c1.664.5,3.062.833,4.045,1.042s1.549.293,1.549.293-.154-.96-.452-2.515-.74-3.707-1.317-6.088-1.288-5-2.124-7.476a37.057,37.057,0,0,0-2.873-6.663,27.443,27.443,0,0,1-2.2-4.874,16.34,16.34,0,0,0-1.45-3.42,3.876,3.876,0,0,0-2.687-1.721,17.907,17.907,0,0,0-5.914.221c-2.732.424-5.678.958-8.836,1.4a83.907,83.907,0,0,1-10.12.874,59.149,59.149,0,0,1-11.41-.846,58.52,58.52,0,0,1-12.715-3.768,114.523,114.523,0,0,0-16.717-5.165c-6.391-1.546-13.284-2.892-19.752-3.972s-12.536-1.9-17.224-2.384-8.017-.638-9.024-.392a6.327,6.327,0,0,1-3.4-.319,18.63,18.63,0,0,1-3.658-1.751,34.818,34.818,0,0,1-3.152-2.162c-.881-.675-1.55-1.247-1.879-1.546a4.672,4.672,0,0,0-.957-.677,3.961,3.961,0,0,0-.823-.326,3.221,3.221,0,0,0-.577-.1,1.682,1.682,0,0,0-.217-.006,32.084,32.084,0,0,1,3.349-1.754,58.388,58.388,0,0,1,9.425-3.38,66.2,66.2,0,0,1,14.544-2.185,70.371,70.371,0,0,1,18.676,1.812c6.793,1.576,12.8,3.119,17.976,4.547s9.526,2.736,13.033,3.85,6.162,2.029,7.944,2.667,2.689,1,2.689,1,.991.074,2.514.194,3.573.285,5.7.466,4.311.379,6.112.564,3.214.357,3.783.489,1.228.312,1.92.526,1.419.462,2.121.727,1.382.547,1.981.831a10.448,10.448,0,0,1,1.5.838,10.983,10.983,0,0,0,2.586.956c1.235.351,2.739.717,4.193,1.05s2.86.631,3.9.846,1.72.348,1.72.348-.93-1.607-2.363-4.052-3.376-5.736-5.4-9.093-4.124-6.794-5.874-9.517a36.172,36.172,0,0,0-3.759-5.259,22.463,22.463,0,0,0-2.73-1.984,23.3,23.3,0,0,0-4.46-2.145,22.872,22.872,0,0,0-6.083-1.266,25.2,25.2,0,0,0-7.6.659,52.373,52.373,0,0,1-7.839,1.23,54.853,54.853,0,0,1-6.437.142c-1.837-.068-3.328-.219-4.359-.352s-1.6-.25-1.6-.25l-56.257-8.082s-1.362-.661-3.424-1.679-4.829-2.4-7.632-3.823-5.65-2.912-7.862-4.137a20,20,0,0,1-4.071-2.6,1.019,1.019,0,0,1-.18-1.049,1.521,1.521,0,0,1,.958-.674,6.04,6.04,0,0,1,1.858-.224,13.016,13.016,0,0,1,2.52.3,22.08,22.08,0,0,0,5.52-.267c2.548-.322,5.6-.825,8.53-1.352s5.744-1.078,7.824-1.5,3.427-.706,3.427-.706,3.624.515,9.228,1.383,13.154,2.084,21.045,3.491c7.871,1.4,16.069,2.994,22.98,4.615,6.9,1.617,12.516,3.265,15.266,4.788l10.969,6.076a1.893,1.893,0,0,0,.011-.454,5.593,5.593,0,0,0-.295-1.375,12.088,12.088,0,0,0-1.092-2.32,24.408,24.408,0,0,0-2.383-3.289c-1.065-1.261-2.578-3.123-4.25-5.206s-3.506-4.395-5.206-6.548-3.272-4.154-4.417-5.614-1.865-2.383-1.865-2.383a25.263,25.263,0,0,0-1.575-2.007,33.991,33.991,0,0,0-4.4-4.284,24.738,24.738,0,0,0-6.725-3.95,16.971,16.971,0,0,0-8.553-.987c-3.1.458-7.559,1.278-12.673,2.232s-10.9,2.045-16.624,3.041-11.418,1.9-16.338,2.481a58.493,58.493,0,0,1-11.762.539,64.133,64.133,0,0,1-7.553-1.35c-2.368-.554-4.594-1.165-6.706-1.689a46.2,46.2,0,0,0-6.023-1.172,16.736,16.736,0,0,0-5.5.206c-1.766.394-3.825.86-5.872,1.276s-4.083.781-5.8.974a10.128,10.128,0,0,1-3.888-.067c-.773-.278-.919-.852-.132-1.846s1.763-2.5,3.126-4.212a31.433,31.433,0,0,1,5.44-5.41,30.343,30.343,0,0,1,8.921-4.705,43.568,43.568,0,0,1,13.544-2.1c5.4-.053,12.475.354,20.03,1,7.538.639,15.556,1.51,22.886,2.386,7.314.874,13.947,1.753,18.747,2.412s7.763,1.1,7.763,1.1l8.378,2.217-6.62-10.611a11.988,11.988,0,0,0-1-1.489,19.849,19.849,0,0,0-3.236-3.3,21.557,21.557,0,0,0-5.81-3.352,25.316,25.316,0,0,0-8.729-1.641c-3.436-.065-8.825-.336-15.092-.756s-13.439-.991-20.4-1.651-13.744-1.414-19.212-2.2-9.645-1.6-11.4-2.381a26.159,26.159,0,0,0-5.3-1.683,34.482,34.482,0,0,0-4.827-.647c-1.437-.093-2.655-.087-3.514-.059s-1.358.08-1.358.08-.537-.25-1.38-.65-1.993-.95-3.219-1.549-2.53-1.25-3.677-1.849-2.142-1.149-2.748-1.546a12.654,12.654,0,0,0-3.081-1.183c-1.349-.382-2.922-.742-4.419-1.052s-2.92-.571-3.968-.754-1.722-.289-1.722-.289a37.825,37.825,0,0,1,3.626-2.1,61.044,61.044,0,0,1,9.877-4.041,58.675,58.675,0,0,1,14.606-2.616,52.934,52.934,0,0,1,17.788,2.157c6.279,1.881,12.652,3.661,18.674,5.272s11.673,3.049,16.549,4.254,8.954,2.173,11.822,2.841,4.516,1.035,4.516,1.035l14.482,4.66-8.406-10.2s-2.224-1.531-5.77-3.915-8.434-5.636-13.741-9.062-11.067-7.049-16.326-10.156a121.807,121.807,0,0,0-13.4-7.108c-3.355-1.395-6.512-2.833-9.361-4.207s-5.395-2.685-7.519-3.821-3.83-2.1-5-2.777-1.816-1.072-1.816-1.072-1.073-.684-2.786-1.784-4.071-2.62-6.638-4.289-5.348-3.492-7.9-5.195S33.12,85.8,31.455,84.61a67.874,67.874,0,0,1-6.334-5.477c-2.429-2.3-5.044-4.93-7.454-7.408s-4.618-4.816-6.221-6.531-2.6-2.811-2.6-2.811.8.21,2.038.553,2.929.819,4.715,1.351,3.666,1.118,5.3,1.683a26.234,26.234,0,0,1,3.8,1.555c.787.446,2.99,1.488,5.891,2.83s6.488,2.978,10.056,4.62,7.1,3.282,9.908,4.635a48.462,48.462,0,0,1,5.505,2.9c.632.486,1.883,1.545,3.4,2.86s3.306,2.883,5.014,4.39S67.8,92.712,69,93.78s1.97,1.757,1.97,1.757l11.549,7.554,34.773,22.952,8.945,8.807,5.156,5.655L116.954,98.462s-.26-1.489-.681-3.819-1-5.508-1.641-8.879-1.341-6.945-2-10.058-1.275-5.775-1.748-7.318-.9-3.272-1.282-4.995-.708-3.443-.978-4.969-.481-2.861-.624-3.814-.219-1.523-.219-1.523.687.829,1.739,2.145,2.467,3.115,3.925,5.059,2.957,4.027,4.181,5.915a22.158,22.158,0,0,1,2.521,4.733,51.811,51.811,0,0,0,2.751,6.123c1.366,2.736,3.066,5.978,4.759,9.166s3.373,6.312,4.708,8.829,2.321,4.419,2.623,5.159.975,2.507,1.809,4.775,1.828,5.033,2.777,7.775,1.849,5.455,2.5,7.626a18.043,18.043,0,0,1,.983,4.359c-.062.564-.036,2.246.026,4.511s.161,5.109.246,8,.155,5.829.162,8.284a38.489,38.489,0,0,1-.224,5.382,10.112,10.112,0,0,0,.774,4.349,46.215,46.215,0,0,0,2.595,5.947,50.286,50.286,0,0,0,3.276,5.531,11.2,11.2,0,0,0,2.828,3.119c.743.417,1.856,1.1,3.108,1.9s2.64,1.7,3.936,2.546,2.5,1.646,3.374,2.231,1.431.956,1.431.956l-4.674-15.46s-.657-2.365-1.5-6.152-1.871-9.012-2.608-14.712a98.149,98.149,0,0,1-.867-17.622c.321-5.726,1.414-10.972,3.757-14.769s4.822-7.474,7.242-10.764a95.288,95.288,0,0,1,6.894-8.451,21.883,21.883,0,0,1,5.386-4.556c1.415-.694,2.385-.476,2.718.916a20.766,20.766,0,0,1,.119,5.922c-.2,2.41-.6,5.111-1.037,7.669s-.916,4.969-1.287,6.805-.632,3.094-.635,3.342-.33,2.456-.818,5.624-1.136,7.291-1.783,11.382-1.293,8.139-1.776,11.168-.806,5.033-.806,5.033.047.477.136,1.242.222,1.818.394,2.97.383,2.4.631,3.567a20.112,20.112,0,0,0,.846,3.035,26.709,26.709,0,0,1,.988,4.806c.328,2.28.64,5.112.891,8.124s.442,6.2.527,9.193.066,5.795-.1,8.035-.31,4.246-.391,6.055-.1,3.421-.028,4.871a19.781,19.781,0,0,0,.539,3.9,10.91,10.91,0,0,0,1.31,3.13c.588.938,1.231,2,1.89,3.064s1.333,2.134,1.982,3.09a22.226,22.226,0,0,0,1.834,2.411A2.777,2.777,0,0,0,185.8,211.4c.391.034.645-1.652.824-4.335s.284-6.366.375-10.319.169-8.187.3-11.956.3-7.086.586-9.2.632-6.138,1.208-11.079,1.384-10.817,2.587-16.616a76.407,76.407,0,0,1,4.974-16.2c2.168-4.663,4.9-8.246,8.353-9.744s7.052-3.141,10.509-4.69,6.771-3,9.66-4.114a31.907,31.907,0,0,1,7.1-2.08c1.75-.193,2.789.195,2.834,1.406s-.706,3.018-1.855,5.069a76.128,76.128,0,0,1-4.247,6.523c-1.55,2.181-3.1,4.25-4.266,5.854a11.987,11.987,0,0,0-1.915,3.063,23.971,23.971,0,0,1-.564,3.743,74.146,74.146,0,0,1-2.154,8.052,77.367,77.367,0,0,1-4.282,10.479,63.616,63.616,0,0,1-6.95,11.043A59.115,59.115,0,0,0,202.543,176a38.053,38.053,0,0,0-2.925,7.427,23.459,23.459,0,0,0-.809,4.747,9.945,9.945,0,0,0,.017,1.671s-.134.506-.369,1.331-.569,1.968-.968,3.243-.864,2.68-1.359,4.03a38.213,38.213,0,0,1-1.542,3.695,36.546,36.546,0,0,0-1.572,3.717,37.728,37.728,0,0,0-1.3,4.348,21.541,21.541,0,0,0-.587,4.236,7.707,7.707,0,0,0,.554,3.383,16.072,16.072,0,0,0,1.66,2.707,30.771,30.771,0,0,0,2.158,2.571c.755.813,1.522,1.572,2.229,2.245s1.356,1.259,1.875,1.729a37.4,37.4,0,0,1,3.422,5.049c1.623,2.638,3.59,5.977,5.491,9.252s3.728,6.478,5.083,8.867,2.234,3.956,2.234,3.956l2.357,3.887s-.008-.785.012-2.042.07-2.989.184-4.88.295-3.945.577-5.844a22.416,22.416,0,0,1,1.191-4.925,34.38,34.38,0,0,0,1.442-6.962c.428-3.151.792-6.919,1.063-10.66s.447-7.462.5-10.5a36.621,36.621,0,0,0-.254-6.457,19.939,19.939,0,0,1,.583-6.378,87.188,87.188,0,0,1,2.954-10.756,85.017,85.017,0,0,1,5.055-11.933,41.8,41.8,0,0,1,6.879-9.88,64.078,64.078,0,0,0,6.7-8.048,78.986,78.986,0,0,0,4.747-7.607c1.26-2.3,2.2-4.27,2.825-5.669s.935-2.224.935-2.224a11.033,11.033,0,0,1,1.018,1.365,18.44,18.44,0,0,1,1.922,3.948,20.441,20.441,0,0,1,1.13,6.3,24.728,24.728,0,0,1-1.351,8.44c-1.05,3.144-2.666,7.19-4.5,11.487s-3.878,8.842-5.792,12.994-3.7,7.906-5,10.624-2.127,4.4-2.127,4.4-.2,2.593-.542,6.517-.816,9.165-1.364,14.476-1.166,10.675-1.792,14.862-1.258,7.188-1.835,7.771a19.63,19.63,0,0,0-2.318,3.314c-.914,1.535-1.915,3.408-2.842,5.344a55.338,55.338,0,0,0-2.389,5.723,14.411,14.411,0,0,0-.964,4.455,38.118,38.118,0,0,0,1.087,6c.632,2.7,1.465,5.887,2.294,8.936s1.653,5.952,2.27,8.1,1.027,3.525,1.027,3.525.486-1.251,1.331-3.244,2.048-4.73,3.481-7.7,3.1-6.175,4.864-9.1a40.948,40.948,0,0,1,5.472-7.433,74.5,74.5,0,0,1,5.6-5.081c1.845-1.517,3.614-2.842,5.154-3.936s2.849-1.954,3.774-2.542,1.464-.9,1.464-.9-.313,1.355-.839,3.463-1.264,4.968-2.115,7.981-1.813,6.175-2.788,8.893a27.68,27.68,0,0,1-2.864,6.221c-.9,1.232-2.666,3.255-4.805,5.6s-4.654,5-7.056,7.508-4.691,4.859-6.38,6.584-2.777,2.825-2.777,2.825.4,1.535.993,3.912,1.38,5.587,2.153,8.944,1.534,6.852,2.077,9.807a32.876,32.876,0,0,1,.778,6.548,49.644,49.644,0,0,0,.06,5.216c.1,2.165.239,4.63.321,7.018a63.318,63.318,0,0,1-.037,6.55c-.14,1.854-.443,3.256-1.012,3.83s-1.063,1.085-1.485,1.528-.772.82-1.051,1.124-.487.537-.625.693S235.008,356.446,235.008,356.446Z" transform="translate(0.78 0.627)" fill="#f79c8b"/>
      </g>
    </g>
    <g id="Group_375" data-name="Group 375" transform="translate(-12815.932 -19113.729)">
      <g id="Group_45-2" data-name="Group 45" clip-path="url(#clip-path-6)">
        <path id="Path_19-2" data-name="Path 19" d="M231.577,187.842a2.548,2.548,0,0,1-.354-.012,2.92,2.92,0,0,1-.787-.184,1.944,1.944,0,0,1-.81-.578,2.025,2.025,0,0,1-.42-1.192,8.6,8.6,0,0,0-.916-2.542c-.526-1.093-1.215-2.354-1.9-3.549s-1.37-2.327-1.882-3.159-.852-1.365-.852-1.365-.648-.726-1.645-1.833-2.345-2.6-3.744-4.118-2.85-3.083-4.052-4.33a25.954,25.954,0,0,0-2.558-2.453c-.4-.272-.938-.631-1.557-.99a13.428,13.428,0,0,0-2.06-.989,6.945,6.945,0,0,0-2.27-.468,3.956,3.956,0,0,0-2.187.576,29.656,29.656,0,0,0-3.006,2.333c-1.251,1.066-2.68,2.354-4.074,3.666s-2.754,2.649-3.865,3.812a23.408,23.408,0,0,0-2.374,2.766c-.4.615-.8,1.4-1.362,2.3a18.151,18.151,0,0,1-2.285,2.979,21.631,21.631,0,0,1-4.106,3.329,37.616,37.616,0,0,1-6.832,3.35,59.3,59.3,0,0,0-8.766,4.375c-2.925,1.733-5.76,3.637-8.243,5.407s-4.614,3.407-6.123,4.6-2.4,1.945-2.4,1.945-.75.2-1.894.469-2.684.614-4.261.9a34.988,34.988,0,0,1-4.49.583c-1.3.057-2.272-.067-2.569-.5s.973-1.622,3.174-3.3,5.326-3.824,8.748-6.175,7.129-4.894,10.5-7.359a82.8,82.8,0,0,0,8.484-6.872c2.075-2.026,4.331-4.17,6.65-6.251s4.7-4.1,7.025-5.868a49.334,49.334,0,0,1,6.7-4.406,14.415,14.415,0,0,1,5.686-1.871,29.743,29.743,0,0,0,4.669-.622,35.333,35.333,0,0,0,3.838-1.047c1.1-.366,1.985-.721,2.6-.985s.958-.436.958-.436-.436-.474-1.169-1.222-1.763-1.772-2.95-2.87-2.534-2.275-3.9-3.326a23.639,23.639,0,0,0-4.009-2.583,17.479,17.479,0,0,1-2.982-1.852,10.409,10.409,0,0,0-2.042-1.334,2.491,2.491,0,0,0-2.1.085,12.148,12.148,0,0,0-3.154,2.406c-1.339,1.29-2.755,2.722-4.319,4.188a57.13,57.13,0,0,1-5.209,4.387,39.579,39.579,0,0,1-6.533,3.928,38.227,38.227,0,0,1-8.3,2.809,74.512,74.512,0,0,0-10.966,3.57c-4.032,1.6-8.261,3.5-12.161,5.386s-7.481,3.756-10.2,5.284a28.779,28.779,0,0,0-5.026,3.238,4.177,4.177,0,0,1-1.956,1.126,11.832,11.832,0,0,1-2.608.432,21.852,21.852,0,0,1-2.48.012c-.719-.036-1.286-.1-1.57-.135a2.929,2.929,0,0,0-.76-.008,2.528,2.528,0,0,0-.562.135,2.1,2.1,0,0,0-.348.164,1.116,1.116,0,0,0-.119.08,22.323,22.323,0,0,1,1.18-2.248,40.282,40.282,0,0,1,3.879-5.469A44.927,44.927,0,0,1,122.7,167.2a46.576,46.576,0,0,1,10.768-6.163c4.252-1.738,8.067-3.192,11.4-4.395s6.166-2.152,8.476-2.886,4.088-1.251,5.289-1.584,1.826-.484,1.826-.484.567-.341,1.44-.861,2.05-1.219,3.272-1.937,2.487-1.452,3.537-2.045,1.883-1.042,2.241-1.189.783-.3,1.239-.45.942-.292,1.422-.417.953-.231,1.383-.305a6.709,6.709,0,0,1,1.125-.116,7.153,7.153,0,0,0,1.76-.469c.8-.283,1.757-.661,2.673-1.038s1.793-.755,2.441-1.039,1.067-.472,1.067-.472-1.094-.53-2.768-1.328-3.932-1.867-6.256-2.943-4.72-2.161-6.662-2.989a22.747,22.747,0,0,0-3.957-1.452,14.257,14.257,0,0,0-2.206-.041,15,15,0,0,0-6.974,2.185,17.128,17.128,0,0,0-3.892,3.292,35.807,35.807,0,0,1-3.815,3.7,36.976,36.976,0,0,1-3.445,2.556c-1.022.669-1.886,1.16-2.494,1.483s-.96.479-.96.479l-33.35,17.133s-.972.157-2.449.386-3.462.53-5.484.816-4.085.559-5.714.73a12.49,12.49,0,0,1-3.12.126.654.654,0,0,1-.471-.508,1.06,1.06,0,0,1,.275-.737,4.076,4.076,0,0,1,.92-.833,8.529,8.529,0,0,1,1.464-.8,14.766,14.766,0,0,0,2.877-2.257c1.257-1.152,2.72-2.595,4.111-4.007s2.71-2.791,3.681-3.819,1.595-1.7,1.595-1.7,2.139-1.106,5.474-2.777,7.853-3.9,12.625-6.157,9.777-4.529,14.107-6.3,7.969-3.022,10.013-3.243l8.159-.881a1.241,1.241,0,0,0-.158-.254,3.577,3.577,0,0,0-.658-.644,7.607,7.607,0,0,0-1.434-.857,15.284,15.284,0,0,0-2.485-.893c-1.035-.284-2.53-.726-4.19-1.229s-3.49-1.068-5.19-1.6-3.273-1.024-4.421-1.386-1.87-.592-1.87-.592a15.731,15.731,0,0,0-1.576-.5,21.21,21.21,0,0,0-3.923-.661,15.666,15.666,0,0,0-5.06.419,11.235,11.235,0,0,0-4.979,2.749c-1.51,1.444-3.625,3.608-6.044,6.1s-5.148,5.307-7.88,8.051-5.474,5.421-7.917,7.625a39.173,39.173,0,0,1-6.139,4.8,41.733,41.733,0,0,1-4.544,2.148c-1.471.6-2.885,1.117-4.206,1.636a29.948,29.948,0,0,0-3.652,1.658,11.164,11.164,0,0,0-2.88,2.214c-.807.89-1.746,1.932-2.7,2.941s-1.912,1.986-2.764,2.746a6.683,6.683,0,0,1-2.108,1.446c-.513.142-.8-.117-.727-.962s.055-2.045.178-3.5a21.983,21.983,0,0,1,.992-5.041,21.112,21.112,0,0,1,3.109-5.985,29.5,29.5,0,0,1,6.52-6.325c2.882-2.1,6.826-4.579,11.115-7.121s8.91-5.135,13.173-7.467,8.149-4.4,10.976-5.878,4.588-2.382,4.588-2.382l5.326-2.007-7.389-3.275a7.428,7.428,0,0,0-1.076-.431,12.314,12.314,0,0,0-2.93-.564,13.6,13.6,0,0,0-4.335.4,16.569,16.569,0,0,0-5.292,2.456c-1.874,1.285-4.873,3.206-8.4,5.381s-7.58,4.612-11.553,6.917-7.879,4.488-11.089,6.151a36.3,36.3,0,0,1-6.95,3.053,16.668,16.668,0,0,0-3.433,1.1,22.465,22.465,0,0,0-2.811,1.489c-.8.5-1.451.966-1.9,1.309s-.7.562-.7.562-.375.068-.968.171-1.4.241-2.269.381-1.794.282-2.619.392-1.55.189-2.014.2a7.964,7.964,0,0,0-2.063.528c-.855.306-1.821.708-2.729,1.109s-1.759.8-2.383,1.1-1.02.5-1.02.5a26.369,26.369,0,0,1,1.193-2.526,42.2,42.2,0,0,1,3.839-5.971,39.76,39.76,0,0,1,6.871-7,34.575,34.575,0,0,1,10.273-5.619c4.028-1.374,8.073-2.841,11.873-4.266s7.347-2.806,10.394-4.017,5.586-2.247,7.366-2.982,2.8-1.168,2.8-1.168l9.463-3.014L95.8,110.721s-1.743.017-4.5.076-6.542.158-10.611.323-8.442.4-12.362.716a76.157,76.157,0,0,0-9.688,1.254c-2.287.524-4.483.948-6.49,1.289s-3.829.6-5.364.794-2.784.321-3.649.4-1.347.11-1.347.11-.813.038-2.114.093-3.093.129-5.048.2-4.076.142-6.034.191-3.755.076-5.06.062a41.151,41.151,0,0,1-5.288-.561c-2.1-.325-4.407-.755-6.554-1.182s-4.135-.855-5.585-1.174-2.363-.533-2.363-.533.495-.189,1.272-.476,1.838-.672,2.97-1.064,2.334-.791,3.4-1.106a16.36,16.36,0,0,1,2.56-.605c.574-.058,2.108-.333,4.118-.711s4.491-.859,6.963-1.329,4.93-.93,6.9-1.266a30.044,30.044,0,0,1,3.952-.527c.508.023,1.547.12,2.82.254s2.779.3,4.221.471,2.818.331,3.835.453l1.672.2,8.839-.308,26.778-.816,7.947,1.376,4.793,1.11-22.736-17.4s-.669-.711-1.722-1.819-2.492-2.615-4.032-4.2-3.182-3.264-4.638-4.7S60.919,77.658,60.119,77s-1.641-1.431-2.454-2.221-1.6-1.6-2.281-2.323-1.269-1.369-1.682-1.83-.656-.742-.656-.742.66.186,1.687.5,2.419.743,3.887,1.238,3.007,1.051,4.33,1.606a13.523,13.523,0,0,1,3.026,1.6A31.759,31.759,0,0,0,69.619,77.1c1.7.963,3.765,2.073,5.8,3.157s4.053,2.14,5.664,3,2.818,1.515,3.244,1.8,1.416.992,2.673,1.908S89.781,89,91.269,90.136s2.941,2.266,4.065,3.2a11.351,11.351,0,0,1,2.086,2c.168.332.783,1.241,1.626,2.455s1.913,2.731,2.994,4.281,2.169,3.129,3.051,4.47a25.039,25.039,0,0,1,1.806,3.033,6.424,6.424,0,0,0,1.975,2.084,28.772,28.772,0,0,0,3.531,2.26,31.171,31.171,0,0,0,3.753,1.772,6.953,6.953,0,0,0,2.647.622c.551-.057,1.4-.11,2.361-.156s2.037-.086,3.043-.119,1.942-.058,2.627-.075,1.118-.026,1.118-.026l-8.085-6.681s-1.2-1.043-3.018-2.795-4.242-4.215-6.683-7.051a62.964,62.964,0,0,1-6.776-9.3c-1.875-3.252-3.162-6.537-3.258-9.513s-.076-5.937.05-8.665a66.286,66.286,0,0,1,.69-7.268,15.353,15.353,0,0,1,1.27-4.563c.513-.925,1.113-1.181,1.79-.552a13.282,13.282,0,0,1,2.182,3.181c.753,1.392,1.506,3.018,2.186,4.582s1.285,3.065,1.743,4.21.767,1.933.855,2.07.7,1.468,1.574,3.387,2,4.422,3.118,6.908,2.222,4.95,3.048,6.794,1.372,3.066,1.372,3.066.2.243.519.627.773.91,1.28,1.474,1.071,1.169,1.622,1.71a12.647,12.647,0,0,0,1.548,1.336,16.9,16.9,0,0,1,2.262,2.253c1,1.123,2.185,2.556,3.405,4.111s2.47,3.231,3.6,4.842,2.124,3.157,2.84,4.452,1.363,2.453,1.971,3.479,1.179,1.92,1.742,2.689a12.682,12.682,0,0,0,1.7,1.935,6.859,6.859,0,0,0,1.841,1.217c.658.29,1.39.626,2.133.958s1.495.661,2.193.937a13.9,13.9,0,0,0,1.868.62,1.764,1.764,0,0,0,1.158.009c.225-.132-.247-1.159-1.12-2.705s-2.147-3.614-3.526-5.824-2.865-4.567-4.157-6.688-2.393-4.009-3-5.28-1.871-3.613-3.339-6.547-3.147-6.466-4.583-10.109a51.2,51.2,0,0,1-3.137-10.792c-.5-3.389-.316-6.4,1.014-8.56s2.685-4.448,4-6.634,2.585-4.264,3.748-5.993a22.221,22.221,0,0,1,3.1-3.891c.879-.785,1.582-.976,2.042-.332a7.724,7.724,0,0,1,.822,3.49c.117,1.566.1,3.42.05,5.215s-.15,3.529-.2,4.857a8.236,8.236,0,0,0,.067,2.419,15.734,15.734,0,0,1,1.044,2.268,49.413,49.413,0,0,1,1.737,5.245,52.375,52.375,0,0,1,1.46,7.4,43.847,43.847,0,0,1,.216,8.748,40.818,40.818,0,0,0,.068,7.778,25.778,25.778,0,0,0,1.1,5.211,15.532,15.532,0,0,0,1.276,2.922,6.446,6.446,0,0,0,.613.912s.11.33.281.874.4,1.3.647,2.157.5,1.808.719,2.742a26,26,0,0,1,.5,2.629,24.867,24.867,0,0,0,.49,2.654,25.4,25.4,0,0,0,.869,2.9,14.262,14.262,0,0,0,1.214,2.56,4.946,4.946,0,0,0,1.526,1.651,10.089,10.089,0,0,0,1.884.851,19.322,19.322,0,0,0,2.107.585c.706.157,1.4.28,2.028.377s1.2.171,1.648.23a23.514,23.514,0,0,1,3.7,1.465c1.843.83,4.129,1.913,6.356,2.988s4.392,2.14,6,2.937,2.662,1.325,2.662,1.325l2.706,1.24s-.291-.431-.738-1.135-1.051-1.68-1.677-2.771-1.276-2.3-1.813-3.454a15.046,15.046,0,0,1-1.142-3.182,22.992,22.992,0,0,0-1.746-4.4c-.913-1.905-2.084-4.126-3.3-6.295s-2.468-4.288-3.545-5.985a23.755,23.755,0,0,0-2.483-3.46,13.1,13.1,0,0,1-2-3.738,58.427,58.427,0,0,1-2.293-7.063A57.748,57.748,0,0,1,164,89.667a28.923,28.923,0,0,1,.164-8.095,44.6,44.6,0,0,0,.732-7.019,54.376,54.376,0,0,0-.173-6.017c-.146-1.749-.35-3.2-.517-4.205s-.3-1.582-.3-1.582a6.892,6.892,0,0,1,1.049.353,11.527,11.527,0,0,1,2.477,1.417,12.991,12.991,0,0,1,2.9,3.019,16.289,16.289,0,0,1,2.327,5.157c.569,2.135,1.157,4.984,1.719,8.057s1.1,6.366,1.561,9.393.857,5.784,1.134,7.786.438,3.247.438,3.247.832,1.507,2.074,3.8,2.889,5.369,4.523,8.512,3.251,6.345,4.435,8.9,1.933,4.46,1.829,5.006a13.618,13.618,0,0,0-.06,2.73c.06,1.2.195,2.626.394,4.056a37.746,37.746,0,0,0,.78,4.092,9.657,9.657,0,0,0,1.1,2.84,24.651,24.651,0,0,0,2.788,2.906c1.332,1.251,2.954,2.7,4.523,4.066s3.083,2.662,4.207,3.613,1.854,1.559,1.854,1.559-.191-.883-.457-2.315-.607-3.417-.907-5.619-.559-4.623-.661-6.929a28.447,28.447,0,0,1,.283-6.238c.329-1.741.758-3.431,1.215-4.986s.943-2.975,1.388-4.178.848-2.187,1.141-2.871.473-1.068.473-1.068.324.871.807,2.243,1.125,3.241,1.761,5.24,1.266,4.125,1.727,6.009a18.954,18.954,0,0,1,.707,4.56c-.044,1.033-.272,2.839-.589,4.967s-.724,4.578-1.125,6.9-.8,4.513-1.092,6.125-.49,2.643-.49,2.643.782.7,1.98,1.789,2.807,2.572,4.465,4.14,3.36,3.22,4.745,4.654a21.559,21.559,0,0,1,2.835,3.346,32.835,32.835,0,0,0,1.951,2.883c.85,1.169,1.836,2.488,2.759,3.788a42.048,42.048,0,0,1,2.392,3.668,4.684,4.684,0,0,1,.853,2.529q-.153.81-.257,1.427c-.07.411-.124.756-.166,1.034s-.071.488-.089.629-.027.212-.027.212" transform="translate(0.551 0.352)" fill="#f79c8b"/>
        <path id="Path_20-2" data-name="Path 20" d="M231.577,187.842a2.548,2.548,0,0,1-.354-.012,2.92,2.92,0,0,1-.787-.184,1.944,1.944,0,0,1-.81-.578,2.025,2.025,0,0,1-.42-1.192,8.6,8.6,0,0,0-.916-2.542c-.526-1.093-1.215-2.354-1.9-3.549s-1.37-2.327-1.882-3.159-.852-1.365-.852-1.365-.648-.726-1.645-1.833-2.345-2.6-3.744-4.118-2.85-3.083-4.052-4.33a25.954,25.954,0,0,0-2.558-2.453c-.4-.272-.938-.631-1.557-.99a13.428,13.428,0,0,0-2.06-.989,6.945,6.945,0,0,0-2.27-.468,3.956,3.956,0,0,0-2.187.576,29.656,29.656,0,0,0-3.006,2.333c-1.251,1.066-2.68,2.354-4.074,3.666s-2.754,2.649-3.865,3.812a23.408,23.408,0,0,0-2.374,2.766c-.4.615-.8,1.4-1.362,2.3a18.151,18.151,0,0,1-2.285,2.979,21.631,21.631,0,0,1-4.106,3.329,37.616,37.616,0,0,1-6.832,3.35,59.3,59.3,0,0,0-8.766,4.375c-2.925,1.733-5.76,3.637-8.243,5.407s-4.614,3.407-6.123,4.6-2.4,1.945-2.4,1.945-.75.2-1.894.469-2.684.614-4.261.9a34.988,34.988,0,0,1-4.49.583c-1.3.057-2.272-.067-2.569-.5s.973-1.622,3.174-3.3,5.326-3.824,8.748-6.175,7.129-4.894,10.5-7.359a82.8,82.8,0,0,0,8.484-6.872c2.075-2.026,4.331-4.17,6.65-6.251s4.7-4.1,7.025-5.868a49.334,49.334,0,0,1,6.7-4.406,14.415,14.415,0,0,1,5.686-1.871,29.743,29.743,0,0,0,4.669-.622,35.333,35.333,0,0,0,3.838-1.047c1.1-.366,1.985-.721,2.6-.985s.958-.436.958-.436-.436-.474-1.169-1.222-1.763-1.772-2.95-2.87-2.534-2.275-3.9-3.326a23.639,23.639,0,0,0-4.009-2.583,17.479,17.479,0,0,1-2.982-1.852,10.409,10.409,0,0,0-2.042-1.334,2.491,2.491,0,0,0-2.1.085,12.148,12.148,0,0,0-3.154,2.406c-1.339,1.29-2.755,2.722-4.319,4.188a57.13,57.13,0,0,1-5.209,4.387,39.579,39.579,0,0,1-6.533,3.928,38.227,38.227,0,0,1-8.3,2.809,74.512,74.512,0,0,0-10.966,3.57c-4.032,1.6-8.261,3.5-12.161,5.386s-7.481,3.756-10.2,5.284a28.779,28.779,0,0,0-5.026,3.238,4.177,4.177,0,0,1-1.956,1.126,11.832,11.832,0,0,1-2.608.432,21.852,21.852,0,0,1-2.48.012c-.719-.036-1.286-.1-1.57-.135a2.929,2.929,0,0,0-.76-.008,2.528,2.528,0,0,0-.562.135,2.1,2.1,0,0,0-.348.164,1.116,1.116,0,0,0-.119.08,22.323,22.323,0,0,1,1.18-2.248,40.282,40.282,0,0,1,3.879-5.469A44.927,44.927,0,0,1,122.7,167.2a46.576,46.576,0,0,1,10.768-6.163c4.252-1.738,8.067-3.192,11.4-4.395s6.166-2.152,8.476-2.886,4.088-1.251,5.289-1.584,1.826-.484,1.826-.484.567-.341,1.44-.861,2.05-1.219,3.272-1.937,2.487-1.452,3.537-2.045,1.883-1.042,2.241-1.189.783-.3,1.239-.45.942-.292,1.422-.417.953-.231,1.383-.305a6.709,6.709,0,0,1,1.125-.116,7.153,7.153,0,0,0,1.76-.469c.8-.283,1.757-.661,2.673-1.038s1.793-.755,2.441-1.039,1.067-.472,1.067-.472-1.094-.53-2.768-1.328-3.932-1.867-6.256-2.943-4.72-2.161-6.662-2.989a22.747,22.747,0,0,0-3.957-1.452,14.257,14.257,0,0,0-2.206-.041,15,15,0,0,0-6.974,2.185,17.128,17.128,0,0,0-3.892,3.292,35.807,35.807,0,0,1-3.815,3.7,36.976,36.976,0,0,1-3.445,2.556c-1.022.669-1.886,1.16-2.494,1.483s-.96.479-.96.479l-33.35,17.133s-.972.157-2.449.386-3.462.53-5.484.816-4.085.559-5.714.73a12.49,12.49,0,0,1-3.12.126.654.654,0,0,1-.471-.508,1.06,1.06,0,0,1,.275-.737,4.076,4.076,0,0,1,.92-.833,8.529,8.529,0,0,1,1.464-.8,14.766,14.766,0,0,0,2.877-2.257c1.257-1.152,2.72-2.595,4.111-4.007s2.71-2.791,3.681-3.819,1.595-1.7,1.595-1.7,2.139-1.106,5.474-2.777,7.853-3.9,12.625-6.157,9.777-4.529,14.107-6.3,7.969-3.022,10.013-3.243l8.159-.881a1.241,1.241,0,0,0-.158-.254,3.577,3.577,0,0,0-.658-.644,7.607,7.607,0,0,0-1.434-.857,15.284,15.284,0,0,0-2.485-.893c-1.035-.284-2.53-.726-4.19-1.229s-3.49-1.068-5.19-1.6-3.273-1.024-4.421-1.386-1.87-.592-1.87-.592a15.731,15.731,0,0,0-1.576-.5,21.21,21.21,0,0,0-3.923-.661,15.666,15.666,0,0,0-5.06.419,11.235,11.235,0,0,0-4.979,2.749c-1.51,1.444-3.625,3.608-6.044,6.1s-5.148,5.307-7.88,8.051-5.474,5.421-7.917,7.625a39.173,39.173,0,0,1-6.139,4.8,41.733,41.733,0,0,1-4.544,2.148c-1.471.6-2.885,1.117-4.206,1.636a29.948,29.948,0,0,0-3.652,1.658,11.164,11.164,0,0,0-2.88,2.214c-.807.89-1.746,1.932-2.7,2.941s-1.912,1.986-2.764,2.746a6.683,6.683,0,0,1-2.108,1.446c-.513.142-.8-.117-.727-.962s.055-2.045.178-3.5a21.983,21.983,0,0,1,.992-5.041,21.112,21.112,0,0,1,3.109-5.985,29.5,29.5,0,0,1,6.52-6.325c2.882-2.1,6.826-4.579,11.115-7.121s8.91-5.135,13.173-7.467,8.149-4.4,10.976-5.878,4.588-2.382,4.588-2.382l5.326-2.007-7.389-3.275a7.428,7.428,0,0,0-1.076-.431,12.314,12.314,0,0,0-2.93-.564,13.6,13.6,0,0,0-4.335.4,16.569,16.569,0,0,0-5.292,2.456c-1.874,1.285-4.873,3.206-8.4,5.381s-7.58,4.612-11.553,6.917-7.879,4.488-11.089,6.151a36.3,36.3,0,0,1-6.95,3.053,16.668,16.668,0,0,0-3.433,1.1,22.465,22.465,0,0,0-2.811,1.489c-.8.5-1.451.966-1.9,1.309s-.7.562-.7.562-.375.068-.968.171-1.4.241-2.269.381-1.794.282-2.619.392-1.55.189-2.014.2a7.964,7.964,0,0,0-2.063.528c-.855.306-1.821.708-2.729,1.109s-1.759.8-2.383,1.1-1.02.5-1.02.5a26.369,26.369,0,0,1,1.193-2.526,42.2,42.2,0,0,1,3.839-5.971,39.76,39.76,0,0,1,6.871-7,34.575,34.575,0,0,1,10.273-5.619c4.028-1.374,8.073-2.841,11.873-4.266s7.347-2.806,10.394-4.017,5.586-2.247,7.366-2.982,2.8-1.168,2.8-1.168l9.463-3.014L95.8,110.721s-1.743.017-4.5.076-6.542.158-10.611.323-8.442.4-12.362.716a76.157,76.157,0,0,0-9.688,1.254c-2.287.524-4.483.948-6.49,1.289s-3.829.6-5.364.794-2.784.321-3.649.4-1.347.11-1.347.11-.813.038-2.114.093-3.093.129-5.048.2-4.076.142-6.034.191-3.755.076-5.06.062a41.151,41.151,0,0,1-5.288-.561c-2.1-.325-4.407-.755-6.554-1.182s-4.135-.855-5.585-1.174-2.363-.533-2.363-.533.495-.189,1.272-.476,1.838-.672,2.97-1.064,2.334-.791,3.4-1.106a16.36,16.36,0,0,1,2.56-.605c.574-.058,2.108-.333,4.118-.711s4.491-.859,6.963-1.329,4.93-.93,6.9-1.266a30.044,30.044,0,0,1,3.952-.527c.508.023,1.547.12,2.82.254s2.779.3,4.221.471,2.818.331,3.835.453l1.672.2,8.839-.308,26.778-.816,7.947,1.376,4.793,1.11-22.736-17.4s-.669-.711-1.722-1.819-2.492-2.615-4.032-4.2-3.182-3.264-4.638-4.7S60.919,77.658,60.119,77s-1.641-1.431-2.454-2.221-1.6-1.6-2.281-2.323-1.269-1.369-1.682-1.83-.656-.742-.656-.742.66.186,1.687.5,2.419.743,3.887,1.238,3.007,1.051,4.33,1.606a13.523,13.523,0,0,1,3.026,1.6A31.759,31.759,0,0,0,69.619,77.1c1.7.963,3.765,2.073,5.8,3.157s4.053,2.14,5.664,3,2.818,1.515,3.244,1.8,1.416.992,2.673,1.908S89.781,89,91.269,90.136s2.941,2.266,4.065,3.2a11.351,11.351,0,0,1,2.086,2c.168.332.783,1.241,1.626,2.455s1.913,2.731,2.994,4.281,2.169,3.129,3.051,4.47a25.039,25.039,0,0,1,1.806,3.033,6.424,6.424,0,0,0,1.975,2.084,28.772,28.772,0,0,0,3.531,2.26,31.171,31.171,0,0,0,3.753,1.772,6.953,6.953,0,0,0,2.647.622c.551-.057,1.4-.11,2.361-.156s2.037-.086,3.043-.119,1.942-.058,2.627-.075,1.118-.026,1.118-.026l-8.085-6.681s-1.2-1.043-3.018-2.795-4.242-4.215-6.683-7.051a62.964,62.964,0,0,1-6.776-9.3c-1.875-3.252-3.162-6.537-3.258-9.513s-.076-5.937.05-8.665a66.286,66.286,0,0,1,.69-7.268,15.353,15.353,0,0,1,1.27-4.563c.513-.925,1.113-1.181,1.79-.552a13.282,13.282,0,0,1,2.182,3.181c.753,1.392,1.506,3.018,2.186,4.582s1.285,3.065,1.743,4.21.767,1.933.855,2.07.7,1.468,1.574,3.387,2,4.422,3.118,6.908,2.222,4.95,3.048,6.794,1.372,3.066,1.372,3.066.2.243.519.627.773.91,1.28,1.474,1.071,1.169,1.622,1.71a12.647,12.647,0,0,0,1.548,1.336,16.9,16.9,0,0,1,2.262,2.253c1,1.123,2.185,2.556,3.405,4.111s2.47,3.231,3.6,4.842,2.124,3.157,2.84,4.452,1.363,2.453,1.971,3.479,1.179,1.92,1.742,2.689a12.682,12.682,0,0,0,1.7,1.935,6.859,6.859,0,0,0,1.841,1.217c.658.29,1.39.626,2.133.958s1.495.661,2.193.937a13.9,13.9,0,0,0,1.868.62,1.764,1.764,0,0,0,1.158.009c.225-.132-.247-1.159-1.12-2.705s-2.147-3.614-3.526-5.824-2.865-4.567-4.157-6.688-2.393-4.009-3-5.28-1.871-3.613-3.339-6.547-3.147-6.466-4.583-10.109a51.2,51.2,0,0,1-3.137-10.792c-.5-3.389-.316-6.4,1.014-8.56s2.685-4.448,4-6.634,2.585-4.264,3.748-5.993a22.221,22.221,0,0,1,3.1-3.891c.879-.785,1.582-.976,2.042-.332a7.724,7.724,0,0,1,.822,3.49c.117,1.566.1,3.42.05,5.215s-.15,3.529-.2,4.857a8.236,8.236,0,0,0,.067,2.419,15.734,15.734,0,0,1,1.044,2.268,49.413,49.413,0,0,1,1.737,5.245,52.375,52.375,0,0,1,1.46,7.4,43.847,43.847,0,0,1,.216,8.748,40.818,40.818,0,0,0,.068,7.778,25.778,25.778,0,0,0,1.1,5.211,15.532,15.532,0,0,0,1.276,2.922,6.446,6.446,0,0,0,.613.912s.11.33.281.874.4,1.3.647,2.157.5,1.808.719,2.742a26,26,0,0,1,.5,2.629,24.867,24.867,0,0,0,.49,2.654,25.4,25.4,0,0,0,.869,2.9,14.262,14.262,0,0,0,1.214,2.56,4.946,4.946,0,0,0,1.526,1.651,10.089,10.089,0,0,0,1.884.851,19.322,19.322,0,0,0,2.107.585c.706.157,1.4.28,2.028.377s1.2.171,1.648.23a23.514,23.514,0,0,1,3.7,1.465c1.843.83,4.129,1.913,6.356,2.988s4.392,2.14,6,2.937,2.662,1.325,2.662,1.325l2.706,1.24s-.291-.431-.738-1.135-1.051-1.68-1.677-2.771-1.276-2.3-1.813-3.454a15.046,15.046,0,0,1-1.142-3.182,22.992,22.992,0,0,0-1.746-4.4c-.913-1.905-2.084-4.126-3.3-6.295s-2.468-4.288-3.545-5.985a23.755,23.755,0,0,0-2.483-3.46,13.1,13.1,0,0,1-2-3.738,58.427,58.427,0,0,1-2.293-7.063A57.748,57.748,0,0,1,164,89.667a28.923,28.923,0,0,1,.164-8.095,44.6,44.6,0,0,0,.732-7.019,54.376,54.376,0,0,0-.173-6.017c-.146-1.749-.35-3.2-.517-4.205s-.3-1.582-.3-1.582a6.892,6.892,0,0,1,1.049.353,11.527,11.527,0,0,1,2.477,1.417,12.991,12.991,0,0,1,2.9,3.019,16.289,16.289,0,0,1,2.327,5.157c.569,2.135,1.157,4.984,1.719,8.057s1.1,6.366,1.561,9.393.857,5.784,1.134,7.786.438,3.247.438,3.247.832,1.507,2.074,3.8,2.889,5.369,4.523,8.512,3.251,6.345,4.435,8.9,1.933,4.46,1.829,5.006a13.618,13.618,0,0,0-.06,2.73c.06,1.2.195,2.626.394,4.056a37.746,37.746,0,0,0,.78,4.092,9.657,9.657,0,0,0,1.1,2.84,24.651,24.651,0,0,0,2.788,2.906c1.332,1.251,2.954,2.7,4.523,4.066s3.083,2.662,4.207,3.613,1.854,1.559,1.854,1.559-.191-.883-.457-2.315-.607-3.417-.907-5.619-.559-4.623-.661-6.929a28.447,28.447,0,0,1,.283-6.238c.329-1.741.758-3.431,1.215-4.986s.943-2.975,1.388-4.178.848-2.187,1.141-2.871.473-1.068.473-1.068.324.871.807,2.243,1.125,3.241,1.761,5.24,1.266,4.125,1.727,6.009a18.954,18.954,0,0,1,.707,4.56c-.044,1.033-.272,2.839-.589,4.967s-.724,4.578-1.125,6.9-.8,4.513-1.092,6.125-.49,2.643-.49,2.643.782.7,1.98,1.789,2.807,2.572,4.465,4.14,3.36,3.22,4.745,4.654a21.559,21.559,0,0,1,2.835,3.346,32.835,32.835,0,0,0,1.951,2.883c.85,1.169,1.836,2.488,2.759,3.788a42.048,42.048,0,0,1,2.392,3.668,4.684,4.684,0,0,1,.853,2.529q-.153.81-.257,1.427c-.07.411-.124.756-.166,1.034s-.071.488-.089.629S231.577,187.842,231.577,187.842Z" transform="translate(0.551 0.352)" fill="#f79c8b"/>
      </g>
    </g>
  </g>
</svg>
