<svg xmlns="http://www.w3.org/2000/svg" xmlns:xlink="http://www.w3.org/1999/xlink" width="1920" height="1036" viewBox="0 0 1920 1036">
  <defs>
    <clipPath id="clip-path">
      <rect id="Rectangle_184" data-name="Rectangle 184" width="1920" height="1036" transform="translate(12236 -4800)" fill="#fff" stroke="#707070" stroke-width="1"/>
    </clipPath>
    <clipPath id="clip-path-2">
      <rect id="Rectangle_95" data-name="Rectangle 95" width="432.513" height="379.295" fill="#48a347"/>
    </clipPath>
    <clipPath id="clip-path-3">
      <rect id="Rectangle_4" data-name="Rectangle 4" width="301.604" height="277.255" fill="#fec471"/>
    </clipPath>
    <clipPath id="clip-path-4">
      <rect id="Rectangle_4-2" data-name="Rectangle 4" width="301.604" height="277.256" fill="#48a347"/>
    </clipPath>
    <clipPath id="clip-path-5">
      <path id="Rectangle_106" data-name="Rectangle 106" d="M482.86,889.06,876.076,536.348,323.949,0,0,331.547Z" fill="#f79c8b"/>
    </clipPath>
    <clipPath id="clip-path-6">
      <path id="Rectangle_106-2" data-name="Rectangle 106" d="M475.132,442.938l76.983-339.307L56.816,0,0,313.7Z" fill="#f79c8b"/>
    </clipPath>
  </defs>
  <g id="Mask_Group_10" data-name="Mask Group 10" transform="translate(-12236 4800)" clip-path="url(#clip-path)">
    <ellipse id="Ellipse_942" data-name="Ellipse 942" cx="2269.5" cy="1515" rx="2269.5" ry="1515" transform="translate(11500 -6833)" fill="rgba(72,163,71,0.15)"/>
    <ellipse id="Ellipse_943" data-name="Ellipse 943" cx="276.322" cy="276.322" rx="276.322" ry="276.322" transform="translate(13246.885 -4753.093) rotate(103)" fill="#fec471" opacity="0.5"/>
    <g id="Group_368" data-name="Group 368" transform="matrix(0.875, 0.485, -0.485, 0.875, 12671.715, -4886.001)">
      <g id="Group_12" data-name="Group 12" clip-path="url(#clip-path-2)">
        <path id="Path_3" data-name="Path 3" d="M0,27.8A136.289,136.289,0,0,0,18.734,64.294C31.613,81.7,37.467,92.926,37.467,92.926s4.683,37.613,6.44,46.035,5.27,23.016,7.611,25.824,9.366,8.982,24,0S89.571,155.8,94.254,155.8s12.294-5.053,14.05-6.175,7.611,0,11.709.561,28.686-4.491,32.2-19.088,2.927-29.193,5.269-37.052,19.9-47.718,5.854-62.315-32.2-24.7-45.663-27.509S75.52-.828,66.153.3,11.123,19.944,6.439,18.26s-1.171,8.982-1.171,8.982L67.909,14.331S86.644,5.909,98.937,8.154s38.638,6.176,46.835,19.088,11.123,30.315,7.025,43.227-5.269,17.4-5.269,17.4l-3.512,35.368S136.99,142.89,120.6,140.083s-26.345-.561-26.345-.561l-13.464,7.3-9.953,15.719s-10.537,5.053-13.464-9.544-2.927-32-2.927-32-3.512-32.561-7.611-39.859,9.953,28.631,12.295,37.052,4.1,17.4,4.1,17.4l-4.1-43.79s-5.854-28.07-19.905-39.3S76.69,85.628,77.861,96.855,59.129,49.7,43.907,41.277,93.083,57.558,93.083,57.558l35.711,12.35L36.882,27.8H76.69s16.392-3.368,21.076-6.175-14.05-1.684-16.977-1.684S15.84,21.456,9.952,21.629,0,27.8,0,27.8" transform="translate(263.157 200.4)" fill="#48a347"/>
        <path id="Path_4" data-name="Path 4" d="M0,27.8A136.289,136.289,0,0,0,18.734,64.294C31.613,81.7,37.467,92.926,37.467,92.926s4.683,37.613,6.44,46.035,5.27,23.016,7.611,25.824,9.366,8.982,24,0S89.571,155.8,94.254,155.8s12.294-5.053,14.05-6.175,7.611,0,11.709.561,28.686-4.491,32.2-19.088,2.927-29.193,5.269-37.052,19.9-47.718,5.854-62.315-32.2-24.7-45.663-27.509S75.52-.828,66.153.3,11.123,19.944,6.439,18.26s-1.171,8.982-1.171,8.982L67.909,14.331S86.644,5.909,98.937,8.154s38.638,6.176,46.835,19.088,11.123,30.315,7.025,43.227-5.269,17.4-5.269,17.4l-3.512,35.368S136.99,142.89,120.6,140.083s-26.345-.561-26.345-.561l-13.464,7.3-9.953,15.719s-10.537,5.053-13.464-9.544-2.927-32-2.927-32-3.512-32.561-7.611-39.859,9.953,28.631,12.295,37.052,4.1,17.4,4.1,17.4l-4.1-43.79s-5.854-28.07-19.905-39.3S76.69,85.628,77.861,96.855,59.129,49.7,43.907,41.277,93.083,57.558,93.083,57.558l35.711,12.35L36.882,27.8H76.69s16.392-3.368,21.076-6.175-14.05-1.684-16.977-1.684S15.84,21.456,9.952,21.629,0,27.8,0,27.8Z" transform="translate(263.157 200.4)" fill="#48a347"/>
        <path id="Path_5" data-name="Path 5" d="M26,160.826a148.237,148.237,0,0,0,38.8-16.418c18.673-11.611,30.615-16.749,30.615-16.749s39.385-2.911,48.233-4.239,24.2-4.084,27.227-6.209,9.752-8.6,1.006-23-8.77-13.839-8.574-18.325-4.748-11.991-5.845-13.721.319-7.292,1.078-11.195S155.063,23.3,140,19.322s-30.293-4.028-38.383-6.6S52.736-8.351,36.94,4.5,9.853,34.313,6.363,47.1-.668,87.269.108,96.291s18.167,53.549,16.214,57.965,9.309,1.5,9.309,1.5L14.8,95.2s-7.988-18.3-5.133-29.987,8.056-36.76,21.851-44.071,32.052-9.386,45.335-4.919S94.768,22,94.768,22l36.7,4.848s20.176,7.556,16.565,23.143-1.689,25.217-1.689,25.217l7.039,13.207,15.96,10.194s4.821,10.308-10.507,12.5-33.464,1.463-33.464,1.463-34.073,2-41.849,5.621,30.248-8.335,39.12-10.225,18.3-3.2,18.3-3.2l-45.795,2.09s-29.492,4.432-41.779,17.423S89.458,89.773,101.2,89.122s-49.919,15.971-59.329,30.2S60.9,72.89,60.9,72.89l14.367-33.7-47.724,86.3,1.671-38.142S26.389,71.5,23.663,66.9s-2.346,13.391-2.469,16.2-1.146,62.292-1.214,67.941S26,160.826,26,160.826" transform="translate(232.58 47.437)" fill="#48a347"/>
        <path id="Path_6" data-name="Path 6" d="M26,160.826a148.237,148.237,0,0,0,38.8-16.418c18.673-11.611,30.615-16.749,30.615-16.749s39.385-2.911,48.233-4.239,24.2-4.084,27.227-6.209,9.752-8.6,1.006-23-8.77-13.839-8.574-18.325-4.748-11.991-5.845-13.721.319-7.292,1.078-11.195S155.063,23.3,140,19.322s-30.293-4.028-38.383-6.6S52.736-8.351,36.94,4.5,9.853,34.313,6.363,47.1-.668,87.269.108,96.291s18.167,53.549,16.214,57.965,9.309,1.5,9.309,1.5L14.8,95.2s-7.988-18.3-5.133-29.987,8.056-36.76,21.851-44.071,32.052-9.386,45.335-4.919S94.768,22,94.768,22l36.7,4.848s20.176,7.556,16.565,23.143-1.689,25.217-1.689,25.217l7.039,13.207,15.96,10.194s4.821,10.308-10.507,12.5-33.464,1.463-33.464,1.463-34.073,2-41.849,5.621,30.248-8.335,39.12-10.225,18.3-3.2,18.3-3.2l-45.795,2.09s-29.492,4.432-41.779,17.423S89.458,89.773,101.2,89.122s-49.919,15.971-59.329,30.2S60.9,72.89,60.9,72.89l14.367-33.7-47.724,86.3,1.671-38.142S26.389,71.5,23.663,66.9s-2.346,13.391-2.469,16.2-1.146,62.292-1.214,67.941S26,160.826,26,160.826Z" transform="translate(232.58 47.437)" fill="#48a347"/>
        <path id="Path_7" data-name="Path 7" d="M130.587,173.319a133.743,133.743,0,0,0,6.9-40.131c.082-21.341,2.132-33.739,2.132-33.739s19.011-33.205,22.691-41.035,9.678-21.66,9.477-25.25-2.17-12.532-19.523-13.391-16.876-.532-20.686-3.145-13.065-2.749-15.174-2.817-6.19-4.245-9.182-6.988S81.167-5.528,69.455,4.385,49.363,26.5,42.689,31.582-2.449,59.289.123,79s11.2,38.054,20.451,47.849,31.217,27.625,39.517,31.937,56.68,14.72,59.467,18.7,6.4-6.652,6.4-6.652L67.178,146.391S46.833,142.789,38.2,134.1s-27.68-26.579-26.513-41.653,9.345-30.864,20.512-39.079S47.038,42.156,47.038,42.156L71.352,15.35s17.635-12.062,29.264-.635S121.7,29.87,121.7,29.87l15.379,1.576,17.631-7.233s11.637,1.77,5.162,15.274-17.033,27.66-17.033,27.66-16.9,28.443-17.992,36.665,9.276-28.84,12.479-37,7.226-16.441,7.226-16.441l-23.233,37.9s-12.268,26.1-7.652,43.067S103.291,83.5,109.15,73.717s-13.373,48.807-6.1,64.147S72.929,97.188,72.929,97.188L51.376,67.219l49.213,85.524L68.21,130.533s-15.375-6.405-20.887-6.734,10.405,9.208,12.786,10.841,53.744,35.005,58.637,38.149,11.841.53,11.841.53" transform="translate(75.208 0.602)" fill="#48a347"/>
        <path id="Path_8" data-name="Path 8" d="M130.587,173.319a133.743,133.743,0,0,0,6.9-40.131c.082-21.341,2.132-33.739,2.132-33.739s19.011-33.205,22.691-41.035,9.678-21.66,9.477-25.25-2.17-12.532-19.523-13.391-16.876-.532-20.686-3.145-13.065-2.749-15.174-2.817-6.19-4.245-9.182-6.988S81.167-5.528,69.455,4.385,49.363,26.5,42.689,31.582-2.449,59.289.123,79s11.2,38.054,20.451,47.849,31.217,27.625,39.517,31.937,56.68,14.72,59.467,18.7,6.4-6.652,6.4-6.652L67.178,146.391S46.833,142.789,38.2,134.1s-27.68-26.579-26.513-41.653,9.345-30.864,20.512-39.079S47.038,42.156,47.038,42.156L71.352,15.35s17.635-12.062,29.264-.635S121.7,29.87,121.7,29.87l15.379,1.576,17.631-7.233s11.637,1.77,5.162,15.274-17.033,27.66-17.033,27.66-16.9,28.443-17.992,36.665,9.276-28.84,12.479-37,7.226-16.441,7.226-16.441l-23.233,37.9s-12.268,26.1-7.652,43.067S103.291,83.5,109.15,73.717s-13.373,48.807-6.1,64.147S72.929,97.188,72.929,97.188L51.376,67.219l49.213,85.524L68.21,130.533s-15.375-6.405-20.887-6.734,10.405,9.208,12.786,10.841,53.744,35.005,58.637,38.149S130.587,173.319,130.587,173.319Z" transform="translate(75.208 0.602)" fill="#48a347"/>
        <path id="Path_9" data-name="Path 9" d="M187.826,77.378A147.265,147.265,0,0,0,149.562,59.83C128.215,53.8,116.37,48.455,116.37,48.455S88.419,21.688,81.6,16.115,62.613,1.161,58.963.346s-13.154-1.5-18.855,14.243-5.241,15.394-8.919,18.173-6.4,11.264-7.052,13.189-5.978,4.516-9.56,6.506S-5.06,73.007,1.6,86.558s16.538,24.669,19.771,32.233,15.158,49.3,35.613,52.425,41.233.3,53.622-5.488,36.372-21.043,43-27.484S184.16,90.152,188.926,88.7s-4.877-7.751-4.877-7.751l-40.875,47.316s-9.281,17.732-20.387,23.263-34.338,18.077-49.107,12.8-28.3-17.214-33.413-29.788-7.091-16.8-7.091-16.8L13.11,87.868s-7.161-19.6,7.527-27.126S41.694,45.551,41.694,45.551l5.867-13.724L45.236,13.574s5.017-10.223,16.736-.494,22.949,23.4,22.949,23.4,23.772,23.493,31.7,26.794S90.326,46.69,83.052,41.465,68.6,30.225,68.6,30.225l31.476,31.967s22.713,18.576,40.995,19.058S90.268,77.465,82.1,69.339s45.148,25.927,62.538,23.51-49.135,16.392-49.135,16.392l-36.022,11.49,99.371-21.467-31.271,23.623s-10.7,12.373-12.57,17.357,12.124-7.015,14.423-8.752,50.043-39.73,54.558-43.358,3.833-10.757,3.833-10.757" transform="translate(0.628 122.009)" fill="#48a347"/>
        <path id="Path_10" data-name="Path 10" d="M187.826,77.378A147.265,147.265,0,0,0,149.562,59.83C128.215,53.8,116.37,48.455,116.37,48.455S88.419,21.688,81.6,16.115,62.613,1.161,58.963.346s-13.154-1.5-18.855,14.243-5.241,15.394-8.919,18.173-6.4,11.264-7.052,13.189-5.978,4.516-9.56,6.506S-5.06,73.007,1.6,86.558s16.538,24.669,19.771,32.233,15.158,49.3,35.613,52.425,41.233.3,53.622-5.488,36.372-21.043,43-27.484S184.16,90.152,188.926,88.7s-4.877-7.751-4.877-7.751l-40.875,47.316s-9.281,17.732-20.387,23.263-34.338,18.077-49.107,12.8-28.3-17.214-33.413-29.788-7.091-16.8-7.091-16.8L13.11,87.868s-7.161-19.6,7.527-27.126S41.694,45.551,41.694,45.551l5.867-13.724L45.236,13.574s5.017-10.223,16.736-.494,22.949,23.4,22.949,23.4,23.772,23.493,31.7,26.794S90.326,46.69,83.052,41.465,68.6,30.225,68.6,30.225l31.476,31.967s22.713,18.576,40.995,19.058S90.268,77.465,82.1,69.339s45.148,25.927,62.538,23.51-49.135,16.392-49.135,16.392l-36.022,11.49,99.371-21.467-31.271,23.623s-10.7,12.373-12.57,17.357,12.124-7.015,14.423-8.752,50.043-39.73,54.558-43.358S187.826,77.378,187.826,77.378Z" transform="translate(0.628 122.009)" fill="#48a347"/>
        <path id="Path_11" data-name="Path 11" d="M0,175.717,22.247,41.544V0" transform="translate(185.735 203.483)" fill="#48a347"/>
        <path id="Path_12" data-name="Path 12" d="M0,175.717,22.247,41.544V0" transform="translate(185.735 203.483)" fill="#48a347"/>
      </g>
    </g>
    <g id="Group_369" data-name="Group 369" transform="matrix(0.087, 0.996, -0.996, 0.087, 13315.713, -4672.279)" opacity="0.7">
      <g id="Group_1" data-name="Group 1" clip-path="url(#clip-path-3)">
        <path id="Path_1" data-name="Path 1" d="M183.081,58.465s23.611-32.238,40.411-20.887,5.449,32.238,5.449,32.238-19.524,32.238-27.244,37.233,56.758-54.033,72.65-29.968-33.6,41.32-33.6,41.32l-32.238,15.892s42.227-5.9,62.206-2.271,33.6,14.076,29.514,20.433S297.5,168.8,259.363,165.169s-61.752-9.99-61.752-9.99,44.952,19.524,59.482,34.509,22.249,30.422,11.352,31.784-37.233-6.357-53.125-18.616-29.06-28.152-29.06-28.152l25.428,44.952s14.076,25.881,3.178,32.692-25.882,0-25.882,0S174,234.641,171.729,226.467s-7.719-34.509-7.719-34.509v34.509s-2.724,31.028-13.622,28.909-17.708-11.654-17.708-30.725a167.784,167.784,0,0,1,3.632-34.509l-28.606,35.417s-51.763,68.563-64.023,46.768-2.27-40.411-2.27-40.411,24.974-44.5,44.5-51.309c0,0-41.319,12.714-57.665,11.352s-31.33-10.775-27.7-21.734S6.451,156.542,29.155,152s71.287-8.173,71.287-8.173l21.341.454s-69.925-35.871-75.828-39.957S4.181,73.9,12.354,63.005s15.892-17.254,38.595-5.9S109.978,97.06,109.978,97.06L91.815,64.368s-21.341-50.4-8.627-59.481,25.881-5.449,35.871,10.443,19.07,49.039,19.07,49.039l12.348,61.752L144.94,62.551s-.908-60.39,19.979-59.481,18.162,55.4,18.162,55.4" transform="translate(0.325 0.325)" fill="#fec471"/>
        <path id="Path_2" data-name="Path 2" d="M183.081,58.465s23.611-32.238,40.411-20.887,5.449,32.238,5.449,32.238-19.524,32.238-27.244,37.233,56.758-54.033,72.65-29.968-33.6,41.32-33.6,41.32l-32.238,15.892s42.227-5.9,62.206-2.271,33.6,14.076,29.514,20.433S297.5,168.8,259.363,165.169s-61.752-9.99-61.752-9.99,44.952,19.524,59.482,34.509,22.249,30.422,11.352,31.784-37.233-6.357-53.125-18.616-29.06-28.152-29.06-28.152l25.428,44.952s14.076,25.881,3.178,32.692-25.882,0-25.882,0S174,234.641,171.729,226.467s-7.719-34.509-7.719-34.509v34.509s-2.724,31.028-13.622,28.909-17.708-11.654-17.708-30.725a167.784,167.784,0,0,1,3.632-34.509l-28.606,35.417s-51.763,68.563-64.023,46.768-2.27-40.411-2.27-40.411,24.974-44.5,44.5-51.309c0,0-41.319,12.714-57.665,11.352s-31.33-10.775-27.7-21.734S6.451,156.542,29.155,152s71.287-8.173,71.287-8.173l21.341.454s-69.925-35.871-75.828-39.957S4.181,73.9,12.354,63.005s15.892-17.254,38.595-5.9S109.978,97.06,109.978,97.06L91.815,64.368s-21.341-50.4-8.627-59.481,25.881-5.449,35.871,10.443,19.07,49.039,19.07,49.039l12.348,61.752L144.94,62.551s-.908-60.39,19.979-59.481S183.081,58.465,183.081,58.465Z" transform="translate(0.325 0.325)" fill="#fec471"/>
      </g>
    </g>
    <g id="Group_370" data-name="Group 370" transform="translate(13208.481 -4430.504) rotate(138)" opacity="0.7">
      <g id="Group_1-2" data-name="Group 1" clip-path="url(#clip-path-4)">
        <path id="Path_1-2" data-name="Path 1" d="M183.081,58.465s23.611-32.238,40.411-20.887,5.449,32.238,5.449,32.238-19.524,32.238-27.244,37.233,56.758-54.033,72.65-29.968-33.6,41.32-33.6,41.32l-32.238,15.892s42.227-5.9,62.206-2.271,33.6,14.076,29.514,20.433S297.5,168.8,259.363,165.17s-61.752-9.99-61.752-9.99,44.952,19.524,59.482,34.509,22.249,30.422,11.352,31.784-37.233-6.357-53.125-18.616-29.06-28.152-29.06-28.152l25.428,44.952s14.076,25.881,3.178,32.692-25.882,0-25.882,0S174,234.641,171.729,226.467s-7.719-34.509-7.719-34.509v34.509s-2.724,31.028-13.622,28.909-17.708-11.654-17.708-30.725a167.783,167.783,0,0,1,3.632-34.509l-28.606,35.417s-51.763,68.563-64.023,46.768-2.27-40.411-2.27-40.411,24.974-44.5,44.5-51.309c0,0-41.319,12.714-57.665,11.352s-31.33-10.775-27.7-21.734S6.451,156.542,29.155,152s71.287-8.173,71.287-8.173l21.341.454s-69.925-35.871-75.828-39.957S4.181,73.9,12.354,63.005s15.892-17.254,38.595-5.9S109.977,97.06,109.977,97.06L91.814,64.368s-21.341-50.4-8.627-59.481,25.881-5.449,35.871,10.443,19.07,49.039,19.07,49.039l12.348,61.752L144.94,62.551s-.908-60.39,19.979-59.482,18.162,55.4,18.162,55.4" transform="translate(0.325 0.325)" fill="#48a347"/>
        <path id="Path_2-2" data-name="Path 2" d="M183.081,58.465s23.611-32.238,40.411-20.887,5.449,32.238,5.449,32.238-19.524,32.238-27.244,37.233,56.758-54.033,72.65-29.968-33.6,41.32-33.6,41.32l-32.238,15.892s42.227-5.9,62.206-2.271,33.6,14.076,29.514,20.433S297.5,168.8,259.363,165.17s-61.752-9.99-61.752-9.99,44.952,19.524,59.482,34.509,22.249,30.422,11.352,31.784-37.233-6.357-53.125-18.616-29.06-28.152-29.06-28.152l25.428,44.952s14.076,25.881,3.178,32.692-25.882,0-25.882,0S174,234.641,171.729,226.467s-7.719-34.509-7.719-34.509v34.509s-2.724,31.028-13.622,28.909-17.708-11.654-17.708-30.725a167.783,167.783,0,0,1,3.632-34.509l-28.606,35.417s-51.763,68.563-64.023,46.768-2.27-40.411-2.27-40.411,24.974-44.5,44.5-51.309c0,0-41.319,12.714-57.665,11.352s-31.33-10.775-27.7-21.734S6.451,156.542,29.155,152s71.287-8.173,71.287-8.173l21.341.454s-69.925-35.871-75.828-39.957S4.181,73.9,12.354,63.005s15.892-17.254,38.595-5.9S109.977,97.06,109.977,97.06L91.814,64.368s-21.341-50.4-8.627-59.481,25.881-5.449,35.871,10.443,19.07,49.039,19.07,49.039l12.348,61.752L144.94,62.551s-.908-60.39,19.979-59.482S183.081,58.465,183.081,58.465Z" transform="translate(0.325 0.325)" fill="#48a347"/>
      </g>
    </g>
    <g id="Group_371" data-name="Group 371" transform="translate(12035.924 -4990.542)">
      <g id="Group_45" data-name="Group 45" clip-path="url(#clip-path-5)">
        <path id="Path_19" data-name="Path 19" d="M117.16,210.424a7.739,7.739,0,0,1,1.081.15,8.6,8.6,0,0,1,2.328.82,5.544,5.544,0,0,1,2.2,2.044,6.062,6.062,0,0,1,.694,3.822c-.173,1.632.473,4.61,1.542,8.162s2.562,7.687,4.078,11.618,3.059,7.672,4.221,10.425,1.947,4.525,1.947,4.525,1.639,2.474,4.17,6.252,5.966,8.877,9.544,14.1,7.318,10.612,10.437,14.929a76.279,76.279,0,0,0,6.754,8.581c1.123,1,2.617,2.311,4.374,3.657a40.069,40.069,0,0,0,5.958,3.843,21.308,21.308,0,0,0,6.895,2.29,12.906,12.906,0,0,0,7.174-1.014,100.507,100.507,0,0,0,10.659-6.246c4.491-2.9,9.662-6.442,14.74-10.074s10.076-7.368,14.193-10.64a80.319,80.319,0,0,0,8.949-7.889c1.584-1.8,3.268-4.134,5.5-6.772a62.4,62.4,0,0,1,8.8-8.614,74.983,74.983,0,0,1,14.821-9.116,130.049,130.049,0,0,1,23.665-8.294,206.981,206.981,0,0,0,30.6-10.953c10.392-4.541,20.6-9.667,29.612-14.491,9.033-4.838,16.849-9.367,22.411-12.691s8.875-5.444,8.875-5.444,2.576-.393,6.492-.892,9.19-1.106,14.565-1.529a122.847,122.847,0,0,1,15.221-.432c4.351.234,7.546.944,8.321,2.42s-4.057,4.9-12.227,9.564c-8.151,4.652-19.605,10.527-32.105,16.926-12.452,6.375-25.934,13.266-38.235,20-12.256,6.7-23.351,13.252-31.123,18.988-7.756,5.724-16.143,11.75-24.69,17.543-8.526,5.779-17.209,11.326-25.584,16.111a169.15,169.15,0,0,1-23.681,11.52c-7.263,2.726-13.766,4.178-19.053,3.834a96.646,96.646,0,0,0-15.116.256,116.057,116.057,0,0,0-12.653,1.894c-3.638.749-6.62,1.541-8.691,2.144s-3.232,1.02-3.232,1.02,1.132,1.647,3.058,4.266,4.656,6.221,7.846,10.121,6.855,8.116,10.639,11.947a71.588,71.588,0,0,0,11.408,9.688,53.241,53.241,0,0,1,8.55,7.011c2.2,2.145,3.942,3.956,5.835,5.022a8.06,8.06,0,0,0,6.744.55c2.807-.839,6.374-2.838,11.315-6.412s10.219-7.586,15.988-11.645a196.268,196.268,0,0,1,19.017-11.979,136.6,136.6,0,0,1,23.163-10.064,131.727,131.727,0,0,1,28.491-5.873c10.544-1,23.795-3.732,37.889-7.365,14.162-3.651,29.182-8.218,43.145-12.864,14.028-4.668,26.978-9.412,36.89-13.378,9.943-3.978,16.807-7.165,18.615-8.694a15.233,15.233,0,0,1,7.2-2.956,42.811,42.811,0,0,1,9.08-.468,77.889,77.889,0,0,1,8.457.855c2.435.376,4.34.777,5.293,1.007a10.46,10.46,0,0,0,2.593.3,9.277,9.277,0,0,0,1.988-.237,7.742,7.742,0,0,0,1.273-.41,4.074,4.074,0,0,0,.448-.218,76.973,76.973,0,0,1-5.156,6.912,141.737,141.737,0,0,1-15.967,16.423,160.926,160.926,0,0,1-27.431,19.419,167.455,167.455,0,0,1-39.361,15.906c-15.1,3.992-28.549,7.22-40.216,9.815-11.621,2.585-21.489,4.545-29.475,6.009-7.964,1.46-14.068,2.429-18.178,3.032s-6.226.842-6.226.842-2.027.872-5.142,2.2-7.31,3.107-11.657,4.926-8.831,3.672-12.542,5.155-6.639,2.59-7.874,2.918-2.691.653-4.242.949-3.2.56-4.813.769-3.2.36-4.627.427a22.23,22.23,0,0,1-3.69-.075,23.974,23.974,0,0,0-5.915.8c-2.728.584-5.992,1.41-9.13,2.251s-6.141,1.695-8.364,2.339-3.66,1.078-3.66,1.078,3.24,2.12,8.21,5.328,11.712,7.531,18.669,11.906c6.98,4.389,14.189,8.84,20.08,12.294,5.907,3.463,10.48,5.92,12.151,6.3a47.415,47.415,0,0,0,7.183,1.051,50.758,50.758,0,0,0,10.764-.392,51.9,51.9,0,0,0,13.205-3.739,59.17,59.17,0,0,0,14.486-9.007,123.945,123.945,0,0,1,14.477-10.377,129.2,129.2,0,0,1,12.712-6.863c3.734-1.752,6.852-2.99,9.038-3.79s3.44-1.163,3.44-1.163l121.386-42.6s3.418-.136,8.611-.31,12.195-.386,19.323-.536c7.147-.15,14.431-.239,20.176-.165s9.962.311,10.924.812a2.119,2.119,0,0,1,1.39,1.866,3.569,3.569,0,0,1-1.325,2.328,14.844,14.844,0,0,1-3.622,2.39,31.74,31.74,0,0,1-5.5,2.054c-2.1.584-6.181,3.007-11.122,6.309s-10.723,7.47-16.242,11.565-10.754,8.1-14.618,11.086-6.344,4.947-6.344,4.947-7.908,2.758-20.183,6.874c-12.227,4.1-28.752,9.538-46.076,14.931-17.227,5.362-35.233,10.677-50.627,14.6-15.315,3.9-28.069,6.44-34.958,6.289l-27.378-.6a3.9,3.9,0,0,0,.392.887,11.3,11.3,0,0,0,1.84,2.358,24.45,24.45,0,0,0,4.288,3.377,50.125,50.125,0,0,0,7.749,3.947c3.276,1.362,8,3.433,13.246,5.777s11.05,4.974,16.441,7.432,10.4,4.761,14.055,6.443,5.961,2.752,5.961,2.752a53.093,53.093,0,0,0,5.034,2.315,72.794,72.794,0,0,0,12.852,3.9,55.032,55.032,0,0,0,17.287.882,39.81,39.81,0,0,0,18.264-6.8c5.863-4.074,14.154-10.255,23.661-17.38,9.532-7.143,20.293-15.239,31.057-23.112,10.8-7.9,21.6-15.567,31.154-21.822,9.583-6.271,17.913-11.113,23.728-13.321a155.534,155.534,0,0,1,16.936-5.245c5.449-1.39,10.663-2.52,15.56-3.7a112.853,112.853,0,0,0,13.674-4.015,41.367,41.367,0,0,0,11.266-6.2c3.3-2.639,7.136-5.73,11-8.71s7.764-5.855,11.167-8.05,6.316-3.714,8.21-3.984,2.772.709,2.109,3.506-1.213,6.813-2.374,11.633a72.04,72.04,0,0,1-6.039,16.45A72.768,72.768,0,0,1,625.562,384.5a107.1,107.1,0,0,1-26.211,18.346c-11.2,5.749-26.281,12.309-42.555,18.9-16.193,6.553-33.549,13.126-49.449,18.962-15.82,5.807-30.212,10.888-40.625,14.51-10.379,3.61-16.833,5.78-16.833,5.78l-19.079,4.2,23.438,14.12a25.534,25.534,0,0,0,3.452,1.912,43.253,43.253,0,0,0,9.721,3.207,48.807,48.807,0,0,0,15.056.69,59.7,59.7,0,0,0,19.452-5.686c7.118-3.4,18.463-8.392,31.783-14.006,13.374-5.638,28.756-11.906,43.846-17.8,15.161-5.924,30.026-11.471,42.233-15.612,12.254-4.158,21.811-6.892,26.27-7.162a63.974,63.974,0,0,0,12.832-2.19,85.475,85.475,0,0,0,10.829-3.772c3.128-1.324,5.7-2.615,7.482-3.575s2.791-1.589,2.791-1.589,1.386-.065,3.571-.153,5.175-.2,8.377-.289,6.625-.162,9.666-.172,5.71.044,7.4.2a31.3,31.3,0,0,0,7.753-.88c3.261-.659,6.976-1.6,10.483-2.558s6.813-1.943,9.238-2.685,3.975-1.244,3.975-1.244a90.4,90.4,0,0,1-5.611,8.053,148.662,148.662,0,0,1-16.962,18.556,145.31,145.31,0,0,1-28.41,20.61,130.939,130.939,0,0,1-39.776,14.25c-15.087,2.763-30.23,5.816-44.432,8.836-14.136,3.005-27.348,5.979-38.664,8.6-11.274,2.615-20.68,4.887-27.26,6.5s-10.33,2.576-10.33,2.576l-34.275,5.566,27.1,11.694s6.068.775,15.7,1.9c9.671,1.13,22.961,2.616,37.348,4.028,14.464,1.42,30.046,2.766,44.146,3.6,14.172.836,26.83,1.152,35.3.5,8.493-.654,16.623-1.015,24.047-1.188,7.443-.174,14.174-.159,19.844-.062s10.294.278,13.488.434,4.97.288,4.97.288,2.99.274,7.776.728,11.4,1.091,18.615,1.815c7.235.726,15.088,1.542,22.345,2.351,7.276.811,13.949,1.616,18.788,2.318a166.056,166.056,0,0,1,19.42,4.6c7.682,2.186,16.118,4.842,23.967,7.417,7.872,2.583,15.149,5.082,20.465,6.939s8.677,3.072,8.677,3.072-1.967.4-5.052,1-7.28,1.384-11.746,2.16-9.188,1.536-13.344,2.08a66.6,66.6,0,0,1-9.915.772c-2.18-.1-8.065.061-15.769.331-7.684.268-17.169.648-26.59.995-9.391.346-18.718.661-26.152.8-7.415.143-12.955.115-14.808-.223s-5.619-1.206-10.22-2.316-10.015-2.458-15.2-3.763-10.1-2.561-13.74-3.492-5.973-1.536-5.973-1.536l-32.108-3.4L560.506,532.8,533.4,524.328l-16.107-6.014,70.968,69.7s2.013,2.749,5.192,7.041,7.543,10.154,12.225,16.351c4.693,6.212,9.713,12.772,14.2,18.452s8.447,10.5,10.986,13.175,5.179,5.78,7.706,8.925,4.951,6.341,7.054,9.2,3.893,5.389,5.154,7.2,2,2.91,2,2.91-2.292-1.009-5.846-2.647-8.353-3.9-13.386-6.408-10.273-5.256-14.736-7.882-8.129-5.117-10.018-7.121-6.268-5.507-11.853-9.7-12.335-9.06-19.017-13.821c-6.662-4.747-13.244-9.383-18.491-13.126s-9.149-6.582-10.5-7.771-4.47-4.073-8.41-7.8-8.681-8.284-13.3-12.837-9.1-9.08-12.536-12.776-5.814-6.543-6.23-7.735-2.088-4.53-4.4-9-5.241-10.038-8.191-15.721-5.9-11.448-8.266-16.322a81.9,81.9,0,0,1-4.684-10.914c-.562-2.076-2.709-4.845-5.731-7.832a97.853,97.853,0,0,0-10.956-9.122,106.944,106.944,0,0,0-11.918-7.581c-3.663-1.959-6.793-3.2-8.7-3.265s-4.81-.281-8.1-.57-6.947-.65-10.369-1-6.595-.7-8.916-.952-3.786-.423-3.786-.423l23.985,25.683s3.567,4,8.855,10.635c5.3,6.65,12.349,15.957,19.274,26.532,6.952,10.617,13.784,22.515,18.6,34.265,4.828,11.789,7.615,23.412,6.441,33.4s-2.746,19.879-4.568,28.934a216.7,216.7,0,0,1-6.077,23.947c-2.18,6.664-4.466,11.764-6.711,14.576s-4.447,3.336-6.463.854-4.017-6.769-5.9-11.838-3.648-10.9-5.189-16.483-2.855-10.905-3.844-14.962-1.649-6.84-1.879-7.342-1.658-5.253-3.67-12.087-4.6-15.718-7.148-24.531c-2.548-8.8-5.062-17.511-6.938-24.02s-3.11-10.806-3.11-10.806-.544-.9-1.446-2.326-2.162-3.38-3.6-5.49-3.037-4.374-4.631-6.426a42.3,42.3,0,0,0-4.562-5.149,56.045,56.045,0,0,1-6.5-8.5c-2.8-4.166-6.073-9.434-9.392-15.11s-6.666-11.738-9.626-17.532a170.357,170.357,0,0,1-7.258-15.846c-1.739-4.549-3.314-8.615-4.827-12.233s-2.961-6.78-4.449-9.533a40.64,40.64,0,0,0-4.677-7.044,22.326,22.326,0,0,0-5.505-4.761c-2.038-1.228-4.3-2.637-6.594-4.038s-4.619-2.791-6.791-3.988a45.9,45.9,0,0,0-5.861-2.815c-1.674-.619-3.009-.856-3.817-.527s.229,3.856,2.328,9.24,5.271,12.652,8.719,20.435c3.456,7.8,7.194,16.13,10.417,23.621,3.23,7.507,5.94,14.168,7.325,18.6s4.414,12.68,7.838,22.972c3.432,10.319,7.266,22.707,10.24,35.373,2.983,12.7,5.1,25.675,5.077,37.094-.023,11.435-2.192,21.286-7.773,27.7s-11.3,13.253-16.828,19.761-10.845,12.668-15.621,17.736-9,9.027-12.333,11.132-5.773,2.349-6.978-.023-1.366-6.708-.952-11.92a171.967,171.967,0,0,1,2.5-17.152c1.1-5.86,2.3-11.5,3.15-15.832s1.341-7.349,1.012-7.968a51.86,51.86,0,0,1-2.316-7.974,161.852,161.852,0,0,1-3.1-18.056,170.61,170.61,0,0,1-1.071-24.919,142.61,142.61,0,0,1,3.736-28.639,132.463,132.463,0,0,0,3.727-25.365,82.974,82.974,0,0,0-.981-17.46,49.738,49.738,0,0,0-2.738-10.079,20.653,20.653,0,0,0-1.563-3.241s-.2-1.122-.484-2.965-.669-4.406-1.041-7.29-.732-6.085-.982-9.209a83.142,83.142,0,0,1-.31-8.736,79.449,79.449,0,0,0-.272-8.8,80.643,80.643,0,0,0-1.395-9.741,45.008,45.008,0,0,0-2.7-8.8,15.64,15.64,0,0,0-4.179-5.981,32.613,32.613,0,0,0-5.749-3.547,63.113,63.113,0,0,0-6.6-2.775c-2.229-.8-4.431-1.49-6.437-2.07s-3.815-1.054-5.262-1.433-5.716-2.816-11.3-6.252-12.427-7.842-19.088-12.2c-6.641-4.342-13.083-8.624-17.858-11.815s-7.875-5.288-7.875-5.288l-8.038-5.023s.711,1.486,1.786,3.9,2.515,5.766,3.971,9.488,2.93,7.827,4.068,11.741a47.131,47.131,0,0,1,2.059,10.619c.116,2.975,1.414,8.323,3.386,14.79s4.625,14.083,7.438,21.55c2.819,7.482,5.8,14.827,8.43,20.751s4.906,10.442,6.3,12.229,3.053,6.459,4.593,12.94a197.4,197.4,0,0,1,4.672,52.131c-.512,9.447-1.935,18.527-4.661,26.136a145.754,145.754,0,0,0-5.972,22.392,177.624,177.624,0,0,0-2.509,19.612c-.417,5.755-.492,10.56-.464,13.927s.162,5.3.162,5.3a22.9,22.9,0,0,1-3.245-1.691,38.157,38.157,0,0,1-7.351-5.884,42.7,42.7,0,0,1-7.893-11.277,53.191,53.191,0,0,1-4.912-17.865c-.752-7.183-1.2-16.678-1.449-26.871s-.3-21.052-.255-31.019.18-19.008.306-25.57.241-10.629.241-10.629-1.917-5.217-4.749-13.135c-2.826-7.9-6.559-18.481-10.205-29.243-3.636-10.732-7.186-21.645-9.671-30.286-2.48-8.623-3.9-15-3.3-16.687a43.979,43.979,0,0,0,1.576-8.649c.42-3.844.711-8.419.8-13.039a119.15,119.15,0,0,0-.413-13.293c-.388-4.014-1.049-7.387-2.057-9.434s-3.788-5.805-7.388-10.287-8-9.659-12.267-14.581-8.386-9.556-11.444-12.971S179.344,327,179.344,327s.154,2.845.266,7.448.181,10.977.011,18.022-.58,14.779-1.428,22.086a91.914,91.914,0,0,1-4.055,19.562c-1.921,5.361-4.127,10.52-6.355,15.242s-4.478,9-6.487,12.615-3.777,6.551-5.043,8.588-2.029,3.171-2.029,3.171-.574-2.886-1.392-7.413-1.879-10.684-2.856-17.241-1.868-13.493-2.35-19.6-.555-11.38.106-14.606,2.289-8.806,4.359-15.363,4.583-14.089,7.013-21.218,4.778-13.855,6.518-18.8,2.873-8.106,2.873-8.106-2.1-2.473-5.291-6.324-7.467-9.054-11.842-14.542-8.822-11.223-12.4-16.173-6.254-9.087-7.093-11.381a96.205,96.205,0,0,0-4.576-9.614c-2.036-3.911-4.409-8.332-6.6-12.666a122.433,122.433,0,0,1-5.511-12.137c-1.312-3.564-1.932-6.457-1.346-8.093s1.086-3.081,1.507-4.328.763-2.3,1.031-3.141.464-1.485.592-1.914.189-.647.189-.647" transform="translate(0.644 1.317)" fill="#f79c8b"/>
        <path id="Path_20" data-name="Path 20" d="M117.16,210.424a7.739,7.739,0,0,1,1.081.15,8.6,8.6,0,0,1,2.328.82,5.544,5.544,0,0,1,2.2,2.044,6.062,6.062,0,0,1,.694,3.822c-.173,1.632.473,4.61,1.542,8.162s2.562,7.687,4.078,11.618,3.059,7.672,4.221,10.425,1.947,4.525,1.947,4.525,1.639,2.474,4.17,6.252,5.966,8.877,9.544,14.1,7.318,10.612,10.437,14.929a76.279,76.279,0,0,0,6.754,8.581c1.123,1,2.617,2.311,4.374,3.657a40.069,40.069,0,0,0,5.958,3.843,21.308,21.308,0,0,0,6.895,2.29,12.906,12.906,0,0,0,7.174-1.014,100.507,100.507,0,0,0,10.659-6.246c4.491-2.9,9.662-6.442,14.74-10.074s10.076-7.368,14.193-10.64a80.319,80.319,0,0,0,8.949-7.889c1.584-1.8,3.268-4.134,5.5-6.772a62.4,62.4,0,0,1,8.8-8.614,74.983,74.983,0,0,1,14.821-9.116,130.049,130.049,0,0,1,23.665-8.294,206.981,206.981,0,0,0,30.6-10.953c10.392-4.541,20.6-9.667,29.612-14.491,9.033-4.838,16.849-9.367,22.411-12.691s8.875-5.444,8.875-5.444,2.576-.393,6.492-.892,9.19-1.106,14.565-1.529a122.847,122.847,0,0,1,15.221-.432c4.351.234,7.546.944,8.321,2.42s-4.057,4.9-12.227,9.564c-8.151,4.652-19.605,10.527-32.105,16.926-12.452,6.375-25.934,13.266-38.235,20-12.256,6.7-23.351,13.252-31.123,18.988-7.756,5.724-16.143,11.75-24.69,17.543-8.526,5.779-17.209,11.326-25.584,16.111a169.15,169.15,0,0,1-23.681,11.52c-7.263,2.726-13.766,4.178-19.053,3.834a96.646,96.646,0,0,0-15.116.256,116.057,116.057,0,0,0-12.653,1.894c-3.638.749-6.62,1.541-8.691,2.144s-3.232,1.02-3.232,1.02,1.132,1.647,3.058,4.266,4.656,6.221,7.846,10.121,6.855,8.116,10.639,11.947a71.588,71.588,0,0,0,11.408,9.688,53.241,53.241,0,0,1,8.55,7.011c2.2,2.145,3.942,3.956,5.835,5.022a8.06,8.06,0,0,0,6.744.55c2.807-.839,6.374-2.838,11.315-6.412s10.219-7.586,15.988-11.645a196.268,196.268,0,0,1,19.017-11.979,136.6,136.6,0,0,1,23.163-10.064,131.727,131.727,0,0,1,28.491-5.873c10.544-1,23.795-3.732,37.889-7.365,14.162-3.651,29.182-8.218,43.145-12.864,14.028-4.668,26.978-9.412,36.89-13.378,9.943-3.978,16.807-7.165,18.615-8.694a15.233,15.233,0,0,1,7.2-2.956,42.811,42.811,0,0,1,9.08-.468,77.889,77.889,0,0,1,8.457.855c2.435.376,4.34.777,5.293,1.007a10.46,10.46,0,0,0,2.593.3,9.277,9.277,0,0,0,1.988-.237,7.742,7.742,0,0,0,1.273-.41,4.074,4.074,0,0,0,.448-.218,76.973,76.973,0,0,1-5.156,6.912,141.737,141.737,0,0,1-15.967,16.423,160.926,160.926,0,0,1-27.431,19.419,167.455,167.455,0,0,1-39.361,15.906c-15.1,3.992-28.549,7.22-40.216,9.815-11.621,2.585-21.489,4.545-29.475,6.009-7.964,1.46-14.068,2.429-18.178,3.032s-6.226.842-6.226.842-2.027.872-5.142,2.2-7.31,3.107-11.657,4.926-8.831,3.672-12.542,5.155-6.639,2.59-7.874,2.918-2.691.653-4.242.949-3.2.56-4.813.769-3.2.36-4.627.427a22.23,22.23,0,0,1-3.69-.075,23.974,23.974,0,0,0-5.915.8c-2.728.584-5.992,1.41-9.13,2.251s-6.141,1.695-8.364,2.339-3.66,1.078-3.66,1.078,3.24,2.12,8.21,5.328,11.712,7.531,18.669,11.906c6.98,4.389,14.189,8.84,20.08,12.294,5.907,3.463,10.48,5.92,12.151,6.3a47.415,47.415,0,0,0,7.183,1.051,50.758,50.758,0,0,0,10.764-.392,51.9,51.9,0,0,0,13.205-3.739,59.17,59.17,0,0,0,14.486-9.007,123.945,123.945,0,0,1,14.477-10.377,129.2,129.2,0,0,1,12.712-6.863c3.734-1.752,6.852-2.99,9.038-3.79s3.44-1.163,3.44-1.163l121.386-42.6s3.418-.136,8.611-.31,12.195-.386,19.323-.536c7.147-.15,14.431-.239,20.176-.165s9.962.311,10.924.812a2.119,2.119,0,0,1,1.39,1.866,3.569,3.569,0,0,1-1.325,2.328,14.844,14.844,0,0,1-3.622,2.39,31.74,31.74,0,0,1-5.5,2.054c-2.1.584-6.181,3.007-11.122,6.309s-10.723,7.47-16.242,11.565-10.754,8.1-14.618,11.086-6.344,4.947-6.344,4.947-7.908,2.758-20.183,6.874c-12.227,4.1-28.752,9.538-46.076,14.931-17.227,5.362-35.233,10.677-50.627,14.6-15.315,3.9-28.069,6.44-34.958,6.289l-27.378-.6a3.9,3.9,0,0,0,.392.887,11.3,11.3,0,0,0,1.84,2.358,24.45,24.45,0,0,0,4.288,3.377,50.125,50.125,0,0,0,7.749,3.947c3.276,1.362,8,3.433,13.246,5.777s11.05,4.974,16.441,7.432,10.4,4.761,14.055,6.443,5.961,2.752,5.961,2.752a53.093,53.093,0,0,0,5.034,2.315,72.794,72.794,0,0,0,12.852,3.9,55.032,55.032,0,0,0,17.287.882,39.81,39.81,0,0,0,18.264-6.8c5.863-4.074,14.154-10.255,23.661-17.38,9.532-7.143,20.293-15.239,31.057-23.112,10.8-7.9,21.6-15.567,31.154-21.822,9.583-6.271,17.913-11.113,23.728-13.321a155.534,155.534,0,0,1,16.936-5.245c5.449-1.39,10.663-2.52,15.56-3.7a112.853,112.853,0,0,0,13.674-4.015,41.367,41.367,0,0,0,11.266-6.2c3.3-2.639,7.136-5.73,11-8.71s7.764-5.855,11.167-8.05,6.316-3.714,8.21-3.984,2.772.709,2.109,3.506-1.213,6.813-2.374,11.633a72.04,72.04,0,0,1-6.039,16.45A72.768,72.768,0,0,1,625.562,384.5a107.1,107.1,0,0,1-26.211,18.346c-11.2,5.749-26.281,12.309-42.555,18.9-16.193,6.553-33.549,13.126-49.449,18.962-15.82,5.807-30.212,10.888-40.625,14.51-10.379,3.61-16.833,5.78-16.833,5.78l-19.079,4.2,23.438,14.12a25.534,25.534,0,0,0,3.452,1.912,43.253,43.253,0,0,0,9.721,3.207,48.807,48.807,0,0,0,15.056.69,59.7,59.7,0,0,0,19.452-5.686c7.118-3.4,18.463-8.392,31.783-14.006,13.374-5.638,28.756-11.906,43.846-17.8,15.161-5.924,30.026-11.471,42.233-15.612,12.254-4.158,21.811-6.892,26.27-7.162a63.974,63.974,0,0,0,12.832-2.19,85.475,85.475,0,0,0,10.829-3.772c3.128-1.324,5.7-2.615,7.482-3.575s2.791-1.589,2.791-1.589,1.386-.065,3.571-.153,5.175-.2,8.377-.289,6.625-.162,9.666-.172,5.71.044,7.4.2a31.3,31.3,0,0,0,7.753-.88c3.261-.659,6.976-1.6,10.483-2.558s6.813-1.943,9.238-2.685,3.975-1.244,3.975-1.244a90.4,90.4,0,0,1-5.611,8.053,148.662,148.662,0,0,1-16.962,18.556,145.31,145.31,0,0,1-28.41,20.61,130.939,130.939,0,0,1-39.776,14.25c-15.087,2.763-30.23,5.816-44.432,8.836-14.136,3.005-27.348,5.979-38.664,8.6-11.274,2.615-20.68,4.887-27.26,6.5s-10.33,2.576-10.33,2.576l-34.275,5.566,27.1,11.694s6.068.775,15.7,1.9c9.671,1.13,22.961,2.616,37.348,4.028,14.464,1.42,30.046,2.766,44.146,3.6,14.172.836,26.83,1.152,35.3.5,8.493-.654,16.623-1.015,24.047-1.188,7.443-.174,14.174-.159,19.844-.062s10.294.278,13.488.434,4.97.288,4.97.288,2.99.274,7.776.728,11.4,1.091,18.615,1.815c7.235.726,15.088,1.542,22.345,2.351,7.276.811,13.949,1.616,18.788,2.318a166.056,166.056,0,0,1,19.42,4.6c7.682,2.186,16.118,4.842,23.967,7.417,7.872,2.583,15.149,5.082,20.465,6.939s8.677,3.072,8.677,3.072-1.967.4-5.052,1-7.28,1.384-11.746,2.16-9.188,1.536-13.344,2.08a66.6,66.6,0,0,1-9.915.772c-2.18-.1-8.065.061-15.769.331-7.684.268-17.169.648-26.59.995-9.391.346-18.718.661-26.152.8-7.415.143-12.955.115-14.808-.223s-5.619-1.206-10.22-2.316-10.015-2.458-15.2-3.763-10.1-2.561-13.74-3.492-5.973-1.536-5.973-1.536l-32.108-3.4L560.506,532.8,533.4,524.328l-16.107-6.014,70.968,69.7s2.013,2.749,5.192,7.041,7.543,10.154,12.225,16.351c4.693,6.212,9.713,12.772,14.2,18.452s8.447,10.5,10.986,13.175,5.179,5.78,7.706,8.925,4.951,6.341,7.054,9.2,3.893,5.389,5.154,7.2,2,2.91,2,2.91-2.292-1.009-5.846-2.647-8.353-3.9-13.386-6.408-10.273-5.256-14.736-7.882-8.129-5.117-10.018-7.121-6.268-5.507-11.853-9.7-12.335-9.06-19.017-13.821c-6.662-4.747-13.244-9.383-18.491-13.126s-9.149-6.582-10.5-7.771-4.47-4.073-8.41-7.8-8.681-8.284-13.3-12.837-9.1-9.08-12.536-12.776-5.814-6.543-6.23-7.735-2.088-4.53-4.4-9-5.241-10.038-8.191-15.721-5.9-11.448-8.266-16.322a81.9,81.9,0,0,1-4.684-10.914c-.562-2.076-2.709-4.845-5.731-7.832a97.853,97.853,0,0,0-10.956-9.122,106.944,106.944,0,0,0-11.918-7.581c-3.663-1.959-6.793-3.2-8.7-3.265s-4.81-.281-8.1-.57-6.947-.65-10.369-1-6.595-.7-8.916-.952-3.786-.423-3.786-.423l23.985,25.683s3.567,4,8.855,10.635c5.3,6.65,12.349,15.957,19.274,26.532,6.952,10.617,13.784,22.515,18.6,34.265,4.828,11.789,7.615,23.412,6.441,33.4s-2.746,19.879-4.568,28.934a216.7,216.7,0,0,1-6.077,23.947c-2.18,6.664-4.466,11.764-6.711,14.576s-4.447,3.336-6.463.854-4.017-6.769-5.9-11.838-3.648-10.9-5.189-16.483-2.855-10.905-3.844-14.962-1.649-6.84-1.879-7.342-1.658-5.253-3.67-12.087-4.6-15.718-7.148-24.531c-2.548-8.8-5.062-17.511-6.938-24.02s-3.11-10.806-3.11-10.806-.544-.9-1.446-2.326-2.162-3.38-3.6-5.49-3.037-4.374-4.631-6.426a42.3,42.3,0,0,0-4.562-5.149,56.045,56.045,0,0,1-6.5-8.5c-2.8-4.166-6.073-9.434-9.392-15.11s-6.666-11.738-9.626-17.532a170.357,170.357,0,0,1-7.258-15.846c-1.739-4.549-3.314-8.615-4.827-12.233s-2.961-6.78-4.449-9.533a40.64,40.64,0,0,0-4.677-7.044,22.326,22.326,0,0,0-5.505-4.761c-2.038-1.228-4.3-2.637-6.594-4.038s-4.619-2.791-6.791-3.988a45.9,45.9,0,0,0-5.861-2.815c-1.674-.619-3.009-.856-3.817-.527s.229,3.856,2.328,9.24,5.271,12.652,8.719,20.435c3.456,7.8,7.194,16.13,10.417,23.621,3.23,7.507,5.94,14.168,7.325,18.6s4.414,12.68,7.838,22.972c3.432,10.319,7.266,22.707,10.24,35.373,2.983,12.7,5.1,25.675,5.077,37.094-.023,11.435-2.192,21.286-7.773,27.7s-11.3,13.253-16.828,19.761-10.845,12.668-15.621,17.736-9,9.027-12.333,11.132-5.773,2.349-6.978-.023-1.366-6.708-.952-11.92a171.967,171.967,0,0,1,2.5-17.152c1.1-5.86,2.3-11.5,3.15-15.832s1.341-7.349,1.012-7.968a51.86,51.86,0,0,1-2.316-7.974,161.852,161.852,0,0,1-3.1-18.056,170.61,170.61,0,0,1-1.071-24.919,142.61,142.61,0,0,1,3.736-28.639,132.463,132.463,0,0,0,3.727-25.365,82.974,82.974,0,0,0-.981-17.46,49.738,49.738,0,0,0-2.738-10.079,20.653,20.653,0,0,0-1.563-3.241s-.2-1.122-.484-2.965-.669-4.406-1.041-7.29-.732-6.085-.982-9.209a83.142,83.142,0,0,1-.31-8.736,79.449,79.449,0,0,0-.272-8.8,80.643,80.643,0,0,0-1.395-9.741,45.008,45.008,0,0,0-2.7-8.8,15.64,15.64,0,0,0-4.179-5.981,32.613,32.613,0,0,0-5.749-3.547,63.113,63.113,0,0,0-6.6-2.775c-2.229-.8-4.431-1.49-6.437-2.07s-3.815-1.054-5.262-1.433-5.716-2.816-11.3-6.252-12.427-7.842-19.088-12.2c-6.641-4.342-13.083-8.624-17.858-11.815s-7.875-5.288-7.875-5.288l-8.038-5.023s.711,1.486,1.786,3.9,2.515,5.766,3.971,9.488,2.93,7.827,4.068,11.741a47.131,47.131,0,0,1,2.059,10.619c.116,2.975,1.414,8.323,3.386,14.79s4.625,14.083,7.438,21.55c2.819,7.482,5.8,14.827,8.43,20.751s4.906,10.442,6.3,12.229,3.053,6.459,4.593,12.94a197.4,197.4,0,0,1,4.672,52.131c-.512,9.447-1.935,18.527-4.661,26.136a145.754,145.754,0,0,0-5.972,22.392,177.624,177.624,0,0,0-2.509,19.612c-.417,5.755-.492,10.56-.464,13.927s.162,5.3.162,5.3a22.9,22.9,0,0,1-3.245-1.691,38.157,38.157,0,0,1-7.351-5.884,42.7,42.7,0,0,1-7.893-11.277,53.191,53.191,0,0,1-4.912-17.865c-.752-7.183-1.2-16.678-1.449-26.871s-.3-21.052-.255-31.019.18-19.008.306-25.57.241-10.629.241-10.629-1.917-5.217-4.749-13.135c-2.826-7.9-6.559-18.481-10.205-29.243-3.636-10.732-7.186-21.645-9.671-30.286-2.48-8.623-3.9-15-3.3-16.687a43.979,43.979,0,0,0,1.576-8.649c.42-3.844.711-8.419.8-13.039a119.15,119.15,0,0,0-.413-13.293c-.388-4.014-1.049-7.387-2.057-9.434s-3.788-5.805-7.388-10.287-8-9.659-12.267-14.581-8.386-9.556-11.444-12.971S179.344,327,179.344,327s.154,2.845.266,7.448.181,10.977.011,18.022-.58,14.779-1.428,22.086a91.914,91.914,0,0,1-4.055,19.562c-1.921,5.361-4.127,10.52-6.355,15.242s-4.478,9-6.487,12.615-3.777,6.551-5.043,8.588-2.029,3.171-2.029,3.171-.574-2.886-1.392-7.413-1.879-10.684-2.856-17.241-1.868-13.493-2.35-19.6-.555-11.38.106-14.606,2.289-8.806,4.359-15.363,4.583-14.089,7.013-21.218,4.778-13.855,6.518-18.8,2.873-8.106,2.873-8.106-2.1-2.473-5.291-6.324-7.467-9.054-11.842-14.542-8.822-11.223-12.4-16.173-6.254-9.087-7.093-11.381a96.205,96.205,0,0,0-4.576-9.614c-2.036-3.911-4.409-8.332-6.6-12.666a122.433,122.433,0,0,1-5.511-12.137c-1.312-3.564-1.932-6.457-1.346-8.093s1.086-3.081,1.507-4.328.763-2.3,1.031-3.141.464-1.485.592-1.914S117.16,210.424,117.16,210.424Z" transform="translate(0.644 1.317)" fill="#f79c8b"/>
      </g>
    </g>
    <g id="Group_372" data-name="Group 372" transform="translate(12163.541 -4509.971)">
      <g id="Group_45-2" data-name="Group 45" clip-path="url(#clip-path-6)">
        <path id="Path_19-2" data-name="Path 19" d="M20.714,198.208a5.257,5.257,0,0,1,.676-.324,5.871,5.871,0,0,1,1.648-.411,3.84,3.84,0,0,1,2.047.345,4.267,4.267,0,0,1,1.873,1.945,18.17,18.17,0,0,0,4.033,4.128c1.983,1.646,4.429,3.463,6.811,5.156s4.7,3.262,6.426,4.408,2.853,1.869,2.853,1.869,1.886.8,4.781,2.017,6.808,2.844,10.849,4.493,8.228,3.323,11.653,4.62a52.378,52.378,0,0,0,7.114,2.364c1.017.146,2.366.333,3.874.438a27.094,27.094,0,0,0,4.837-.057,14.294,14.294,0,0,0,4.767-1.3,8.666,8.666,0,0,0,3.655-3.3,68.349,68.349,0,0,0,3.614-7.621c1.418-3.364,2.975-7.35,4.442-11.351s2.85-8.026,3.914-11.454a54.927,54.927,0,0,0,2.015-7.891c.2-1.628.258-3.6.5-5.95a42.7,42.7,0,0,1,1.651-8.24,50.558,50.558,0,0,1,4.835-10.777,86.429,86.429,0,0,1,10.087-13.59,136.988,136.988,0,0,0,12.917-17.652c4.067-6.452,7.807-13.166,10.99-19.255s5.815-11.572,7.645-15.52,2.865-6.376,2.865-6.376,1.279-1.172,3.261-2.9,4.671-4.006,7.485-6.219a79,79,0,0,1,8.248-5.822c2.489-1.459,4.519-2.222,5.5-1.664s-.394,4.279-3.146,9.93-6.864,13.2-11.365,21.452c-4.489,8.23-9.359,17.145-13.643,25.542a195.2,195.2,0,0,0-10.114,22.412c-2.149,6.162-4.537,12.737-7.1,19.244s-5.3,12.922-8.163,18.8a113.842,113.842,0,0,1-8.865,15.5c-3.031,4.3-6.123,7.586-9.221,9.386a64.4,64.4,0,0,0-8.394,5.864,77.738,77.738,0,0,0-6.4,5.88c-1.762,1.81-3.139,3.4-4.075,4.528s-1.432,1.813-1.432,1.813,1.268.515,3.356,1.286,5,1.8,8.286,2.823,6.953,2.047,10.541,2.8a48.164,48.164,0,0,0,10.092,1.216,35.717,35.717,0,0,1,7.457.767,21.308,21.308,0,0,0,5.173.658,5.35,5.35,0,0,0,3.977-2.241c1.248-1.541,2.48-4.033,3.879-7.942s2.818-8.191,4.493-12.683a132.99,132.99,0,0,1,6.046-13.995,91.4,91.4,0,0,1,9.062-14.43,86.76,86.76,0,0,1,13.573-14,169.927,169.927,0,0,0,18.152-18.292c6.428-7.328,12.973-15.483,18.9-23.28,5.944-7.821,11.261-15.279,15.2-21.17s6.507-10.225,6.923-11.754A9.924,9.924,0,0,1,244.6,98.13a27.227,27.227,0,0,1,4.777-3.583,49.293,49.293,0,0,1,4.926-2.6c1.465-.675,2.652-1.143,3.256-1.36a6.617,6.617,0,0,0,1.522-.775,5.9,5.9,0,0,0,.993-.859,4.988,4.988,0,0,0,.54-.7,2.689,2.689,0,0,0,.163-.287,52.779,52.779,0,0,1-.23,5.793,96.053,96.053,0,0,1-2.569,15.132,107.332,107.332,0,0,1-7.7,21.058,109.782,109.782,0,0,1-15.561,23.524c-6.778,7.853-12.945,14.671-18.381,20.478-5.421,5.791-10.117,10.581-13.969,14.392s-6.848,6.636-8.891,8.516-3.124,2.809-3.124,2.809-.792,1.255-2.014,3.178-2.872,4.509-4.592,7.175-3.5,5.407-5,7.647-2.7,3.973-3.264,4.624-1.246,1.385-2,2.138-1.563,1.524-2.381,2.251-1.641,1.411-2.409,1.988a14.643,14.643,0,0,1-2.079,1.349,15.892,15.892,0,0,0-2.986,2.689c-1.3,1.364-2.8,3.067-4.228,4.733s-2.778,3.289-3.772,4.5-1.631,2-1.631,2,2.61-.017,6.6-.068,9.369-.137,14.89-.274,11.211-.327,15.776-.585,8.028-.587,9.095-1a30.933,30.933,0,0,0,4.362-2.109,33.264,33.264,0,0,0,5.788-4.274,34.419,34.419,0,0,0,5.866-7.085A39.97,39.97,0,0,0,220.951,218a84,84,0,0,1,4.058-11.3,86.518,86.518,0,0,1,4.4-8.637c1.391-2.385,2.637-4.249,3.535-5.517s1.449-1.94,1.449-1.94l50.234-68.893s1.8-1.327,4.546-3.323,6.45-4.671,10.243-7.355,7.694-5.392,10.817-7.44,5.477-3.446,6.178-3.514a1.4,1.4,0,0,1,1.436.546A2.468,2.468,0,0,1,318,102.42a9.807,9.807,0,0,1-1.065,2.663,20.447,20.447,0,0,1-2.2,3.156c-.912,1.092-2.215,3.944-3.655,7.6s-3.014,8.121-4.474,12.445-2.8,8.5-3.781,11.6S301.231,145,301.231,145s-3.25,4.457-8.36,11.291c-5.1,6.815-12.035,15.981-19.436,25.434-7.373,9.416-15.2,19.113-22.138,27.067-6.912,7.927-12.946,14.132-16.779,16.626l-15.263,9.932a2.644,2.644,0,0,0,.549.356,7.522,7.522,0,0,0,1.9.646,16,16,0,0,0,3.626.3,32.483,32.483,0,0,0,5.737-.673c2.309-.458,5.675-1.057,9.43-1.7s7.911-1.327,11.778-1.955,7.46-1.2,10.081-1.617,4.277-.674,4.277-.674a33.982,33.982,0,0,0,3.606-.574,46.457,46.457,0,0,0,8.445-2.6,35.245,35.245,0,0,0,9.714-5.947,26.213,26.213,0,0,0,7.369-10.627c1.661-4.472,3.852-11.029,6.349-18.563s5.311-16.078,8.2-24.477c2.9-8.415,5.877-16.7,8.71-23.72s5.527-12.8,7.835-16.166a99.656,99.656,0,0,1,7.153-9.12c2.408-2.763,4.785-5.294,6.971-7.737a71.836,71.836,0,0,0,5.836-7.216,26.968,26.968,0,0,0,3.741-7.56c.791-2.674,1.7-5.8,2.673-8.867s1.993-6.089,3-8.548a16.233,16.233,0,0,1,2.914-5.194c.911-.834,1.737-.6,2.409,1.208s1.851,4.259,3,7.381a48.79,48.79,0,0,1,2.208,26.964,70.963,70.963,0,0,1-7.237,19.8c-3.864,7.3-9.512,16.483-15.8,26.129-6.263,9.614-13.154,19.683-19.546,28.817-6.37,9.1-12.248,17.285-16.528,23.182s-6.955,9.5-6.955,9.5l-8.773,9.464,17.924-.774a16.189,16.189,0,0,0,2.573-.208,27.28,27.28,0,0,0,6.432-1.809,30.961,30.961,0,0,0,8.365-5.2,38.8,38.8,0,0,0,8.356-10.4c2.568-4.537,6.811-11.53,11.879-19.588,5.082-8.081,11-17.24,16.885-26.07,5.906-8.858,11.784-17.383,16.756-24.144,4.985-6.778,9.053-11.774,11.318-13.541a40.009,40.009,0,0,0,5.994-5.869,54.4,54.4,0,0,0,4.351-6.021c1.17-1.869,2.056-3.517,2.65-4.7s.895-1.894.895-1.894.708-.536,1.83-1.373,2.659-1.975,4.315-3.179,3.433-2.475,5.032-3.574,3.023-2.029,3.97-2.548a19.253,19.253,0,0,0,3.759-3.276c1.475-1.538,3.087-3.395,4.581-5.187s2.873-3.524,3.877-4.806,1.635-2.116,1.635-2.116a62.148,62.148,0,0,1-.024,6.5,100.719,100.719,0,0,1-2.173,16.425,96.045,96.045,0,0,1-7.45,21.721A83.571,83.571,0,0,1,409.885,146.3c-6.968,7.027-13.871,14.249-20.3,21.119-6.407,6.849-12.344,13.352-17.407,18.973s-9.236,10.34-12.156,13.67-4.575,5.253-4.575,5.253l-16.315,15.8,18.829-3.476s3.529-1.809,9.089-4.737,13.2-7,21.365-11.506c8.2-4.52,16.944-9.484,24.7-14.182a179.839,179.839,0,0,0,18.8-12.609c4.229-3.457,8.37-6.615,12.205-9.41s7.374-5.234,10.379-7.235,5.487-3.575,7.213-4.644,2.7-1.638,2.7-1.638,1.66-.929,4.323-2.408,6.339-3.512,10.36-5.713,8.405-4.583,12.467-6.747,7.819-4.12,10.58-5.47a98.559,98.559,0,0,1,11.7-4.425c4.752-1.544,10.057-3.1,15.024-4.483s9.613-2.609,13.008-3.483,5.551-1.4,5.551-1.4-.866.923-2.237,2.352-3.245,3.362-5.263,5.385-4.176,4.133-6.12,5.92a40.2,40.2,0,0,1-4.83,3.977c-1.158.728-4.136,2.926-8.015,5.839s-8.639,6.529-13.39,10.112S498.109,158.241,494.3,161a72.4,72.4,0,0,1-7.777,5.231c-1.086.484-3.359,1.366-6.155,2.418s-6.108,2.268-9.283,3.424-6.2,2.247-8.441,3.051-3.681,1.318-3.681,1.318l-18.069,9.8-54.372,29.2-17.548,5.267-10.816,2.591,63.256,12.7s2.065.788,5.308,2,7.675,2.866,12.4,4.585,9.751,3.514,14.168,5.015,8.239,2.712,10.54,3.261,4.806,1.3,7.267,2.108,4.883,1.689,7.017,2.5,3.982,1.55,5.295,2.089,2.094.875,2.094.875-1.56.286-4.007.688-5.772.92-9.312,1.385-7.281.877-10.572,1.069a30.712,30.712,0,0,1-7.84-.25,71.655,71.655,0,0,0-9.756-1.007c-4.455-.266-9.792-.472-15.05-.646s-10.418-.317-14.561-.456-7.251-.275-8.4-.436-3.86-.612-7.317-1.23-7.647-1.4-11.775-2.226-8.179-1.692-11.368-2.482-5.507-1.5-6.167-2.01-2.781-1.758-5.658-3.4-6.5-3.673-10.172-5.759-7.385-4.222-10.45-6.078a54.519,54.519,0,0,1-6.545-4.383c-1.069-.957-3.246-1.713-5.975-2.268A62.406,62.406,0,0,0,321.3,227.9a67.835,67.835,0,0,0-9.237.17,15.336,15.336,0,0,0-5.909,1.4c-1.052.673-2.7,1.633-4.591,2.7s-4,2.224-5.987,3.3-3.833,2.069-5.187,2.792-2.212,1.176-2.212,1.176l22.529,5.5s3.411.92,8.722,2.674,12.558,4.355,20.19,7.706a137.468,137.468,0,0,1,22.608,12.26c6.92,4.794,12.683,10.251,15.728,16.269s5.84,12.129,8.2,17.865a151.059,151.059,0,0,1,5.556,15.638c1.285,4.535,1.941,8.237,1.778,10.649s-1.143,3.532-3.128,2.907a29.469,29.469,0,0,1-7.5-4.383c-2.866-2.117-5.955-4.712-8.834-7.251s-5.542-5.02-7.565-6.916-3.4-3.2-3.711-3.4-2.825-2.315-6.423-5.383-8.267-7.074-12.894-11.053-9.2-7.918-12.615-10.866-5.677-4.9-5.677-4.9-.626-.3-1.641-.764-2.419-1.088-3.974-1.736-3.261-1.319-4.884-1.874a27.324,27.324,0,0,0-4.376-1.184,36.462,36.462,0,0,1-6.672-2.34c-3.062-1.3-6.8-3.031-10.708-4.983s-7.989-4.113-11.756-6.269a114.022,114.022,0,0,1-9.859-6.217c-2.645-1.916-5.022-3.621-7.2-5.1s-4.149-2.72-5.99-3.718a26.96,26.96,0,0,0-5.189-2.229,14.542,14.542,0,0,0-4.792-.629c-1.575.07-3.34.121-5.122.189s-3.576.153-5.215.291a29.674,29.674,0,0,0-4.27.607,3.876,3.876,0,0,0-2.293,1.136c-.32.491,1.573,2.1,4.744,4.359s7.632,5.181,12.435,8.288,9.969,6.413,14.529,9.433,8.531,5.764,10.94,7.743,7.133,5.49,12.83,10,12.4,10.048,18.718,16.052,12.294,12.5,16.518,18.924,6.71,12.773,6.078,18.485-1.184,11.719-1.754,17.469-1.156,11.231-1.856,15.893a51.118,51.118,0,0,1-2.533,10.95c-1.021,2.453-2.25,3.524-3.783,2.654s-3.233-3.242-4.948-6.325-3.441-6.874-5.028-10.585-3.033-7.339-4.185-10.1-2.009-4.641-2.418-4.864a34.669,34.669,0,0,1-4.228-3.6,109.569,109.569,0,0,1-8.413-8.981,116.942,116.942,0,0,1-9.882-13.627,98.987,98.987,0,0,1-8.661-17.564,92.115,92.115,0,0,0-7.449-15.725,57.127,57.127,0,0,0-7.069-9.491,33.768,33.768,0,0,0-5.272-4.663,13.811,13.811,0,0,0-2.069-1.242s-.527-.561-1.376-1.494-2.018-2.239-3.3-3.731-2.683-3.167-3.991-4.841a57.506,57.506,0,0,1-3.447-4.828,57.82,57.82,0,0,0-7.876-9.877,30.693,30.693,0,0,0-4.787-3.97,10.427,10.427,0,0,0-4.547-1.819,21.265,21.265,0,0,0-4.5.152,41.043,41.043,0,0,0-4.683.912c-1.532.384-3,.824-4.33,1.251s-2.5.84-3.445,1.171-4.22.557-8.6.711-9.844.234-15.185.274-10.532.038-14.4.026-6.391-.033-6.391-.033l-6.389.181s.961.579,2.478,1.549,3.591,2.336,5.814,3.907,4.6,3.351,6.718,5.15a32.518,32.518,0,0,1,5.169,5.269,49.611,49.611,0,0,0,7.482,7.136c3.547,2.936,7.893,6.255,12.275,9.431s8.811,6.219,12.5,8.584a50.479,50.479,0,0,0,8.088,4.546c1.442.485,4.117,2.5,7.407,5.591A135.552,135.552,0,0,1,241.3,328.406a65.529,65.529,0,0,1,7.254,16.551,101.661,101.661,0,0,0,5.128,14.931,123.016,123.016,0,0,0,5.981,12.03c1.929,3.406,3.688,6.145,4.966,8.033s2.073,2.925,2.073,2.925a14.766,14.766,0,0,1-2.408.293,24.634,24.634,0,0,1-6.23-.493,27.952,27.952,0,0,1-8.56-3.329,35.768,35.768,0,0,1-9.411-8.2c-3.115-3.771-6.933-8.968-10.906-14.639s-8.093-11.8-11.826-17.466-7.068-10.843-9.474-14.613-3.879-6.122-3.879-6.122-3.03-2.229-7.589-5.643-10.624-8-16.722-12.726-12.2-9.58-16.861-13.555-7.87-7.061-8.174-8.257a30.724,30.724,0,0,0-2.407-5.534c-1.226-2.353-2.8-5.075-4.51-7.745a82.921,82.921,0,0,0-5.286-7.433,20.694,20.694,0,0,0-4.74-4.608,50.772,50.772,0,0,0-8.054-3.074c-3.718-1.193-8.167-2.488-12.442-3.682s-8.364-2.286-11.39-3.08-4.98-1.29-4.98-1.29,1.175,1.573,3,4.169,4.3,6.222,6.9,10.323,5.32,8.684,7.635,13.19a64.261,64.261,0,0,1,5.191,12.741c.968,3.8,1.7,7.595,2.25,11.148s.923,6.863,1.174,9.7.381,5.194.448,6.844.072,2.592.072,2.592-1.424-1.429-3.612-3.7-5.137-5.388-8.193-8.764-6.211-7.007-8.821-10.321a41.842,41.842,0,0,1-5.532-8.409c-.863-2.1-2.082-5.924-3.425-10.475s-2.811-9.831-4.171-14.848-2.612-9.772-3.524-13.272-1.484-5.747-1.484-5.747-2.132-.622-5.414-1.618-7.7-2.361-12.284-3.851-9.318-3.1-13.251-4.587a43.633,43.633,0,0,1-8.415-3.855,67.1,67.1,0,0,0-6.311-3.8c-2.669-1.481-5.727-3.127-8.65-4.794a85.709,85.709,0,0,1-7.835-4.91c-2.127-1.559-3.6-2.995-3.9-4.163s-.57-2.194-.812-3.074-.452-1.617-.625-2.207-.309-1.034-.4-1.331-.142-.446-.142-.446" transform="translate(0.406 0.952)" fill="#f79c8b"/>
        <path id="Path_20-2" data-name="Path 20" d="M20.714,198.208a5.257,5.257,0,0,1,.676-.324,5.871,5.871,0,0,1,1.648-.411,3.84,3.84,0,0,1,2.047.345,4.267,4.267,0,0,1,1.873,1.945,18.17,18.17,0,0,0,4.033,4.128c1.983,1.646,4.429,3.463,6.811,5.156s4.7,3.262,6.426,4.408,2.853,1.869,2.853,1.869,1.886.8,4.781,2.017,6.808,2.844,10.849,4.493,8.228,3.323,11.653,4.62a52.378,52.378,0,0,0,7.114,2.364c1.017.146,2.366.333,3.874.438a27.094,27.094,0,0,0,4.837-.057,14.294,14.294,0,0,0,4.767-1.3,8.666,8.666,0,0,0,3.655-3.3,68.349,68.349,0,0,0,3.614-7.621c1.418-3.364,2.975-7.35,4.442-11.351s2.85-8.026,3.914-11.454a54.927,54.927,0,0,0,2.015-7.891c.2-1.628.258-3.6.5-5.95a42.7,42.7,0,0,1,1.651-8.24,50.558,50.558,0,0,1,4.835-10.777,86.429,86.429,0,0,1,10.087-13.59,136.988,136.988,0,0,0,12.917-17.652c4.067-6.452,7.807-13.166,10.99-19.255s5.815-11.572,7.645-15.52,2.865-6.376,2.865-6.376,1.279-1.172,3.261-2.9,4.671-4.006,7.485-6.219a79,79,0,0,1,8.248-5.822c2.489-1.459,4.519-2.222,5.5-1.664s-.394,4.279-3.146,9.93-6.864,13.2-11.365,21.452c-4.489,8.23-9.359,17.145-13.643,25.542a195.2,195.2,0,0,0-10.114,22.412c-2.149,6.162-4.537,12.737-7.1,19.244s-5.3,12.922-8.163,18.8a113.842,113.842,0,0,1-8.865,15.5c-3.031,4.3-6.123,7.586-9.221,9.386a64.4,64.4,0,0,0-8.394,5.864,77.738,77.738,0,0,0-6.4,5.88c-1.762,1.81-3.139,3.4-4.075,4.528s-1.432,1.813-1.432,1.813,1.268.515,3.356,1.286,5,1.8,8.286,2.823,6.953,2.047,10.541,2.8a48.164,48.164,0,0,0,10.092,1.216,35.717,35.717,0,0,1,7.457.767,21.308,21.308,0,0,0,5.173.658,5.35,5.35,0,0,0,3.977-2.241c1.248-1.541,2.48-4.033,3.879-7.942s2.818-8.191,4.493-12.683a132.99,132.99,0,0,1,6.046-13.995,91.4,91.4,0,0,1,9.062-14.43,86.76,86.76,0,0,1,13.573-14,169.927,169.927,0,0,0,18.152-18.292c6.428-7.328,12.973-15.483,18.9-23.28,5.944-7.821,11.261-15.279,15.2-21.17s6.507-10.225,6.923-11.754A9.924,9.924,0,0,1,244.6,98.13a27.227,27.227,0,0,1,4.777-3.583,49.293,49.293,0,0,1,4.926-2.6c1.465-.675,2.652-1.143,3.256-1.36a6.617,6.617,0,0,0,1.522-.775,5.9,5.9,0,0,0,.993-.859,4.988,4.988,0,0,0,.54-.7,2.689,2.689,0,0,0,.163-.287,52.779,52.779,0,0,1-.23,5.793,96.053,96.053,0,0,1-2.569,15.132,107.332,107.332,0,0,1-7.7,21.058,109.782,109.782,0,0,1-15.561,23.524c-6.778,7.853-12.945,14.671-18.381,20.478-5.421,5.791-10.117,10.581-13.969,14.392s-6.848,6.636-8.891,8.516-3.124,2.809-3.124,2.809-.792,1.255-2.014,3.178-2.872,4.509-4.592,7.175-3.5,5.407-5,7.647-2.7,3.973-3.264,4.624-1.246,1.385-2,2.138-1.563,1.524-2.381,2.251-1.641,1.411-2.409,1.988a14.643,14.643,0,0,1-2.079,1.349,15.892,15.892,0,0,0-2.986,2.689c-1.3,1.364-2.8,3.067-4.228,4.733s-2.778,3.289-3.772,4.5-1.631,2-1.631,2,2.61-.017,6.6-.068,9.369-.137,14.89-.274,11.211-.327,15.776-.585,8.028-.587,9.095-1a30.933,30.933,0,0,0,4.362-2.109,33.264,33.264,0,0,0,5.788-4.274,34.419,34.419,0,0,0,5.866-7.085A39.97,39.97,0,0,0,220.951,218a84,84,0,0,1,4.058-11.3,86.518,86.518,0,0,1,4.4-8.637c1.391-2.385,2.637-4.249,3.535-5.517s1.449-1.94,1.449-1.94l50.234-68.893s1.8-1.327,4.546-3.323,6.45-4.671,10.243-7.355,7.694-5.392,10.817-7.44,5.477-3.446,6.178-3.514a1.4,1.4,0,0,1,1.436.546A2.468,2.468,0,0,1,318,102.42a9.807,9.807,0,0,1-1.065,2.663,20.447,20.447,0,0,1-2.2,3.156c-.912,1.092-2.215,3.944-3.655,7.6s-3.014,8.121-4.474,12.445-2.8,8.5-3.781,11.6S301.231,145,301.231,145s-3.25,4.457-8.36,11.291c-5.1,6.815-12.035,15.981-19.436,25.434-7.373,9.416-15.2,19.113-22.138,27.067-6.912,7.927-12.946,14.132-16.779,16.626l-15.263,9.932a2.644,2.644,0,0,0,.549.356,7.522,7.522,0,0,0,1.9.646,16,16,0,0,0,3.626.3,32.483,32.483,0,0,0,5.737-.673c2.309-.458,5.675-1.057,9.43-1.7s7.911-1.327,11.778-1.955,7.46-1.2,10.081-1.617,4.277-.674,4.277-.674a33.982,33.982,0,0,0,3.606-.574,46.457,46.457,0,0,0,8.445-2.6,35.245,35.245,0,0,0,9.714-5.947,26.213,26.213,0,0,0,7.369-10.627c1.661-4.472,3.852-11.029,6.349-18.563s5.311-16.078,8.2-24.477c2.9-8.415,5.877-16.7,8.71-23.72s5.527-12.8,7.835-16.166a99.656,99.656,0,0,1,7.153-9.12c2.408-2.763,4.785-5.294,6.971-7.737a71.836,71.836,0,0,0,5.836-7.216,26.968,26.968,0,0,0,3.741-7.56c.791-2.674,1.7-5.8,2.673-8.867s1.993-6.089,3-8.548a16.233,16.233,0,0,1,2.914-5.194c.911-.834,1.737-.6,2.409,1.208s1.851,4.259,3,7.381a48.79,48.79,0,0,1,2.208,26.964,70.963,70.963,0,0,1-7.237,19.8c-3.864,7.3-9.512,16.483-15.8,26.129-6.263,9.614-13.154,19.683-19.546,28.817-6.37,9.1-12.248,17.285-16.528,23.182s-6.955,9.5-6.955,9.5l-8.773,9.464,17.924-.774a16.189,16.189,0,0,0,2.573-.208,27.28,27.28,0,0,0,6.432-1.809,30.961,30.961,0,0,0,8.365-5.2,38.8,38.8,0,0,0,8.356-10.4c2.568-4.537,6.811-11.53,11.879-19.588,5.082-8.081,11-17.24,16.885-26.07,5.906-8.858,11.784-17.383,16.756-24.144,4.985-6.778,9.053-11.774,11.318-13.541a40.009,40.009,0,0,0,5.994-5.869,54.4,54.4,0,0,0,4.351-6.021c1.17-1.869,2.056-3.517,2.65-4.7s.895-1.894.895-1.894.708-.536,1.83-1.373,2.659-1.975,4.315-3.179,3.433-2.475,5.032-3.574,3.023-2.029,3.97-2.548a19.253,19.253,0,0,0,3.759-3.276c1.475-1.538,3.087-3.395,4.581-5.187s2.873-3.524,3.877-4.806,1.635-2.116,1.635-2.116a62.148,62.148,0,0,1-.024,6.5,100.719,100.719,0,0,1-2.173,16.425,96.045,96.045,0,0,1-7.45,21.721A83.571,83.571,0,0,1,409.885,146.3c-6.968,7.027-13.871,14.249-20.3,21.119-6.407,6.849-12.344,13.352-17.407,18.973s-9.236,10.34-12.156,13.67-4.575,5.253-4.575,5.253l-16.315,15.8,18.829-3.476s3.529-1.809,9.089-4.737,13.2-7,21.365-11.506c8.2-4.52,16.944-9.484,24.7-14.182a179.839,179.839,0,0,0,18.8-12.609c4.229-3.457,8.37-6.615,12.205-9.41s7.374-5.234,10.379-7.235,5.487-3.575,7.213-4.644,2.7-1.638,2.7-1.638,1.66-.929,4.323-2.408,6.339-3.512,10.36-5.713,8.405-4.583,12.467-6.747,7.819-4.12,10.58-5.47a98.559,98.559,0,0,1,11.7-4.425c4.752-1.544,10.057-3.1,15.024-4.483s9.613-2.609,13.008-3.483,5.551-1.4,5.551-1.4-.866.923-2.237,2.352-3.245,3.362-5.263,5.385-4.176,4.133-6.12,5.92a40.2,40.2,0,0,1-4.83,3.977c-1.158.728-4.136,2.926-8.015,5.839s-8.639,6.529-13.39,10.112S498.109,158.241,494.3,161a72.4,72.4,0,0,1-7.777,5.231c-1.086.484-3.359,1.366-6.155,2.418s-6.108,2.268-9.283,3.424-6.2,2.247-8.441,3.051-3.681,1.318-3.681,1.318l-18.069,9.8-54.372,29.2-17.548,5.267-10.816,2.591,63.256,12.7s2.065.788,5.308,2,7.675,2.866,12.4,4.585,9.751,3.514,14.168,5.015,8.239,2.712,10.54,3.261,4.806,1.3,7.267,2.108,4.883,1.689,7.017,2.5,3.982,1.55,5.295,2.089,2.094.875,2.094.875-1.56.286-4.007.688-5.772.92-9.312,1.385-7.281.877-10.572,1.069a30.712,30.712,0,0,1-7.84-.25,71.655,71.655,0,0,0-9.756-1.007c-4.455-.266-9.792-.472-15.05-.646s-10.418-.317-14.561-.456-7.251-.275-8.4-.436-3.86-.612-7.317-1.23-7.647-1.4-11.775-2.226-8.179-1.692-11.368-2.482-5.507-1.5-6.167-2.01-2.781-1.758-5.658-3.4-6.5-3.673-10.172-5.759-7.385-4.222-10.45-6.078a54.519,54.519,0,0,1-6.545-4.383c-1.069-.957-3.246-1.713-5.975-2.268A62.406,62.406,0,0,0,321.3,227.9a67.835,67.835,0,0,0-9.237.17,15.336,15.336,0,0,0-5.909,1.4c-1.052.673-2.7,1.633-4.591,2.7s-4,2.224-5.987,3.3-3.833,2.069-5.187,2.792-2.212,1.176-2.212,1.176l22.529,5.5s3.411.92,8.722,2.674,12.558,4.355,20.19,7.706a137.468,137.468,0,0,1,22.608,12.26c6.92,4.794,12.683,10.251,15.728,16.269s5.84,12.129,8.2,17.865a151.059,151.059,0,0,1,5.556,15.638c1.285,4.535,1.941,8.237,1.778,10.649s-1.143,3.532-3.128,2.907a29.469,29.469,0,0,1-7.5-4.383c-2.866-2.117-5.955-4.712-8.834-7.251s-5.542-5.02-7.565-6.916-3.4-3.2-3.711-3.4-2.825-2.315-6.423-5.383-8.267-7.074-12.894-11.053-9.2-7.918-12.615-10.866-5.677-4.9-5.677-4.9-.626-.3-1.641-.764-2.419-1.088-3.974-1.736-3.261-1.319-4.884-1.874a27.324,27.324,0,0,0-4.376-1.184,36.462,36.462,0,0,1-6.672-2.34c-3.062-1.3-6.8-3.031-10.708-4.983s-7.989-4.113-11.756-6.269a114.022,114.022,0,0,1-9.859-6.217c-2.645-1.916-5.022-3.621-7.2-5.1s-4.149-2.72-5.99-3.718a26.96,26.96,0,0,0-5.189-2.229,14.542,14.542,0,0,0-4.792-.629c-1.575.07-3.34.121-5.122.189s-3.576.153-5.215.291a29.674,29.674,0,0,0-4.27.607,3.876,3.876,0,0,0-2.293,1.136c-.32.491,1.573,2.1,4.744,4.359s7.632,5.181,12.435,8.288,9.969,6.413,14.529,9.433,8.531,5.764,10.94,7.743,7.133,5.49,12.83,10,12.4,10.048,18.718,16.052,12.294,12.5,16.518,18.924,6.71,12.773,6.078,18.485-1.184,11.719-1.754,17.469-1.156,11.231-1.856,15.893a51.118,51.118,0,0,1-2.533,10.95c-1.021,2.453-2.25,3.524-3.783,2.654s-3.233-3.242-4.948-6.325-3.441-6.874-5.028-10.585-3.033-7.339-4.185-10.1-2.009-4.641-2.418-4.864a34.669,34.669,0,0,1-4.228-3.6,109.569,109.569,0,0,1-8.413-8.981,116.942,116.942,0,0,1-9.882-13.627,98.987,98.987,0,0,1-8.661-17.564,92.115,92.115,0,0,0-7.449-15.725,57.127,57.127,0,0,0-7.069-9.491,33.768,33.768,0,0,0-5.272-4.663,13.811,13.811,0,0,0-2.069-1.242s-.527-.561-1.376-1.494-2.018-2.239-3.3-3.731-2.683-3.167-3.991-4.841a57.506,57.506,0,0,1-3.447-4.828,57.82,57.82,0,0,0-7.876-9.877,30.693,30.693,0,0,0-4.787-3.97,10.427,10.427,0,0,0-4.547-1.819,21.265,21.265,0,0,0-4.5.152,41.043,41.043,0,0,0-4.683.912c-1.532.384-3,.824-4.33,1.251s-2.5.84-3.445,1.171-4.22.557-8.6.711-9.844.234-15.185.274-10.532.038-14.4.026-6.391-.033-6.391-.033l-6.389.181s.961.579,2.478,1.549,3.591,2.336,5.814,3.907,4.6,3.351,6.718,5.15a32.518,32.518,0,0,1,5.169,5.269,49.611,49.611,0,0,0,7.482,7.136c3.547,2.936,7.893,6.255,12.275,9.431s8.811,6.219,12.5,8.584a50.479,50.479,0,0,0,8.088,4.546c1.442.485,4.117,2.5,7.407,5.591A135.552,135.552,0,0,1,241.3,328.406a65.529,65.529,0,0,1,7.254,16.551,101.661,101.661,0,0,0,5.128,14.931,123.016,123.016,0,0,0,5.981,12.03c1.929,3.406,3.688,6.145,4.966,8.033s2.073,2.925,2.073,2.925a14.766,14.766,0,0,1-2.408.293,24.634,24.634,0,0,1-6.23-.493,27.952,27.952,0,0,1-8.56-3.329,35.768,35.768,0,0,1-9.411-8.2c-3.115-3.771-6.933-8.968-10.906-14.639s-8.093-11.8-11.826-17.466-7.068-10.843-9.474-14.613-3.879-6.122-3.879-6.122-3.03-2.229-7.589-5.643-10.624-8-16.722-12.726-12.2-9.58-16.861-13.555-7.87-7.061-8.174-8.257a30.724,30.724,0,0,0-2.407-5.534c-1.226-2.353-2.8-5.075-4.51-7.745a82.921,82.921,0,0,0-5.286-7.433,20.694,20.694,0,0,0-4.74-4.608,50.772,50.772,0,0,0-8.054-3.074c-3.718-1.193-8.167-2.488-12.442-3.682s-8.364-2.286-11.39-3.08-4.98-1.29-4.98-1.29,1.175,1.573,3,4.169,4.3,6.222,6.9,10.323,5.32,8.684,7.635,13.19a64.261,64.261,0,0,1,5.191,12.741c.968,3.8,1.7,7.595,2.25,11.148s.923,6.863,1.174,9.7.381,5.194.448,6.844.072,2.592.072,2.592-1.424-1.429-3.612-3.7-5.137-5.388-8.193-8.764-6.211-7.007-8.821-10.321a41.842,41.842,0,0,1-5.532-8.409c-.863-2.1-2.082-5.924-3.425-10.475s-2.811-9.831-4.171-14.848-2.612-9.772-3.524-13.272-1.484-5.747-1.484-5.747-2.132-.622-5.414-1.618-7.7-2.361-12.284-3.851-9.318-3.1-13.251-4.587a43.633,43.633,0,0,1-8.415-3.855,67.1,67.1,0,0,0-6.311-3.8c-2.669-1.481-5.727-3.127-8.65-4.794a85.709,85.709,0,0,1-7.835-4.91c-2.127-1.559-3.6-2.995-3.9-4.163s-.57-2.194-.812-3.074-.452-1.617-.625-2.207-.309-1.034-.4-1.331S20.714,198.208,20.714,198.208Z" transform="translate(0.406 0.952)" fill="#f79c8b"/>
      </g>
    </g>
  </g>
</svg>
