<svg xmlns="http://www.w3.org/2000/svg" xmlns:xlink="http://www.w3.org/1999/xlink" width="508.103" height="702.743" viewBox="0 0 508.103 702.743">
  <defs>
    <clipPath id="clip-path">
      <rect id="Rectangle_95" data-name="Rectangle 95" width="402.248" height="352.754" fill="#ffd9a5"/>
    </clipPath>
    <clipPath id="clip-path-2">
      <rect id="Rectangle_4" data-name="Rectangle 4" width="215.702" height="198.289" fill="#fec471"/>
    </clipPath>
    <clipPath id="clip-path-3">
      <rect id="Rectangle_4-2" data-name="Rectangle 4" width="215.702" height="198.289" fill="#48a347"/>
    </clipPath>
  </defs>
  <g id="Group_335" data-name="Group 335" transform="translate(173.674 -1078.197)">
    <circle id="Ellipse_151" data-name="Ellipse 151" cx="197.622" cy="197.622" r="197.622" transform="translate(-117.242 1205.817)" fill="#48a347" opacity="0.5"/>
    <g id="Group_40" data-name="Group 40" transform="matrix(0.921, 0.391, -0.391, 0.921, -35.842, 1299.058)">
      <g id="Group_12" data-name="Group 12" clip-path="url(#clip-path)">
        <path id="Path_3" data-name="Path 3" d="M209.481,192.211A126.752,126.752,0,0,0,226.9,226.148c11.977,16.186,17.422,26.628,17.422,26.628s4.356,34.981,5.989,42.814,4.9,21.406,7.079,24.017,8.711,8.354,22.322,0,13.068-8.354,17.423-8.354,11.433-4.7,13.067-5.743,7.079,0,10.89.522,26.679-4.177,29.945-17.752,2.722-27.15,4.9-34.459,18.512-44.379,5.444-57.954-29.945-22.973-42.467-25.584-39.2-4.7-47.913-3.655-51.18,18.274-55.535,16.708-1.089,8.353-1.089,8.353l58.257-12.008s17.423-7.832,28.857-5.744,35.934,5.744,43.557,17.752,10.345,28.194,6.533,40.2-4.9,16.186-4.9,16.186l-3.267,32.893s-6.534,18.274-21.779,15.664-24.5-.522-24.5-.522L284.617,302.9l-9.257,14.619s-9.8,4.7-12.522-8.876-2.722-29.76-2.722-29.76-3.267-30.282-7.079-37.069,9.257,26.628,11.435,34.459,3.811,16.186,3.811,16.186l-3.811-40.725s-5.445-26.106-18.512-36.548,34.845,30.8,35.934,41.246-17.422-43.857-31.579-51.689,45.735,15.142,45.735,15.142l33.212,11.486-85.481-39.158H280.8s15.245-3.133,19.6-5.743-13.066-1.566-15.789-1.566-60.4,1.406-65.881,1.566-9.256,5.743-9.256,5.743" transform="translate(35.261 20.024)" fill="#ffd9a5"/>
        <path id="Path_4" data-name="Path 4" d="M209.481,192.211A126.752,126.752,0,0,0,226.9,226.148c11.977,16.186,17.422,26.628,17.422,26.628s4.356,34.981,5.989,42.814,4.9,21.406,7.079,24.017,8.711,8.354,22.322,0,13.068-8.354,17.423-8.354,11.433-4.7,13.067-5.743,7.079,0,10.89.522,26.679-4.177,29.945-17.752,2.722-27.15,4.9-34.459,18.512-44.379,5.444-57.954-29.945-22.973-42.467-25.584-39.2-4.7-47.913-3.655-51.18,18.274-55.535,16.708-1.089,8.353-1.089,8.353l58.257-12.008s17.423-7.832,28.857-5.744,35.934,5.744,43.557,17.752,10.345,28.194,6.533,40.2-4.9,16.186-4.9,16.186l-3.267,32.893s-6.534,18.274-21.779,15.664-24.5-.522-24.5-.522L284.617,302.9l-9.257,14.619s-9.8,4.7-12.522-8.876-2.722-29.76-2.722-29.76-3.267-30.282-7.079-37.069,9.257,26.628,11.435,34.459,3.811,16.186,3.811,16.186l-3.811-40.725s-5.445-26.106-18.512-36.548,34.845,30.8,35.934,41.246-17.422-43.857-31.579-51.689,45.735,15.142,45.735,15.142l33.212,11.486-85.481-39.158H280.8s15.245-3.133,19.6-5.743-13.066-1.566-15.789-1.566-60.4,1.406-65.881,1.566S209.481,192.211,209.481,192.211Z" transform="translate(35.261 20.024)" fill="#ffd9a5"/>
        <path id="Path_5" data-name="Path 5" d="M209.318,188.949a137.863,137.863,0,0,0,36.089-15.269c17.366-10.8,28.472-15.577,28.472-15.577s36.629-2.707,44.858-3.943,22.511-3.8,25.321-5.774,9.07-8,.936-21.388-8.156-12.871-7.974-17.043S332.6,98.8,331.585,97.195s.3-6.782,1-10.412-3.234-25.736-17.241-29.435-28.173-3.747-35.7-6.14-45.463-19.6-60.154-7.646S194.3,71.29,191.059,83.178s-6.539,37.362-5.817,45.753,16.9,49.8,15.08,53.909,8.657,1.394,8.657,1.394L198.91,127.912s-7.429-17.021-4.774-27.888,7.492-34.188,20.322-40.988,29.809-8.729,42.163-4.575,16.657,5.374,16.657,5.374l34.135,4.508s18.765,7.027,15.406,21.523-1.571,23.453-1.571,23.453l6.546,12.283,14.844,9.481s4.484,9.587-9.772,11.626-31.122,1.36-31.122,1.36-31.689,1.861-38.921,5.228,28.131-7.752,36.383-9.51,17.022-2.973,17.022-2.973l-42.59,1.944s-27.428,4.122-38.855,16.2,33.556-32.094,44.482-32.7-46.426,14.854-55.178,28.088,17.692-43.183,17.692-43.183L255.14,75.828l-44.385,80.258,1.554-35.473s-2.626-14.737-5.162-19.02-2.181,12.454-2.3,15.062-1.066,57.933-1.129,63.187,5.6,9.109,5.6,9.109" transform="translate(31.164 4.74)" fill="#ffd9a5"/>
        <path id="Path_6" data-name="Path 6" d="M209.318,188.949a137.863,137.863,0,0,0,36.089-15.269c17.366-10.8,28.472-15.577,28.472-15.577s36.629-2.707,44.858-3.943,22.511-3.8,25.321-5.774,9.07-8,.936-21.388-8.156-12.871-7.974-17.043S332.6,98.8,331.585,97.195s.3-6.782,1-10.412-3.234-25.736-17.241-29.435-28.173-3.747-35.7-6.14-45.463-19.6-60.154-7.646S194.3,71.29,191.059,83.178s-6.539,37.362-5.817,45.753,16.9,49.8,15.08,53.909,8.657,1.394,8.657,1.394L198.91,127.912s-7.429-17.021-4.774-27.888,7.492-34.188,20.322-40.988,29.809-8.729,42.163-4.575,16.657,5.374,16.657,5.374l34.135,4.508s18.765,7.027,15.406,21.523-1.571,23.453-1.571,23.453l6.546,12.283,14.844,9.481s4.484,9.587-9.772,11.626-31.122,1.36-31.122,1.36-31.689,1.861-38.921,5.228,28.131-7.752,36.383-9.51,17.022-2.973,17.022-2.973l-42.59,1.944s-27.428,4.122-38.855,16.2,33.556-32.094,44.482-32.7-46.426,14.854-55.178,28.088,17.692-43.183,17.692-43.183L255.14,75.828l-44.385,80.258,1.554-35.473s-2.626-14.737-5.162-19.02-2.181,12.454-2.3,15.062-1.066,57.933-1.129,63.187S209.318,188.949,209.318,188.949Z" transform="translate(31.164 4.74)" fill="#ffd9a5"/>
        <path id="Path_7" data-name="Path 7" d="M181.317,161.691a124.384,124.384,0,0,0,6.419-37.323c.076-19.847,1.983-31.378,1.983-31.378s17.68-30.882,21.1-38.163,9-20.144,8.814-23.483-2.018-11.655-18.157-12.454-15.7-.5-19.239-2.925-12.151-2.557-14.112-2.619-5.756-3.948-8.539-6.5S135.355-4.641,124.462,4.578,105.776,25.141,99.57,29.872,57.59,55.64,59.982,73.972,70.4,109.363,79,118.473s29.033,25.692,36.752,29.7,52.714,13.69,55.306,17.394,5.954-6.187,5.954-6.187l-54.669-22.735s-18.922-3.35-26.955-11.428S69.648,100.5,70.733,86.482s8.691-28.7,19.076-36.345,13.8-10.431,13.8-10.431l22.612-24.93s16.4-11.218,27.216-.59S173.054,28.28,173.054,28.28l14.3,1.465,16.4-6.727s10.822,1.646,4.8,14.205-15.841,25.725-15.841,25.725S177,89.4,175.981,97.048s8.627-26.822,11.606-34.407,6.72-15.291,6.72-15.291L172.7,82.6s-11.41,24.271-7.116,40.053-9.653-44.494-4.2-53.6-12.437,45.392-5.675,59.658-28.012-37.83-28.012-37.83L107.649,63.015l45.769,79.539L123.3,121.9s-14.3-5.957-19.426-6.263,9.677,8.564,11.891,10.082,49.983,32.556,54.534,35.48,11.013.493,11.013.493" transform="translate(10.077 0.06)" fill="#ffd9a5"/>
        <path id="Path_8" data-name="Path 8" d="M181.317,161.691a124.384,124.384,0,0,0,6.419-37.323c.076-19.847,1.983-31.378,1.983-31.378s17.68-30.882,21.1-38.163,9-20.144,8.814-23.483-2.018-11.655-18.157-12.454-15.7-.5-19.239-2.925-12.151-2.557-14.112-2.619-5.756-3.948-8.539-6.5S135.355-4.641,124.462,4.578,105.776,25.141,99.57,29.872,57.59,55.64,59.982,73.972,70.4,109.363,79,118.473s29.033,25.692,36.752,29.7,52.714,13.69,55.306,17.394,5.954-6.187,5.954-6.187l-54.669-22.735s-18.922-3.35-26.955-11.428S69.648,100.5,70.733,86.482s8.691-28.7,19.076-36.345,13.8-10.431,13.8-10.431l22.612-24.93s16.4-11.218,27.216-.59S173.054,28.28,173.054,28.28l14.3,1.465,16.4-6.727s10.822,1.646,4.8,14.205-15.841,25.725-15.841,25.725S177,89.4,175.981,97.048s8.627-26.822,11.606-34.407,6.72-15.291,6.72-15.291L172.7,82.6s-11.41,24.271-7.116,40.053-9.653-44.494-4.2-53.6-12.437,45.392-5.675,59.658-28.012-37.83-28.012-37.83L107.649,63.015l45.769,79.539L123.3,121.9s-14.3-5.957-19.426-6.263,9.677,8.564,11.891,10.082,49.983,32.556,54.534,35.48S181.317,161.691,181.317,161.691Z" transform="translate(10.077 0.06)" fill="#ffd9a5"/>
        <path id="Path_9" data-name="Path 9" d="M175.182,173.243a136.959,136.959,0,0,0-35.586-16.32c-19.853-5.606-30.87-10.579-30.87-10.579s-26-24.895-32.332-30.077S58.732,102.36,55.337,101.6,43.1,100.209,37.8,114.848s-4.874,14.317-8.3,16.9-5.95,10.476-6.559,12.266-5.56,4.2-8.891,6.051S-4.206,169.179,1.988,181.781s15.381,22.943,18.387,29.978S34.473,257.6,53.5,260.515s38.348.277,49.87-5.1,33.827-19.571,40-25.561,28.411-44.725,32.844-46.08-4.535-7.208-4.535-7.208l-38.015,44s-8.632,16.491-18.961,21.635S82.76,259.013,69.024,254.1,42.7,238.094,37.948,226.4s-6.6-15.622-6.6-15.622L12.693,183s-6.659-18.232,7-25.227,19.583-14.129,19.583-14.129l5.456-12.763L42.57,113.9s4.666-9.507,15.564-.459,21.343,21.763,21.343,21.763,22.108,21.849,29.482,24.919S84.5,144.7,77.74,139.843,64.3,129.39,64.3,129.39l29.274,29.73S114.7,176.4,131.7,176.844s-47.251-3.52-54.845-11.077,41.988,24.112,58.162,21.865-45.7,15.245-45.7,15.245l-33.5,10.686L148.237,193.6l-29.083,21.97s-9.954,11.507-11.69,16.142,11.276-6.524,13.414-8.14,46.541-36.95,50.74-40.324,3.565-10,3.565-10" transform="translate(0.084 12.191)" fill="#ffd9a5"/>
        <path id="Path_10" data-name="Path 10" d="M175.182,173.243a136.959,136.959,0,0,0-35.586-16.32c-19.853-5.606-30.87-10.579-30.87-10.579s-26-24.895-32.332-30.077S58.732,102.36,55.337,101.6,43.1,100.209,37.8,114.848s-4.874,14.317-8.3,16.9-5.95,10.476-6.559,12.266-5.56,4.2-8.891,6.051S-4.206,169.179,1.988,181.781s15.381,22.943,18.387,29.978S34.473,257.6,53.5,260.515s38.348.277,49.87-5.1,33.827-19.571,40-25.561,28.411-44.725,32.844-46.08-4.535-7.208-4.535-7.208l-38.015,44s-8.632,16.491-18.961,21.635S82.76,259.013,69.024,254.1,42.7,238.094,37.948,226.4s-6.6-15.622-6.6-15.622L12.693,183s-6.659-18.232,7-25.227,19.583-14.129,19.583-14.129l5.456-12.763L42.57,113.9s4.666-9.507,15.564-.459,21.343,21.763,21.343,21.763,22.108,21.849,29.482,24.919S84.5,144.7,77.74,139.843,64.3,129.39,64.3,129.39l29.274,29.73S114.7,176.4,131.7,176.844s-47.251-3.52-54.845-11.077,41.988,24.112,58.162,21.865-45.7,15.245-45.7,15.245l-33.5,10.686L148.237,193.6l-29.083,21.97s-9.954,11.507-11.69,16.142,11.276-6.524,13.414-8.14,46.541-36.95,50.74-40.324S175.182,173.243,175.182,173.243Z" transform="translate(0.084 12.191)" fill="#ffd9a5"/>
        <path id="Path_11" data-name="Path 11" d="M147.851,332.334l20.69-124.784V168.912" transform="translate(24.887 20.332)" fill="#ffd9a5"/>
        <path id="Path_12" data-name="Path 12" d="M147.851,332.334l20.69-124.784V168.912" transform="translate(24.887 20.332)" fill="#ffd9a5"/>
      </g>
    </g>
    <g id="Group_41" data-name="Group 41" transform="matrix(0.951, -0.309, 0.309, 0.951, -72, 1144.853)" opacity="0.7">
      <g id="Group_1" data-name="Group 1" clip-path="url(#clip-path-2)">
        <path id="Path_1" data-name="Path 1" d="M131.437,42.313s16.886-23.056,28.9-14.938,3.9,23.056,3.9,23.056S150.272,73.488,144.751,77.06s40.592-38.644,51.958-21.433-24.03,29.551-24.03,29.551L149.622,96.544s30.2-4.222,44.489-1.624,24.03,10.067,21.108,14.614-1.948,11.691-29.226,9.093-44.164-7.144-44.164-7.144,32.149,13.964,42.54,24.68,15.912,21.757,8.119,22.732-26.628-4.546-37.994-13.314a149.991,149.991,0,0,1-20.783-20.134L151.9,157.595s10.067,18.51,2.273,23.381-18.51,0-18.51,0-10.716-12.665-12.34-18.51-5.52-24.68-5.52-24.68v24.68s-1.948,22.19-9.742,20.675-12.665-8.335-12.665-21.974a120,120,0,0,1,2.6-24.68L77.53,161.816s-37.02,49.035-45.788,33.448-1.624-28.9-1.624-28.9,17.861-31.824,31.824-36.7c0,0-29.551,9.093-41.241,8.119S-1.705,130.08.893,122.242s4.221-9.786,20.459-13.033,50.984-5.846,50.984-5.846l15.263.325S37.588,78.034,33.366,75.112,3.49,53.354,9.336,45.56s11.366-12.34,27.6-4.221S79.154,69.916,79.154,69.916L66.165,46.535S50.9,10.489,59.995,3.994,78.5.1,85.649,11.463,99.288,46.535,99.288,46.535L108.119,90.7l-3.96-45.463S103.51,2.046,118.448,2.7s12.989,39.618,12.989,39.618" transform="translate(-0.268 -0.268)" fill="#fec471"/>
        <path id="Path_2" data-name="Path 2" d="M131.437,42.313s16.886-23.056,28.9-14.938,3.9,23.056,3.9,23.056S150.272,73.488,144.751,77.06s40.592-38.644,51.958-21.433-24.03,29.551-24.03,29.551L149.622,96.544s30.2-4.222,44.489-1.624,24.03,10.067,21.108,14.614-1.948,11.691-29.226,9.093-44.164-7.144-44.164-7.144,32.149,13.964,42.54,24.68,15.912,21.757,8.119,22.732-26.628-4.546-37.994-13.314a149.991,149.991,0,0,1-20.783-20.134L151.9,157.595s10.067,18.51,2.273,23.381-18.51,0-18.51,0-10.716-12.665-12.34-18.51-5.52-24.68-5.52-24.68v24.68s-1.948,22.19-9.742,20.675-12.665-8.335-12.665-21.974a120,120,0,0,1,2.6-24.68L77.53,161.816s-37.02,49.035-45.788,33.448-1.624-28.9-1.624-28.9,17.861-31.824,31.824-36.7c0,0-29.551,9.093-41.241,8.119S-1.705,130.08.893,122.242s4.221-9.786,20.459-13.033,50.984-5.846,50.984-5.846l15.263.325S37.588,78.034,33.366,75.112,3.49,53.354,9.336,45.56s11.366-12.34,27.6-4.221S79.154,69.916,79.154,69.916L66.165,46.535S50.9,10.489,59.995,3.994,78.5.1,85.649,11.463,99.288,46.535,99.288,46.535L108.119,90.7l-3.96-45.463S103.51,2.046,118.448,2.7,131.437,42.313,131.437,42.313Z" transform="translate(-0.268 -0.268)" fill="#fec471"/>
      </g>
    </g>
    <g id="Group_42" data-name="Group 42" transform="matrix(0.819, 0.574, -0.574, 0.819, 113.734, 1180.68)" opacity="0.7">
      <g id="Group_1-2" data-name="Group 1" clip-path="url(#clip-path-3)">
        <path id="Path_1-2" data-name="Path 1" d="M131.437,42.313s16.886-23.056,28.9-14.938,3.9,23.056,3.9,23.056S150.272,73.488,144.751,77.06s40.592-38.644,51.958-21.433-24.03,29.551-24.03,29.551L149.622,96.544s30.2-4.222,44.489-1.624,24.03,10.067,21.108,14.614-1.948,11.691-29.226,9.093-44.164-7.144-44.164-7.144,32.149,13.964,42.54,24.68,15.912,21.757,8.119,22.732-26.628-4.546-37.994-13.314a149.991,149.991,0,0,1-20.783-20.134L151.9,157.595s10.067,18.51,2.273,23.381-18.51,0-18.51,0-10.716-12.665-12.34-18.51-5.52-24.68-5.52-24.68v24.68s-1.948,22.19-9.742,20.675-12.665-8.335-12.665-21.974a120,120,0,0,1,2.6-24.68L77.53,161.816s-37.02,49.035-45.788,33.448-1.624-28.9-1.624-28.9,17.861-31.824,31.824-36.7c0,0-29.551,9.093-41.241,8.119S-1.705,130.08.893,122.242s4.221-9.786,20.459-13.033,50.984-5.846,50.984-5.846l15.263.325S37.588,78.034,33.366,75.112,3.49,53.354,9.336,45.56s11.366-12.34,27.6-4.221S79.154,69.916,79.154,69.916L66.165,46.535S50.9,10.489,59.995,3.994,78.5.1,85.649,11.463,99.288,46.535,99.288,46.535L108.119,90.7l-3.96-45.463S103.51,2.046,118.448,2.7s12.989,39.618,12.989,39.618" transform="translate(-0.268 -0.268)" fill="#48a347"/>
        <path id="Path_2-2" data-name="Path 2" d="M131.437,42.313s16.886-23.056,28.9-14.938,3.9,23.056,3.9,23.056S150.272,73.488,144.751,77.06s40.592-38.644,51.958-21.433-24.03,29.551-24.03,29.551L149.622,96.544s30.2-4.222,44.489-1.624,24.03,10.067,21.108,14.614-1.948,11.691-29.226,9.093-44.164-7.144-44.164-7.144,32.149,13.964,42.54,24.68,15.912,21.757,8.119,22.732-26.628-4.546-37.994-13.314a149.991,149.991,0,0,1-20.783-20.134L151.9,157.595s10.067,18.51,2.273,23.381-18.51,0-18.51,0-10.716-12.665-12.34-18.51-5.52-24.68-5.52-24.68v24.68s-1.948,22.19-9.742,20.675-12.665-8.335-12.665-21.974a120,120,0,0,1,2.6-24.68L77.53,161.816s-37.02,49.035-45.788,33.448-1.624-28.9-1.624-28.9,17.861-31.824,31.824-36.7c0,0-29.551,9.093-41.241,8.119S-1.705,130.08.893,122.242s4.221-9.786,20.459-13.033,50.984-5.846,50.984-5.846l15.263.325S37.588,78.034,33.366,75.112,3.49,53.354,9.336,45.56s11.366-12.34,27.6-4.221S79.154,69.916,79.154,69.916L66.165,46.535S50.9,10.489,59.995,3.994,78.5.1,85.649,11.463,99.288,46.535,99.288,46.535L108.119,90.7l-3.96-45.463S103.51,2.046,118.448,2.7,131.437,42.313,131.437,42.313Z" transform="translate(-0.268 -0.268)" fill="#48a347"/>
      </g>
    </g>
  </g>
</svg>
